<?xml version="1.0" encoding="utf-8" standalone="no"?>
<!DOCTYPE svg PUBLIC "-//W3C//DTD SVG 1.1//EN"
  "http://www.w3.org/Graphics/SVG/1.1/DTD/svg11.dtd">
<svg xmlns:xlink="http://www.w3.org/1999/xlink" width="380.52pt" height="328.658094pt" viewBox="0 0 380.52 328.658094" xmlns="http://www.w3.org/2000/svg" version="1.1">
 <metadata>
  <rdf:RDF xmlns:dc="http://purl.org/dc/elements/1.1/" xmlns:cc="http://creativecommons.org/ns#" xmlns:rdf="http://www.w3.org/1999/02/22-rdf-syntax-ns#">
   <cc:Work>
    <dc:type rdf:resource="http://purl.org/dc/dcmitype/StillImage"/>
    <dc:date>2022-03-19T13:41:08.976555</dc:date>
    <dc:format>image/svg+xml</dc:format>
    <dc:creator>
     <cc:Agent>
      <dc:title>Matplotlib v3.5.1, https://matplotlib.org/</dc:title>
     </cc:Agent>
    </dc:creator>
   </cc:Work>
  </rdf:RDF>
 </metadata>
 <defs>
  <style type="text/css">*{stroke-linejoin: round; stroke-linecap: butt}</style>
 </defs>
 <g id="figure_1">
  <g id="patch_1">
   <path d="M 0 328.658094 
L 380.52 328.658094 
L 380.52 0 
L 0 0 
L 0 328.658094 
z
" style="fill: none"/>
  </g>
  <g id="axes_1">
   <g id="patch_2">
    <path d="M 16.2 292.989187 
L 373.32 292.989187 
L 373.32 26.877187 
L 16.2 26.877187 
L 16.2 292.989187 
z
" style="fill: none"/>
   </g>
   <g id="PolyCollection_1">
    <defs>
     <path id="m394cdb8d78" d="M 32.432727 -36.809493 
L 32.432727 -35.668906 
L 34.064157 -35.668906 
L 35.695587 -35.668906 
L 37.327017 -35.668906 
L 38.958447 -35.668906 
L 40.589877 -35.668906 
L 42.221307 -35.668906 
L 43.852736 -35.668906 
L 45.484166 -35.668906 
L 47.115596 -35.668906 
L 48.747026 -35.668906 
L 50.378456 -35.668906 
L 52.009886 -35.668906 
L 53.641316 -35.668906 
L 55.272746 -35.668906 
L 56.904175 -35.668906 
L 58.535605 -35.668906 
L 60.167035 -35.668906 
L 61.798465 -35.668906 
L 63.429895 -35.668906 
L 65.061325 -35.668906 
L 66.692755 -35.668906 
L 68.324185 -35.668906 
L 69.955614 -35.668906 
L 71.587044 -35.668906 
L 73.218474 -35.668906 
L 74.849904 -35.668906 
L 76.481334 -35.668906 
L 78.112764 -35.668906 
L 79.744194 -35.668906 
L 81.375624 -35.668906 
L 83.007053 -35.668906 
L 84.638483 -35.668906 
L 86.269913 -35.668906 
L 87.901343 -35.668906 
L 89.532773 -35.668906 
L 91.164203 -35.668906 
L 92.795633 -35.668906 
L 94.427063 -35.668906 
L 96.058492 -35.668906 
L 97.689922 -35.668906 
L 99.321352 -35.668906 
L 100.952782 -35.668906 
L 102.584212 -35.668906 
L 104.215642 -35.668906 
L 105.847072 -35.668906 
L 107.478502 -35.668906 
L 109.109931 -35.668906 
L 110.741361 -35.668906 
L 112.372791 -35.668906 
L 114.004221 -35.668906 
L 115.635651 -35.668906 
L 117.267081 -35.668906 
L 118.898511 -35.668906 
L 120.529941 -35.668906 
L 122.16137 -35.668906 
L 123.7928 -35.668906 
L 125.42423 -35.668906 
L 127.05566 -35.668906 
L 128.68709 -35.668906 
L 130.31852 -35.668906 
L 131.94995 -35.668906 
L 133.58138 -35.668906 
L 135.21281 -35.668906 
L 136.844239 -35.668906 
L 138.475669 -35.668906 
L 140.107099 -35.668906 
L 141.738529 -35.668906 
L 143.369959 -35.668906 
L 145.001389 -35.668906 
L 146.632819 -35.668906 
L 148.264249 -35.668906 
L 149.895678 -35.668906 
L 151.527108 -35.668906 
L 153.158538 -35.668906 
L 154.789968 -35.668906 
L 156.421398 -35.668906 
L 158.052828 -35.668906 
L 159.684258 -35.668906 
L 161.315688 -35.668906 
L 162.947117 -35.668906 
L 164.578547 -35.668906 
L 166.209977 -35.668906 
L 167.841407 -35.668906 
L 169.472837 -35.668906 
L 171.104267 -35.668906 
L 172.735697 -35.668906 
L 174.367127 -35.668906 
L 175.998556 -35.668906 
L 177.629986 -35.668906 
L 179.261416 -35.668906 
L 180.892846 -35.668906 
L 182.524276 -35.668906 
L 184.155706 -35.668906 
L 185.787136 -35.668906 
L 187.418566 -35.668906 
L 189.049995 -35.668906 
L 190.681425 -35.668906 
L 192.312855 -35.668906 
L 193.944285 -35.668906 
L 195.575715 -35.668906 
L 197.207145 -35.668906 
L 198.838575 -35.668906 
L 200.470005 -35.668906 
L 202.101434 -35.668906 
L 203.732864 -35.668906 
L 205.364294 -35.668906 
L 206.995724 -35.668906 
L 208.627154 -35.668906 
L 210.258584 -35.668906 
L 211.890014 -35.668906 
L 213.521444 -35.668906 
L 215.152873 -35.668906 
L 216.784303 -35.668906 
L 218.415733 -35.668906 
L 220.047163 -35.668906 
L 221.678593 -35.668906 
L 223.310023 -35.668906 
L 224.941453 -35.668906 
L 226.572883 -35.668906 
L 228.204312 -35.668906 
L 229.835742 -35.668906 
L 231.467172 -35.668906 
L 233.098602 -35.668906 
L 234.730032 -35.668906 
L 236.361462 -35.668906 
L 237.992892 -35.668906 
L 239.624322 -35.668906 
L 241.255751 -35.668906 
L 242.887181 -35.668906 
L 244.518611 -35.668906 
L 246.150041 -35.668906 
L 247.781471 -35.668906 
L 249.412901 -35.668906 
L 251.044331 -35.668906 
L 252.675761 -35.668906 
L 254.30719 -35.668906 
L 255.93862 -35.668906 
L 257.57005 -35.668906 
L 259.20148 -35.668906 
L 260.83291 -35.668906 
L 262.46434 -35.668906 
L 264.09577 -35.668906 
L 265.7272 -35.668906 
L 267.35863 -35.668906 
L 268.990059 -35.668906 
L 270.621489 -35.668906 
L 272.252919 -35.668906 
L 273.884349 -35.668906 
L 275.515779 -35.668906 
L 277.147209 -35.668906 
L 278.778639 -35.668906 
L 280.410069 -35.668906 
L 282.041498 -35.668906 
L 283.672928 -35.668906 
L 285.304358 -35.668906 
L 286.935788 -35.668906 
L 288.567218 -35.668906 
L 290.198648 -35.668906 
L 291.830078 -35.668906 
L 293.461508 -35.668906 
L 295.092937 -35.668906 
L 296.724367 -35.668906 
L 298.355797 -35.668906 
L 299.987227 -35.668906 
L 301.618657 -35.668906 
L 303.250087 -35.668906 
L 304.881517 -35.668906 
L 306.512947 -35.668906 
L 308.144376 -35.668906 
L 309.775806 -35.668906 
L 311.407236 -35.668906 
L 313.038666 -35.668906 
L 314.670096 -35.668906 
L 316.301526 -35.668906 
L 317.932956 -35.668906 
L 319.564386 -35.668906 
L 321.195815 -35.668906 
L 322.827245 -35.668906 
L 324.458675 -35.668906 
L 326.090105 -35.668906 
L 327.721535 -35.668906 
L 329.352965 -35.668906 
L 330.984395 -35.668906 
L 332.615825 -35.668906 
L 334.247254 -35.668906 
L 335.878684 -35.668906 
L 337.510114 -35.668906 
L 339.141544 -35.668906 
L 340.772974 -35.668906 
L 342.404404 -35.668906 
L 344.035834 -35.668906 
L 345.667264 -35.668906 
L 347.298693 -35.668906 
L 348.930123 -35.668906 
L 350.561553 -35.668906 
L 352.192983 -35.668906 
L 353.824413 -35.668906 
L 355.455843 -35.668906 
L 357.087273 -35.668906 
L 357.087273 -36.081581 
L 357.087273 -36.081581 
L 355.455843 -36.155742 
L 353.824413 -36.241458 
L 352.192983 -36.340189 
L 350.561553 -36.453517 
L 348.930123 -36.583149 
L 347.298693 -36.730913 
L 345.667264 -36.898755 
L 344.035834 -37.088732 
L 342.404404 -37.303001 
L 340.772974 -37.543809 
L 339.141544 -37.813473 
L 337.510114 -38.114364 
L 335.878684 -38.448881 
L 334.247254 -38.819424 
L 332.615825 -39.228364 
L 330.984395 -39.678007 
L 329.352965 -40.170558 
L 327.721535 -40.708078 
L 326.090105 -41.292443 
L 324.458675 -41.925295 
L 322.827245 -42.607998 
L 321.195815 -43.341588 
L 319.564386 -44.126728 
L 317.932956 -44.963662 
L 316.301526 -45.85217 
L 314.670096 -46.791528 
L 313.038666 -47.780475 
L 311.407236 -48.817183 
L 309.775806 -49.899234 
L 308.144376 -51.023607 
L 306.512947 -52.186672 
L 304.881517 -53.3842 
L 303.250087 -54.611373 
L 301.618657 -55.862817 
L 299.987227 -57.132642 
L 298.355797 -58.414491 
L 296.724367 -59.701607 
L 295.092937 -60.986906 
L 293.461508 -62.263068 
L 291.830078 -63.522625 
L 290.198648 -64.758074 
L 288.567218 -65.961984 
L 286.935788 -67.127114 
L 285.304358 -68.246531 
L 283.672928 -69.313734 
L 282.041498 -70.322773 
L 280.410069 -71.268361 
L 278.778639 -72.145991 
L 277.147209 -72.95203 
L 275.515779 -73.683816 
L 273.884349 -74.339732 
L 272.252919 -74.91927 
L 270.621489 -75.423083 
L 268.990059 -75.853007 
L 267.35863 -76.212076 
L 265.7272 -76.504518 
L 264.09577 -76.735721 
L 262.46434 -76.912192 
L 260.83291 -77.041489 
L 259.20148 -77.132146 
L 257.57005 -77.193568 
L 255.93862 -77.23593 
L 254.30719 -77.270044 
L 252.675761 -77.307237 
L 251.044331 -77.359206 
L 249.412901 -77.437879 
L 247.781471 -77.55527 
L 246.150041 -77.723337 
L 244.518611 -77.953843 
L 242.887181 -78.258228 
L 241.255751 -78.647481 
L 239.624322 -79.132035 
L 237.992892 -79.721664 
L 236.361462 -80.425403 
L 234.730032 -81.251477 
L 233.098602 -82.20725 
L 231.467172 -83.29919 
L 229.835742 -84.532851 
L 228.204312 -85.912865 
L 226.572883 -87.442961 
L 224.941453 -89.125987 
L 223.310023 -90.963947 
L 221.678593 -92.958057 
L 220.047163 -95.108795 
L 218.415733 -97.415971 
L 216.784303 -99.878796 
L 215.152873 -102.495954 
L 213.521444 -105.265674 
L 211.890014 -108.185802 
L 210.258584 -111.253866 
L 208.627154 -114.467138 
L 206.995724 -117.822687 
L 205.364294 -121.317423 
L 203.732864 -124.948131 
L 202.101434 -128.711495 
L 200.470005 -132.604103 
L 198.838575 -136.622449 
L 197.207145 -140.762916 
L 195.575715 -145.021743 
L 193.944285 -149.394987 
L 192.312855 -153.878465 
L 190.681425 -158.46769 
L 189.049995 -163.157791 
L 187.418566 -167.943429 
L 185.787136 -172.8187 
L 184.155706 -177.777038 
L 182.524276 -182.811106 
L 180.892846 -187.912694 
L 179.261416 -193.072609 
L 177.629986 -198.280578 
L 175.998556 -203.525146 
L 174.367127 -208.793595 
L 172.735697 -214.071863 
L 171.104267 -219.344487 
L 169.472837 -224.594561 
L 167.841407 -229.803715 
L 166.209977 -234.952118 
L 164.578547 -240.018505 
L 162.947117 -244.980238 
L 161.315688 -249.813393 
L 159.684258 -254.492878 
L 158.052828 -258.992586 
L 156.421398 -263.285581 
L 154.789968 -267.344309 
L 153.158538 -271.140848 
L 151.527108 -274.647182 
L 149.895678 -277.835496 
L 148.264249 -280.678498 
L 146.632819 -283.149756 
L 145.001389 -285.224045 
L 143.369959 -286.877698 
L 141.738529 -288.088961 
L 140.107099 -288.838335 
L 138.475669 -289.108906 
L 136.844239 -288.886656 
L 135.21281 -288.160738 
L 133.58138 -286.923729 
L 131.94995 -285.171827 
L 130.31852 -282.905017 
L 128.68709 -280.127176 
L 127.05566 -276.846131 
L 125.42423 -273.073656 
L 123.7928 -268.825414 
L 122.16137 -264.120844 
L 120.529941 -258.982987 
L 118.898511 -253.438258 
L 117.267081 -247.516178 
L 115.635651 -241.249044 
L 114.004221 -234.671573 
L 112.372791 -227.820507 
L 110.741361 -220.734191 
L 109.109931 -213.452137 
L 107.478502 -206.01457 
L 105.847072 -198.46198 
L 104.215642 -190.834673 
L 102.584212 -183.172336 
L 100.952782 -175.513631 
L 99.321352 -167.895798 
L 97.689922 -160.354311 
L 96.058492 -152.922559 
L 94.427063 -145.631568 
L 92.795633 -138.50978 
L 91.164203 -131.582863 
L 89.532773 -124.873579 
L 87.901343 -118.401697 
L 86.269913 -112.183952 
L 84.638483 -106.234045 
L 83.007053 -100.562693 
L 81.375624 -95.177707 
L 79.744194 -90.084114 
L 78.112764 -85.284304 
L 76.481334 -80.7782 
L 74.849904 -76.563455 
L 73.218474 -72.635661 
L 71.587044 -68.988569 
L 69.955614 -65.614313 
L 68.324185 -62.503645 
L 66.692755 -59.646157 
L 65.061325 -57.030502 
L 63.429895 -54.644609 
L 61.798465 -52.475885 
L 60.167035 -50.511399 
L 58.535605 -48.738058 
L 56.904175 -47.142761 
L 55.272746 -45.71254 
L 53.641316 -44.434677 
L 52.009886 -43.296813 
L 50.378456 -42.287035 
L 48.747026 -41.393938 
L 47.115596 -40.606691 
L 45.484166 -39.915067 
L 43.852736 -39.309478 
L 42.221307 -38.780982 
L 40.589877 -38.321295 
L 38.958447 -37.922778 
L 37.327017 -37.578432 
L 35.695587 -37.28187 
L 34.064157 -37.027301 
L 32.432727 -36.809493 
z
" style="stroke: #00ccff; stroke-width: 1.5"/>
    </defs>
    <g clip-path="url(#pdabc370367)">
     <use xlink:href="#m394cdb8d78" x="0" y="328.658094" style="fill: #00ccff; fill-opacity: 0.25; stroke: #00ccff; stroke-width: 1.5"/>
    </g>
   </g>
   <g id="matplotlib.axis_1">
    <g id="xtick_1">
     <g id="line2d_1">
      <defs>
       <path id="m0f88453c91" d="M 0 0 
L 0 9 
" style="stroke: #666666; stroke-opacity: 0.015686; stroke-width: 1.875"/>
      </defs>
      <g>
       <use xlink:href="#m0f88453c91" x="67.562181" y="292.989187" style="fill: #666666; fill-opacity: 0.015686; stroke: #666666; stroke-opacity: 0.015686; stroke-width: 1.875"/>
      </g>
     </g>
     <g id="text_1">
      <!-- −2 -->
      <g style="fill: #666666" transform="translate(55.399876 318.026609)scale(0.165 -0.165)">
       <defs>
        <path id="DejaVuSans-2212" d="M 678 2272 
L 4684 2272 
L 4684 1741 
L 678 1741 
L 678 2272 
z
" transform="scale(0.015625)"/>
        <path id="DejaVuSans-32" d="M 1228 531 
L 3431 531 
L 3431 0 
L 469 0 
L 469 531 
Q 828 903 1448 1529 
Q 2069 2156 2228 2338 
Q 2531 2678 2651 2914 
Q 2772 3150 2772 3378 
Q 2772 3750 2511 3984 
Q 2250 4219 1831 4219 
Q 1534 4219 1204 4116 
Q 875 4013 500 3803 
L 500 4441 
Q 881 4594 1212 4672 
Q 1544 4750 1819 4750 
Q 2544 4750 2975 4387 
Q 3406 4025 3406 3419 
Q 3406 3131 3298 2873 
Q 3191 2616 2906 2266 
Q 2828 2175 2409 1742 
Q 1991 1309 1228 531 
z
" transform="scale(0.015625)"/>
       </defs>
       <use xlink:href="#DejaVuSans-2212"/>
       <use xlink:href="#DejaVuSans-32" x="83.789062"/>
      </g>
     </g>
    </g>
    <g id="xtick_2">
     <g id="line2d_2">
      <g>
       <use xlink:href="#m0f88453c91" x="134.94107" y="292.989187" style="fill: #666666; fill-opacity: 0.015686; stroke: #666666; stroke-opacity: 0.015686; stroke-width: 1.875"/>
      </g>
     </g>
     <g id="text_2">
      <!-- −1 -->
      <g style="fill: #666666" transform="translate(122.778765 318.026609)scale(0.165 -0.165)">
       <defs>
        <path id="DejaVuSans-31" d="M 794 531 
L 1825 531 
L 1825 4091 
L 703 3866 
L 703 4441 
L 1819 4666 
L 2450 4666 
L 2450 531 
L 3481 531 
L 3481 0 
L 794 0 
L 794 531 
z
" transform="scale(0.015625)"/>
       </defs>
       <use xlink:href="#DejaVuSans-2212"/>
       <use xlink:href="#DejaVuSans-31" x="83.789062"/>
      </g>
     </g>
    </g>
    <g id="xtick_3">
     <g id="line2d_3">
      <g>
       <use xlink:href="#m0f88453c91" x="202.319959" y="292.989187" style="fill: #666666; fill-opacity: 0.015686; stroke: #666666; stroke-opacity: 0.015686; stroke-width: 1.875"/>
      </g>
     </g>
     <g id="text_3">
      <!-- 0 -->
      <g style="fill: #666666" transform="translate(197.070897 318.026609)scale(0.165 -0.165)">
       <defs>
        <path id="DejaVuSans-30" d="M 2034 4250 
Q 1547 4250 1301 3770 
Q 1056 3291 1056 2328 
Q 1056 1369 1301 889 
Q 1547 409 2034 409 
Q 2525 409 2770 889 
Q 3016 1369 3016 2328 
Q 3016 3291 2770 3770 
Q 2525 4250 2034 4250 
z
M 2034 4750 
Q 2819 4750 3233 4129 
Q 3647 3509 3647 2328 
Q 3647 1150 3233 529 
Q 2819 -91 2034 -91 
Q 1250 -91 836 529 
Q 422 1150 422 2328 
Q 422 3509 836 4129 
Q 1250 4750 2034 4750 
z
" transform="scale(0.015625)"/>
       </defs>
       <use xlink:href="#DejaVuSans-30"/>
      </g>
     </g>
    </g>
    <g id="xtick_4">
     <g id="line2d_4">
      <g>
       <use xlink:href="#m0f88453c91" x="269.698848" y="292.989187" style="fill: #666666; fill-opacity: 0.015686; stroke: #666666; stroke-opacity: 0.015686; stroke-width: 1.875"/>
      </g>
     </g>
     <g id="text_4">
      <!-- 1 -->
      <g style="fill: #666666" transform="translate(264.449786 318.026609)scale(0.165 -0.165)">
       <use xlink:href="#DejaVuSans-31"/>
      </g>
     </g>
    </g>
    <g id="xtick_5">
     <g id="line2d_5">
      <g>
       <use xlink:href="#m0f88453c91" x="337.077737" y="292.989187" style="fill: #666666; fill-opacity: 0.015686; stroke: #666666; stroke-opacity: 0.015686; stroke-width: 1.875"/>
      </g>
     </g>
     <g id="text_5">
      <!-- 2 -->
      <g style="fill: #666666" transform="translate(331.828675 318.026609)scale(0.165 -0.165)">
       <use xlink:href="#DejaVuSans-32"/>
      </g>
     </g>
    </g>
   </g>
   <g id="matplotlib.axis_2"/>
   <g id="patch_3">
    <path d="M 16.2 292.989187 
L 16.2 26.877187 
" style="fill: none"/>
   </g>
   <g id="patch_4">
    <path d="M 373.32 292.989187 
L 373.32 26.877187 
" style="fill: none"/>
   </g>
   <g id="patch_5">
    <path d="M 16.2 292.989187 
L 373.32 292.989187 
" style="fill: none"/>
   </g>
   <g id="patch_6">
    <path d="M 16.2 26.877187 
L 373.32 26.877187 
" style="fill: none"/>
   </g>
   <g id="text_6">
    <!-- $N = $10 -->
    <g style="fill: #666666" transform="translate(165.51 20.877187)scale(0.18 -0.18)">
     <defs>
      <path id="DejaVuSans-Oblique-4e" d="M 1081 4666 
L 1931 4666 
L 3219 666 
L 4000 4666 
L 4616 4666 
L 3706 0 
L 2853 0 
L 1569 4025 
L 788 0 
L 172 0 
L 1081 4666 
z
" transform="scale(0.015625)"/>
      <path id="DejaVuSans-3d" d="M 678 2906 
L 4684 2906 
L 4684 2381 
L 678 2381 
L 678 2906 
z
M 678 1631 
L 4684 1631 
L 4684 1100 
L 678 1100 
L 678 1631 
z
" transform="scale(0.015625)"/>
     </defs>
     <use xlink:href="#DejaVuSans-Oblique-4e" transform="translate(0 0.78125)"/>
     <use xlink:href="#DejaVuSans-3d" transform="translate(94.287109 0.78125)"/>
     <use xlink:href="#DejaVuSans-31" transform="translate(197.558594 0.78125)"/>
     <use xlink:href="#DejaVuSans-30" transform="translate(261.181641 0.78125)"/>
    </g>
   </g>
  </g>
 </g>
 <defs>
  <clipPath id="pdabc370367">
   <rect x="16.2" y="26.877187" width="357.12" height="266.112"/>
  </clipPath>
 </defs>
</svg>
