<?xml version="1.0" encoding="utf-8" standalone="no"?>
<!DOCTYPE svg PUBLIC "-//W3C//DTD SVG 1.1//EN"
  "http://www.w3.org/Graphics/SVG/1.1/DTD/svg11.dtd">
<svg xmlns:xlink="http://www.w3.org/1999/xlink" width="380.52pt" height="328.658094pt" viewBox="0 0 380.52 328.658094" xmlns="http://www.w3.org/2000/svg" version="1.1">
 <metadata>
  <rdf:RDF xmlns:dc="http://purl.org/dc/elements/1.1/" xmlns:cc="http://creativecommons.org/ns#" xmlns:rdf="http://www.w3.org/1999/02/22-rdf-syntax-ns#">
   <cc:Work>
    <dc:type rdf:resource="http://purl.org/dc/dcmitype/StillImage"/>
    <dc:date>2022-03-19T13:37:21.729228</dc:date>
    <dc:format>image/svg+xml</dc:format>
    <dc:creator>
     <cc:Agent>
      <dc:title>Matplotlib v3.5.1, https://matplotlib.org/</dc:title>
     </cc:Agent>
    </dc:creator>
   </cc:Work>
  </rdf:RDF>
 </metadata>
 <defs>
  <style type="text/css">*{stroke-linejoin: round; stroke-linecap: butt}</style>
 </defs>
 <g id="figure_1">
  <g id="patch_1">
   <path d="M 0 328.658094 
L 380.52 328.658094 
L 380.52 0 
L 0 0 
L 0 328.658094 
z
" style="fill: none"/>
  </g>
  <g id="axes_1">
   <g id="patch_2">
    <path d="M 16.2 292.989187 
L 373.32 292.989187 
L 373.32 26.877187 
L 16.2 26.877187 
L 16.2 292.989187 
z
" style="fill: none"/>
   </g>
   <g id="PolyCollection_1">
    <defs>
     <path id="m572f7b5d70" d="M 32.432727 -35.669045 
L 32.432727 -35.668906 
L 34.064157 -35.668906 
L 35.695587 -35.668906 
L 37.327017 -35.668906 
L 38.958447 -35.668906 
L 40.589877 -35.668906 
L 42.221307 -35.668906 
L 43.852736 -35.668906 
L 45.484166 -35.668906 
L 47.115596 -35.668906 
L 48.747026 -35.668906 
L 50.378456 -35.668906 
L 52.009886 -35.668906 
L 53.641316 -35.668906 
L 55.272746 -35.668906 
L 56.904175 -35.668906 
L 58.535605 -35.668906 
L 60.167035 -35.668906 
L 61.798465 -35.668906 
L 63.429895 -35.668906 
L 65.061325 -35.668906 
L 66.692755 -35.668906 
L 68.324185 -35.668906 
L 69.955614 -35.668906 
L 71.587044 -35.668906 
L 73.218474 -35.668906 
L 74.849904 -35.668906 
L 76.481334 -35.668906 
L 78.112764 -35.668906 
L 79.744194 -35.668906 
L 81.375624 -35.668906 
L 83.007053 -35.668906 
L 84.638483 -35.668906 
L 86.269913 -35.668906 
L 87.901343 -35.668906 
L 89.532773 -35.668906 
L 91.164203 -35.668906 
L 92.795633 -35.668906 
L 94.427063 -35.668906 
L 96.058492 -35.668906 
L 97.689922 -35.668906 
L 99.321352 -35.668906 
L 100.952782 -35.668906 
L 102.584212 -35.668906 
L 104.215642 -35.668906 
L 105.847072 -35.668906 
L 107.478502 -35.668906 
L 109.109931 -35.668906 
L 110.741361 -35.668906 
L 112.372791 -35.668906 
L 114.004221 -35.668906 
L 115.635651 -35.668906 
L 117.267081 -35.668906 
L 118.898511 -35.668906 
L 120.529941 -35.668906 
L 122.16137 -35.668906 
L 123.7928 -35.668906 
L 125.42423 -35.668906 
L 127.05566 -35.668906 
L 128.68709 -35.668906 
L 130.31852 -35.668906 
L 131.94995 -35.668906 
L 133.58138 -35.668906 
L 135.21281 -35.668906 
L 136.844239 -35.668906 
L 138.475669 -35.668906 
L 140.107099 -35.668906 
L 141.738529 -35.668906 
L 143.369959 -35.668906 
L 145.001389 -35.668906 
L 146.632819 -35.668906 
L 148.264249 -35.668906 
L 149.895678 -35.668906 
L 151.527108 -35.668906 
L 153.158538 -35.668906 
L 154.789968 -35.668906 
L 156.421398 -35.668906 
L 158.052828 -35.668906 
L 159.684258 -35.668906 
L 161.315688 -35.668906 
L 162.947117 -35.668906 
L 164.578547 -35.668906 
L 166.209977 -35.668906 
L 167.841407 -35.668906 
L 169.472837 -35.668906 
L 171.104267 -35.668906 
L 172.735697 -35.668906 
L 174.367127 -35.668906 
L 175.998556 -35.668906 
L 177.629986 -35.668906 
L 179.261416 -35.668906 
L 180.892846 -35.668906 
L 182.524276 -35.668906 
L 184.155706 -35.668906 
L 185.787136 -35.668906 
L 187.418566 -35.668906 
L 189.049995 -35.668906 
L 190.681425 -35.668906 
L 192.312855 -35.668906 
L 193.944285 -35.668906 
L 195.575715 -35.668906 
L 197.207145 -35.668906 
L 198.838575 -35.668906 
L 200.470005 -35.668906 
L 202.101434 -35.668906 
L 203.732864 -35.668906 
L 205.364294 -35.668906 
L 206.995724 -35.668906 
L 208.627154 -35.668906 
L 210.258584 -35.668906 
L 211.890014 -35.668906 
L 213.521444 -35.668906 
L 215.152873 -35.668906 
L 216.784303 -35.668906 
L 218.415733 -35.668906 
L 220.047163 -35.668906 
L 221.678593 -35.668906 
L 223.310023 -35.668906 
L 224.941453 -35.668906 
L 226.572883 -35.668906 
L 228.204312 -35.668906 
L 229.835742 -35.668906 
L 231.467172 -35.668906 
L 233.098602 -35.668906 
L 234.730032 -35.668906 
L 236.361462 -35.668906 
L 237.992892 -35.668906 
L 239.624322 -35.668906 
L 241.255751 -35.668906 
L 242.887181 -35.668906 
L 244.518611 -35.668906 
L 246.150041 -35.668906 
L 247.781471 -35.668906 
L 249.412901 -35.668906 
L 251.044331 -35.668906 
L 252.675761 -35.668906 
L 254.30719 -35.668906 
L 255.93862 -35.668906 
L 257.57005 -35.668906 
L 259.20148 -35.668906 
L 260.83291 -35.668906 
L 262.46434 -35.668906 
L 264.09577 -35.668906 
L 265.7272 -35.668906 
L 267.35863 -35.668906 
L 268.990059 -35.668906 
L 270.621489 -35.668906 
L 272.252919 -35.668906 
L 273.884349 -35.668906 
L 275.515779 -35.668906 
L 277.147209 -35.668906 
L 278.778639 -35.668906 
L 280.410069 -35.668906 
L 282.041498 -35.668906 
L 283.672928 -35.668906 
L 285.304358 -35.668906 
L 286.935788 -35.668906 
L 288.567218 -35.668906 
L 290.198648 -35.668906 
L 291.830078 -35.668906 
L 293.461508 -35.668906 
L 295.092937 -35.668906 
L 296.724367 -35.668906 
L 298.355797 -35.668906 
L 299.987227 -35.668906 
L 301.618657 -35.668906 
L 303.250087 -35.668906 
L 304.881517 -35.668906 
L 306.512947 -35.668906 
L 308.144376 -35.668906 
L 309.775806 -35.668906 
L 311.407236 -35.668906 
L 313.038666 -35.668906 
L 314.670096 -35.668906 
L 316.301526 -35.668906 
L 317.932956 -35.668906 
L 319.564386 -35.668906 
L 321.195815 -35.668906 
L 322.827245 -35.668906 
L 324.458675 -35.668906 
L 326.090105 -35.668906 
L 327.721535 -35.668906 
L 329.352965 -35.668906 
L 330.984395 -35.668906 
L 332.615825 -35.668906 
L 334.247254 -35.668906 
L 335.878684 -35.668906 
L 337.510114 -35.668906 
L 339.141544 -35.668906 
L 340.772974 -35.668906 
L 342.404404 -35.668906 
L 344.035834 -35.668906 
L 345.667264 -35.668906 
L 347.298693 -35.668906 
L 348.930123 -35.668906 
L 350.561553 -35.668906 
L 352.192983 -35.668906 
L 353.824413 -35.668906 
L 355.455843 -35.668906 
L 357.087273 -35.668906 
L 357.087273 -35.668996 
L 357.087273 -35.668996 
L 355.455843 -35.669522 
L 353.824413 -35.671386 
L 352.192983 -35.674745 
L 350.561553 -35.676953 
L 348.930123 -35.67549 
L 347.298693 -35.672812 
L 345.667264 -35.67387 
L 344.035834 -35.681537 
L 342.404404 -35.693558 
L 340.772974 -35.702899 
L 339.141544 -35.707092 
L 337.510114 -35.710464 
L 335.878684 -35.713747 
L 334.247254 -35.718902 
L 332.615825 -35.734601 
L 330.984395 -35.757991 
L 329.352965 -35.777809 
L 327.721535 -35.798385 
L 326.090105 -35.829465 
L 324.458675 -35.864336 
L 322.827245 -35.889585 
L 321.195815 -35.912982 
L 319.564386 -35.964331 
L 317.932956 -36.053896 
L 316.301526 -36.152621 
L 314.670096 -36.232546 
L 313.038666 -36.301347 
L 311.407236 -36.386304 
L 309.775806 -36.515891 
L 308.144376 -36.722028 
L 306.512947 -37.010613 
L 304.881517 -37.322227 
L 303.250087 -37.555676 
L 301.618657 -37.684585 
L 299.987227 -37.809654 
L 298.355797 -38.046054 
L 296.724367 -38.447268 
L 295.092937 -38.987093 
L 293.461508 -39.563104 
L 291.830078 -40.112641 
L 290.198648 -40.637008 
L 288.567218 -41.147245 
L 286.935788 -41.726295 
L 285.304358 -42.470144 
L 283.672928 -43.397267 
L 282.041498 -44.476798 
L 280.410069 -45.647609 
L 278.778639 -46.869956 
L 277.147209 -48.182699 
L 275.515779 -49.747003 
L 273.884349 -51.699343 
L 272.252919 -53.884316 
L 270.621489 -56.012816 
L 268.990059 -58.043505 
L 267.35863 -60.21407 
L 265.7272 -62.640322 
L 264.09577 -65.193071 
L 262.46434 -67.944458 
L 260.83291 -71.070745 
L 259.20148 -74.330939 
L 257.57005 -77.557359 
L 255.93862 -81.126428 
L 254.30719 -85.257889 
L 252.675761 -89.739809 
L 251.044331 -94.387639 
L 249.412901 -99.133069 
L 247.781471 -104.033689 
L 246.150041 -109.310512 
L 244.518611 -114.97246 
L 242.887181 -120.802969 
L 241.255751 -126.770405 
L 239.624322 -133.029252 
L 237.992892 -139.645545 
L 236.361462 -146.340995 
L 234.730032 -152.773069 
L 233.098602 -159.002056 
L 231.467172 -165.310415 
L 229.835742 -171.880573 
L 228.204312 -178.796698 
L 226.572883 -185.891356 
L 224.941453 -192.944697 
L 223.310023 -200.294063 
L 221.678593 -208.210909 
L 220.047163 -216.054087 
L 218.415733 -223.152831 
L 216.784303 -229.57898 
L 215.152873 -235.675613 
L 213.521444 -241.608766 
L 211.890014 -247.507764 
L 210.258584 -253.324932 
L 208.627154 -258.643011 
L 206.995724 -263.684235 
L 205.364294 -269.05444 
L 203.732864 -274.200708 
L 202.101434 -278.020252 
L 200.470005 -280.463479 
L 198.838575 -282.151754 
L 197.207145 -283.694528 
L 195.575715 -285.754538 
L 193.944285 -287.989604 
L 192.312855 -289.108906 
L 190.681425 -288.99808 
L 189.049995 -288.62774 
L 187.418566 -288.275456 
L 185.787136 -287.506715 
L 184.155706 -285.949158 
L 182.524276 -283.506149 
L 180.892846 -280.20164 
L 179.261416 -276.287016 
L 177.629986 -272.271632 
L 175.998556 -268.578686 
L 174.367127 -265.052531 
L 172.735697 -260.742732 
L 171.104267 -255.159867 
L 169.472837 -248.788498 
L 167.841407 -242.052245 
L 166.209977 -235.2156 
L 164.578547 -228.683172 
L 162.947117 -222.451028 
L 161.315688 -215.850563 
L 159.684258 -208.63208 
L 158.052828 -201.413934 
L 156.421398 -194.48548 
L 154.789968 -187.409752 
L 153.158538 -180.208673 
L 151.527108 -173.48267 
L 149.895678 -167.179807 
L 148.264249 -160.65667 
L 146.632819 -153.591837 
L 145.001389 -146.192115 
L 143.369959 -139.029739 
L 141.738529 -132.541573 
L 140.107099 -126.519089 
L 138.475669 -120.684202 
L 136.844239 -115.12449 
L 135.21281 -109.828177 
L 133.58138 -104.505901 
L 131.94995 -99.157916 
L 130.31852 -94.281786 
L 128.68709 -90.066286 
L 127.05566 -86.061014 
L 125.42423 -81.938834 
L 123.7928 -77.963951 
L 122.16137 -74.472701 
L 120.529941 -71.343789 
L 118.898511 -68.230182 
L 117.267081 -65.089624 
L 115.635651 -62.204849 
L 114.004221 -59.712957 
L 112.372791 -57.441687 
L 110.741361 -55.307523 
L 109.109931 -53.400608 
L 107.478502 -51.719959 
L 105.847072 -50.137892 
L 104.215642 -48.563756 
L 102.584212 -47.093759 
L 100.952782 -45.85634 
L 99.321352 -44.821704 
L 97.689922 -43.892274 
L 96.058492 -42.999053 
L 94.427063 -42.100913 
L 92.795633 -41.20299 
L 91.164203 -40.396704 
L 89.532773 -39.797056 
L 87.901343 -39.383282 
L 86.269913 -39.028988 
L 84.638483 -38.683717 
L 83.007053 -38.351272 
L 81.375624 -37.986045 
L 79.744194 -37.607567 
L 78.112764 -37.325824 
L 76.481334 -37.161397 
L 74.849904 -37.030721 
L 73.218474 -36.873715 
L 71.587044 -36.691722 
L 69.955614 -36.508139 
L 68.324185 -36.356812 
L 66.692755 -36.260219 
L 65.061325 -36.193991 
L 63.429895 -36.124174 
L 61.798465 -36.05831 
L 60.167035 -36.013382 
L 58.535605 -35.963985 
L 56.904175 -35.896312 
L 55.272746 -35.843956 
L 53.641316 -35.816629 
L 52.009886 -35.788739 
L 50.378456 -35.751168 
L 48.747026 -35.717943 
L 47.115596 -35.700674 
L 45.484166 -35.698785 
L 43.852736 -35.704648 
L 42.221307 -35.710668 
L 40.589877 -35.710994 
L 38.958447 -35.701051 
L 37.327017 -35.685507 
L 35.695587 -35.67436 
L 34.064157 -35.670017 
L 32.432727 -35.669045 
z
" style="stroke: #ffff00; stroke-width: 1.5"/>
    </defs>
    <g clip-path="url(#p6e0c1680b6)">
     <use xlink:href="#m572f7b5d70" x="0" y="328.658094" style="fill: #ffff00; fill-opacity: 0.25; stroke: #ffff00; stroke-width: 1.5"/>
    </g>
   </g>
   <g id="matplotlib.axis_1">
    <g id="xtick_1">
     <g id="line2d_1">
      <defs>
       <path id="m358d90a647" d="M 0 0 
L 0 9 
" style="stroke: #666666; stroke-opacity: 0.015686; stroke-width: 1.875"/>
      </defs>
      <g>
       <use xlink:href="#m358d90a647" x="90.698973" y="292.989187" style="fill: #666666; fill-opacity: 0.015686; stroke: #666666; stroke-opacity: 0.015686; stroke-width: 1.875"/>
      </g>
     </g>
     <g id="text_1">
      <!-- −2 -->
      <g style="fill: #666666" transform="translate(78.536669 318.026609)scale(0.165 -0.165)">
       <defs>
        <path id="DejaVuSans-2212" d="M 678 2272 
L 4684 2272 
L 4684 1741 
L 678 1741 
L 678 2272 
z
" transform="scale(0.015625)"/>
        <path id="DejaVuSans-32" d="M 1228 531 
L 3431 531 
L 3431 0 
L 469 0 
L 469 531 
Q 828 903 1448 1529 
Q 2069 2156 2228 2338 
Q 2531 2678 2651 2914 
Q 2772 3150 2772 3378 
Q 2772 3750 2511 3984 
Q 2250 4219 1831 4219 
Q 1534 4219 1204 4116 
Q 875 4013 500 3803 
L 500 4441 
Q 881 4594 1212 4672 
Q 1544 4750 1819 4750 
Q 2544 4750 2975 4387 
Q 3406 4025 3406 3419 
Q 3406 3131 3298 2873 
Q 3191 2616 2906 2266 
Q 2828 2175 2409 1742 
Q 1991 1309 1228 531 
z
" transform="scale(0.015625)"/>
       </defs>
       <use xlink:href="#DejaVuSans-2212"/>
       <use xlink:href="#DejaVuSans-32" x="83.789062"/>
      </g>
     </g>
    </g>
    <g id="xtick_2">
     <g id="line2d_2">
      <g>
       <use xlink:href="#m358d90a647" x="190.677529" y="292.989187" style="fill: #666666; fill-opacity: 0.015686; stroke: #666666; stroke-opacity: 0.015686; stroke-width: 1.875"/>
      </g>
     </g>
     <g id="text_2">
      <!-- 0 -->
      <g style="fill: #666666" transform="translate(185.428467 318.026609)scale(0.165 -0.165)">
       <defs>
        <path id="DejaVuSans-30" d="M 2034 4250 
Q 1547 4250 1301 3770 
Q 1056 3291 1056 2328 
Q 1056 1369 1301 889 
Q 1547 409 2034 409 
Q 2525 409 2770 889 
Q 3016 1369 3016 2328 
Q 3016 3291 2770 3770 
Q 2525 4250 2034 4250 
z
M 2034 4750 
Q 2819 4750 3233 4129 
Q 3647 3509 3647 2328 
Q 3647 1150 3233 529 
Q 2819 -91 2034 -91 
Q 1250 -91 836 529 
Q 422 1150 422 2328 
Q 422 3509 836 4129 
Q 1250 4750 2034 4750 
z
" transform="scale(0.015625)"/>
       </defs>
       <use xlink:href="#DejaVuSans-30"/>
      </g>
     </g>
    </g>
    <g id="xtick_3">
     <g id="line2d_3">
      <g>
       <use xlink:href="#m358d90a647" x="290.656086" y="292.989187" style="fill: #666666; fill-opacity: 0.015686; stroke: #666666; stroke-opacity: 0.015686; stroke-width: 1.875"/>
      </g>
     </g>
     <g id="text_3">
      <!-- 2 -->
      <g style="fill: #666666" transform="translate(285.407023 318.026609)scale(0.165 -0.165)">
       <use xlink:href="#DejaVuSans-32"/>
      </g>
     </g>
    </g>
   </g>
   <g id="matplotlib.axis_2"/>
   <g id="patch_3">
    <path d="M 16.2 292.989187 
L 16.2 26.877187 
" style="fill: none"/>
   </g>
   <g id="patch_4">
    <path d="M 373.32 292.989187 
L 373.32 26.877187 
" style="fill: none"/>
   </g>
   <g id="patch_5">
    <path d="M 16.2 292.989187 
L 373.32 292.989187 
" style="fill: none"/>
   </g>
   <g id="patch_6">
    <path d="M 16.2 26.877187 
L 373.32 26.877187 
" style="fill: none"/>
   </g>
   <g id="text_4">
    <!-- $N = $1000000 -->
    <g style="fill: #666666" transform="translate(136.89 20.877187)scale(0.18 -0.18)">
     <defs>
      <path id="DejaVuSans-Oblique-4e" d="M 1081 4666 
L 1931 4666 
L 3219 666 
L 4000 4666 
L 4616 4666 
L 3706 0 
L 2853 0 
L 1569 4025 
L 788 0 
L 172 0 
L 1081 4666 
z
" transform="scale(0.015625)"/>
      <path id="DejaVuSans-3d" d="M 678 2906 
L 4684 2906 
L 4684 2381 
L 678 2381 
L 678 2906 
z
M 678 1631 
L 4684 1631 
L 4684 1100 
L 678 1100 
L 678 1631 
z
" transform="scale(0.015625)"/>
      <path id="DejaVuSans-31" d="M 794 531 
L 1825 531 
L 1825 4091 
L 703 3866 
L 703 4441 
L 1819 4666 
L 2450 4666 
L 2450 531 
L 3481 531 
L 3481 0 
L 794 0 
L 794 531 
z
" transform="scale(0.015625)"/>
     </defs>
     <use xlink:href="#DejaVuSans-Oblique-4e" transform="translate(0 0.78125)"/>
     <use xlink:href="#DejaVuSans-3d" transform="translate(94.287109 0.78125)"/>
     <use xlink:href="#DejaVuSans-31" transform="translate(197.558594 0.78125)"/>
     <use xlink:href="#DejaVuSans-30" transform="translate(261.181641 0.78125)"/>
     <use xlink:href="#DejaVuSans-30" transform="translate(324.804688 0.78125)"/>
     <use xlink:href="#DejaVuSans-30" transform="translate(388.427734 0.78125)"/>
     <use xlink:href="#DejaVuSans-30" transform="translate(452.050781 0.78125)"/>
     <use xlink:href="#DejaVuSans-30" transform="translate(515.673828 0.78125)"/>
     <use xlink:href="#DejaVuSans-30" transform="translate(579.296875 0.78125)"/>
    </g>
   </g>
  </g>
 </g>
 <defs>
  <clipPath id="p6e0c1680b6">
   <rect x="16.2" y="26.877187" width="357.12" height="266.112"/>
  </clipPath>
 </defs>
</svg>
