<?xml version="1.0" encoding="utf-8" standalone="no"?>
<!DOCTYPE svg PUBLIC "-//W3C//DTD SVG 1.1//EN"
  "http://www.w3.org/Graphics/SVG/1.1/DTD/svg11.dtd">
<svg xmlns:xlink="http://www.w3.org/1999/xlink" width="415.93875pt" height="328.658094pt" viewBox="0 0 415.93875 328.658094" xmlns="http://www.w3.org/2000/svg" version="1.1">
 <metadata>
  <rdf:RDF xmlns:dc="http://purl.org/dc/elements/1.1/" xmlns:cc="http://creativecommons.org/ns#" xmlns:rdf="http://www.w3.org/1999/02/22-rdf-syntax-ns#">
   <cc:Work>
    <dc:type rdf:resource="http://purl.org/dc/dcmitype/StillImage"/>
    <dc:date>2022-03-19T20:46:18.146129</dc:date>
    <dc:format>image/svg+xml</dc:format>
    <dc:creator>
     <cc:Agent>
      <dc:title>Matplotlib v3.5.1, https://matplotlib.org/</dc:title>
     </cc:Agent>
    </dc:creator>
   </cc:Work>
  </rdf:RDF>
 </metadata>
 <defs>
  <style type="text/css">*{stroke-linejoin: round; stroke-linecap: butt}</style>
 </defs>
 <g id="figure_1">
  <g id="patch_1">
   <path d="M 0 328.658094 
L 415.93875 328.658094 
L 415.93875 0 
L 0 0 
L 0 328.658094 
z
" style="fill: none"/>
  </g>
  <g id="axes_1">
   <g id="patch_2">
    <path d="M 51.61875 292.989187 
L 408.73875 292.989187 
L 408.73875 26.877187 
L 51.61875 26.877187 
L 51.61875 292.989187 
z
" style="fill: none"/>
   </g>
   <g id="patch_3">
    <path d="M 67.851477 292.989187 
L 132.782386 292.989187 
L 132.782386 39.549187 
L 67.851477 39.549187 
z
" clip-path="url(#pf6d983e87b)" style="fill: #ff5252; fill-opacity: 0.75; stroke: #000000; stroke-width: 1.5; stroke-linejoin: miter"/>
   </g>
   <g id="patch_4">
    <path d="M 132.782386 292.989187 
L 197.713295 292.989187 
L 197.713295 166.269187 
L 132.782386 166.269187 
z
" clip-path="url(#pf6d983e87b)" style="fill: #ff5252; fill-opacity: 0.75; stroke: #000000; stroke-width: 1.5; stroke-linejoin: miter"/>
   </g>
   <g id="patch_5">
    <path d="M 197.713295 292.989187 
L 262.644205 292.989187 
L 262.644205 292.989187 
L 197.713295 292.989187 
z
" clip-path="url(#pf6d983e87b)" style="fill: #ff5252; fill-opacity: 0.75; stroke: #000000; stroke-width: 1.5; stroke-linejoin: miter"/>
   </g>
   <g id="patch_6">
    <path d="M 262.644205 292.989187 
L 327.575114 292.989187 
L 327.575114 229.629187 
L 262.644205 229.629187 
z
" clip-path="url(#pf6d983e87b)" style="fill: #ff5252; fill-opacity: 0.75; stroke: #000000; stroke-width: 1.5; stroke-linejoin: miter"/>
   </g>
   <g id="patch_7">
    <path d="M 327.575114 292.989187 
L 392.506023 292.989187 
L 392.506023 102.909187 
L 327.575114 102.909187 
z
" clip-path="url(#pf6d983e87b)" style="fill: #ff5252; fill-opacity: 0.75; stroke: #000000; stroke-width: 1.5; stroke-linejoin: miter"/>
   </g>
   <g id="matplotlib.axis_1">
    <g id="xtick_1">
     <g id="line2d_1">
      <defs>
       <path id="me34ed322f0" d="M 0 0 
L 0 9 
" style="stroke: #666666; stroke-opacity: 0.015686; stroke-width: 1.875"/>
      </defs>
      <g>
       <use xlink:href="#me34ed322f0" x="80.827327" y="292.989187" style="fill: #666666; fill-opacity: 0.015686; stroke: #666666; stroke-opacity: 0.015686; stroke-width: 1.875"/>
      </g>
     </g>
     <g id="text_1">
      <!-- −2.0 -->
      <g style="fill: #666666" transform="translate(60.794007 318.026609)scale(0.165 -0.165)">
       <defs>
        <path id="DejaVuSans-2212" d="M 678 2272 
L 4684 2272 
L 4684 1741 
L 678 1741 
L 678 2272 
z
" transform="scale(0.015625)"/>
        <path id="DejaVuSans-32" d="M 1228 531 
L 3431 531 
L 3431 0 
L 469 0 
L 469 531 
Q 828 903 1448 1529 
Q 2069 2156 2228 2338 
Q 2531 2678 2651 2914 
Q 2772 3150 2772 3378 
Q 2772 3750 2511 3984 
Q 2250 4219 1831 4219 
Q 1534 4219 1204 4116 
Q 875 4013 500 3803 
L 500 4441 
Q 881 4594 1212 4672 
Q 1544 4750 1819 4750 
Q 2544 4750 2975 4387 
Q 3406 4025 3406 3419 
Q 3406 3131 3298 2873 
Q 3191 2616 2906 2266 
Q 2828 2175 2409 1742 
Q 1991 1309 1228 531 
z
" transform="scale(0.015625)"/>
        <path id="DejaVuSans-2e" d="M 684 794 
L 1344 794 
L 1344 0 
L 684 0 
L 684 794 
z
" transform="scale(0.015625)"/>
        <path id="DejaVuSans-30" d="M 2034 4250 
Q 1547 4250 1301 3770 
Q 1056 3291 1056 2328 
Q 1056 1369 1301 889 
Q 1547 409 2034 409 
Q 2525 409 2770 889 
Q 3016 1369 3016 2328 
Q 3016 3291 2770 3770 
Q 2525 4250 2034 4250 
z
M 2034 4750 
Q 2819 4750 3233 4129 
Q 3647 3509 3647 2328 
Q 3647 1150 3233 529 
Q 2819 -91 2034 -91 
Q 1250 -91 836 529 
Q 422 1150 422 2328 
Q 422 3509 836 4129 
Q 1250 4750 2034 4750 
z
" transform="scale(0.015625)"/>
       </defs>
       <use xlink:href="#DejaVuSans-2212"/>
       <use xlink:href="#DejaVuSans-32" x="83.789062"/>
       <use xlink:href="#DejaVuSans-2e" x="147.412109"/>
       <use xlink:href="#DejaVuSans-30" x="179.199219"/>
      </g>
     </g>
    </g>
    <g id="xtick_2">
     <g id="line2d_2">
      <g>
       <use xlink:href="#me34ed322f0" x="149.275529" y="292.989187" style="fill: #666666; fill-opacity: 0.015686; stroke: #666666; stroke-opacity: 0.015686; stroke-width: 1.875"/>
      </g>
     </g>
     <g id="text_2">
      <!-- −1.5 -->
      <g style="fill: #666666" transform="translate(129.242209 318.026609)scale(0.165 -0.165)">
       <defs>
        <path id="DejaVuSans-31" d="M 794 531 
L 1825 531 
L 1825 4091 
L 703 3866 
L 703 4441 
L 1819 4666 
L 2450 4666 
L 2450 531 
L 3481 531 
L 3481 0 
L 794 0 
L 794 531 
z
" transform="scale(0.015625)"/>
        <path id="DejaVuSans-35" d="M 691 4666 
L 3169 4666 
L 3169 4134 
L 1269 4134 
L 1269 2991 
Q 1406 3038 1543 3061 
Q 1681 3084 1819 3084 
Q 2600 3084 3056 2656 
Q 3513 2228 3513 1497 
Q 3513 744 3044 326 
Q 2575 -91 1722 -91 
Q 1428 -91 1123 -41 
Q 819 9 494 109 
L 494 744 
Q 775 591 1075 516 
Q 1375 441 1709 441 
Q 2250 441 2565 725 
Q 2881 1009 2881 1497 
Q 2881 1984 2565 2268 
Q 2250 2553 1709 2553 
Q 1456 2553 1204 2497 
Q 953 2441 691 2322 
L 691 4666 
z
" transform="scale(0.015625)"/>
       </defs>
       <use xlink:href="#DejaVuSans-2212"/>
       <use xlink:href="#DejaVuSans-31" x="83.789062"/>
       <use xlink:href="#DejaVuSans-2e" x="147.412109"/>
       <use xlink:href="#DejaVuSans-35" x="179.199219"/>
      </g>
     </g>
    </g>
    <g id="xtick_3">
     <g id="line2d_3">
      <g>
       <use xlink:href="#me34ed322f0" x="217.723731" y="292.989187" style="fill: #666666; fill-opacity: 0.015686; stroke: #666666; stroke-opacity: 0.015686; stroke-width: 1.875"/>
      </g>
     </g>
     <g id="text_3">
      <!-- −1.0 -->
      <g style="fill: #666666" transform="translate(197.690411 318.026609)scale(0.165 -0.165)">
       <use xlink:href="#DejaVuSans-2212"/>
       <use xlink:href="#DejaVuSans-31" x="83.789062"/>
       <use xlink:href="#DejaVuSans-2e" x="147.412109"/>
       <use xlink:href="#DejaVuSans-30" x="179.199219"/>
      </g>
     </g>
    </g>
    <g id="xtick_4">
     <g id="line2d_4">
      <g>
       <use xlink:href="#me34ed322f0" x="286.171933" y="292.989187" style="fill: #666666; fill-opacity: 0.015686; stroke: #666666; stroke-opacity: 0.015686; stroke-width: 1.875"/>
      </g>
     </g>
     <g id="text_4">
      <!-- −0.5 -->
      <g style="fill: #666666" transform="translate(266.138613 318.026609)scale(0.165 -0.165)">
       <use xlink:href="#DejaVuSans-2212"/>
       <use xlink:href="#DejaVuSans-30" x="83.789062"/>
       <use xlink:href="#DejaVuSans-2e" x="147.412109"/>
       <use xlink:href="#DejaVuSans-35" x="179.199219"/>
      </g>
     </g>
    </g>
    <g id="xtick_5">
     <g id="line2d_5">
      <g>
       <use xlink:href="#me34ed322f0" x="354.620136" y="292.989187" style="fill: #666666; fill-opacity: 0.015686; stroke: #666666; stroke-opacity: 0.015686; stroke-width: 1.875"/>
      </g>
     </g>
     <g id="text_5">
      <!-- 0.0 -->
      <g style="fill: #666666" transform="translate(341.500057 318.026609)scale(0.165 -0.165)">
       <use xlink:href="#DejaVuSans-30"/>
       <use xlink:href="#DejaVuSans-2e" x="63.623047"/>
       <use xlink:href="#DejaVuSans-30" x="95.410156"/>
      </g>
     </g>
    </g>
   </g>
   <g id="matplotlib.axis_2">
    <g id="ytick_1">
     <g id="line2d_6">
      <defs>
       <path id="m48dc7f9fc5" d="M 0 0 
L -9 0 
" style="stroke: #666666; stroke-opacity: 0.015686; stroke-width: 1.875"/>
      </defs>
      <g>
       <use xlink:href="#m48dc7f9fc5" x="51.61875" y="292.989187" style="fill: #666666; fill-opacity: 0.015686; stroke: #666666; stroke-opacity: 0.015686; stroke-width: 1.875"/>
      </g>
     </g>
     <g id="text_6">
      <!-- 0 -->
      <g style="fill: #666666" transform="translate(28.620625 299.257898)scale(0.165 -0.165)">
       <use xlink:href="#DejaVuSans-30"/>
      </g>
     </g>
    </g>
    <g id="ytick_2">
     <g id="line2d_7">
      <g>
       <use xlink:href="#m48dc7f9fc5" x="51.61875" y="229.629187" style="fill: #666666; fill-opacity: 0.015686; stroke: #666666; stroke-opacity: 0.015686; stroke-width: 1.875"/>
      </g>
     </g>
     <g id="text_7">
      <!-- 1 -->
      <g style="fill: #666666" transform="translate(28.620625 235.897898)scale(0.165 -0.165)">
       <use xlink:href="#DejaVuSans-31"/>
      </g>
     </g>
    </g>
    <g id="ytick_3">
     <g id="line2d_8">
      <g>
       <use xlink:href="#m48dc7f9fc5" x="51.61875" y="166.269187" style="fill: #666666; fill-opacity: 0.015686; stroke: #666666; stroke-opacity: 0.015686; stroke-width: 1.875"/>
      </g>
     </g>
     <g id="text_8">
      <!-- 2 -->
      <g style="fill: #666666" transform="translate(28.620625 172.537898)scale(0.165 -0.165)">
       <use xlink:href="#DejaVuSans-32"/>
      </g>
     </g>
    </g>
    <g id="ytick_4">
     <g id="line2d_9">
      <g>
       <use xlink:href="#m48dc7f9fc5" x="51.61875" y="102.909187" style="fill: #666666; fill-opacity: 0.015686; stroke: #666666; stroke-opacity: 0.015686; stroke-width: 1.875"/>
      </g>
     </g>
     <g id="text_9">
      <!-- 3 -->
      <g style="fill: #666666" transform="translate(28.620625 109.177898)scale(0.165 -0.165)">
       <defs>
        <path id="DejaVuSans-33" d="M 2597 2516 
Q 3050 2419 3304 2112 
Q 3559 1806 3559 1356 
Q 3559 666 3084 287 
Q 2609 -91 1734 -91 
Q 1441 -91 1130 -33 
Q 819 25 488 141 
L 488 750 
Q 750 597 1062 519 
Q 1375 441 1716 441 
Q 2309 441 2620 675 
Q 2931 909 2931 1356 
Q 2931 1769 2642 2001 
Q 2353 2234 1838 2234 
L 1294 2234 
L 1294 2753 
L 1863 2753 
Q 2328 2753 2575 2939 
Q 2822 3125 2822 3475 
Q 2822 3834 2567 4026 
Q 2313 4219 1838 4219 
Q 1578 4219 1281 4162 
Q 984 4106 628 3988 
L 628 4550 
Q 988 4650 1302 4700 
Q 1616 4750 1894 4750 
Q 2613 4750 3031 4423 
Q 3450 4097 3450 3541 
Q 3450 3153 3228 2886 
Q 3006 2619 2597 2516 
z
" transform="scale(0.015625)"/>
       </defs>
       <use xlink:href="#DejaVuSans-33"/>
      </g>
     </g>
    </g>
    <g id="ytick_5">
     <g id="line2d_10">
      <g>
       <use xlink:href="#m48dc7f9fc5" x="51.61875" y="39.549187" style="fill: #666666; fill-opacity: 0.015686; stroke: #666666; stroke-opacity: 0.015686; stroke-width: 1.875"/>
      </g>
     </g>
     <g id="text_10">
      <!-- 4 -->
      <g style="fill: #666666" transform="translate(28.620625 45.817898)scale(0.165 -0.165)">
       <defs>
        <path id="DejaVuSans-34" d="M 2419 4116 
L 825 1625 
L 2419 1625 
L 2419 4116 
z
M 2253 4666 
L 3047 4666 
L 3047 1625 
L 3713 1625 
L 3713 1100 
L 3047 1100 
L 3047 0 
L 2419 0 
L 2419 1100 
L 313 1100 
L 313 1709 
L 2253 4666 
z
" transform="scale(0.015625)"/>
       </defs>
       <use xlink:href="#DejaVuSans-34"/>
      </g>
     </g>
    </g>
    <g id="text_11">
     <!-- Count -->
     <g style="fill: #666666" transform="translate(20.877187 186.660375)rotate(-90)scale(0.18 -0.18)">
      <defs>
       <path id="DejaVuSans-43" d="M 4122 4306 
L 4122 3641 
Q 3803 3938 3442 4084 
Q 3081 4231 2675 4231 
Q 1875 4231 1450 3742 
Q 1025 3253 1025 2328 
Q 1025 1406 1450 917 
Q 1875 428 2675 428 
Q 3081 428 3442 575 
Q 3803 722 4122 1019 
L 4122 359 
Q 3791 134 3420 21 
Q 3050 -91 2638 -91 
Q 1578 -91 968 557 
Q 359 1206 359 2328 
Q 359 3453 968 4101 
Q 1578 4750 2638 4750 
Q 3056 4750 3426 4639 
Q 3797 4528 4122 4306 
z
" transform="scale(0.015625)"/>
       <path id="DejaVuSans-6f" d="M 1959 3097 
Q 1497 3097 1228 2736 
Q 959 2375 959 1747 
Q 959 1119 1226 758 
Q 1494 397 1959 397 
Q 2419 397 2687 759 
Q 2956 1122 2956 1747 
Q 2956 2369 2687 2733 
Q 2419 3097 1959 3097 
z
M 1959 3584 
Q 2709 3584 3137 3096 
Q 3566 2609 3566 1747 
Q 3566 888 3137 398 
Q 2709 -91 1959 -91 
Q 1206 -91 779 398 
Q 353 888 353 1747 
Q 353 2609 779 3096 
Q 1206 3584 1959 3584 
z
" transform="scale(0.015625)"/>
       <path id="DejaVuSans-75" d="M 544 1381 
L 544 3500 
L 1119 3500 
L 1119 1403 
Q 1119 906 1312 657 
Q 1506 409 1894 409 
Q 2359 409 2629 706 
Q 2900 1003 2900 1516 
L 2900 3500 
L 3475 3500 
L 3475 0 
L 2900 0 
L 2900 538 
Q 2691 219 2414 64 
Q 2138 -91 1772 -91 
Q 1169 -91 856 284 
Q 544 659 544 1381 
z
M 1991 3584 
L 1991 3584 
z
" transform="scale(0.015625)"/>
       <path id="DejaVuSans-6e" d="M 3513 2113 
L 3513 0 
L 2938 0 
L 2938 2094 
Q 2938 2591 2744 2837 
Q 2550 3084 2163 3084 
Q 1697 3084 1428 2787 
Q 1159 2491 1159 1978 
L 1159 0 
L 581 0 
L 581 3500 
L 1159 3500 
L 1159 2956 
Q 1366 3272 1645 3428 
Q 1925 3584 2291 3584 
Q 2894 3584 3203 3211 
Q 3513 2838 3513 2113 
z
" transform="scale(0.015625)"/>
       <path id="DejaVuSans-74" d="M 1172 4494 
L 1172 3500 
L 2356 3500 
L 2356 3053 
L 1172 3053 
L 1172 1153 
Q 1172 725 1289 603 
Q 1406 481 1766 481 
L 2356 481 
L 2356 0 
L 1766 0 
Q 1100 0 847 248 
Q 594 497 594 1153 
L 594 3053 
L 172 3053 
L 172 3500 
L 594 3500 
L 594 4494 
L 1172 4494 
z
" transform="scale(0.015625)"/>
      </defs>
      <use xlink:href="#DejaVuSans-43"/>
      <use xlink:href="#DejaVuSans-6f" x="69.824219"/>
      <use xlink:href="#DejaVuSans-75" x="131.005859"/>
      <use xlink:href="#DejaVuSans-6e" x="194.384766"/>
      <use xlink:href="#DejaVuSans-74" x="257.763672"/>
     </g>
    </g>
   </g>
   <g id="patch_8">
    <path d="M 51.61875 292.989187 
L 51.61875 26.877187 
" style="fill: none"/>
   </g>
   <g id="patch_9">
    <path d="M 408.73875 292.989187 
L 408.73875 26.877187 
" style="fill: none"/>
   </g>
   <g id="patch_10">
    <path d="M 51.61875 292.989187 
L 408.73875 292.989187 
" style="fill: none"/>
   </g>
   <g id="patch_11">
    <path d="M 51.61875 26.877187 
L 408.73875 26.877187 
" style="fill: none"/>
   </g>
   <g id="text_12">
    <!-- $N = $10 -->
    <g style="fill: #666666" transform="translate(200.92875 20.877187)scale(0.18 -0.18)">
     <defs>
      <path id="DejaVuSans-Oblique-4e" d="M 1081 4666 
L 1931 4666 
L 3219 666 
L 4000 4666 
L 4616 4666 
L 3706 0 
L 2853 0 
L 1569 4025 
L 788 0 
L 172 0 
L 1081 4666 
z
" transform="scale(0.015625)"/>
      <path id="DejaVuSans-3d" d="M 678 2906 
L 4684 2906 
L 4684 2381 
L 678 2381 
L 678 2906 
z
M 678 1631 
L 4684 1631 
L 4684 1100 
L 678 1100 
L 678 1631 
z
" transform="scale(0.015625)"/>
     </defs>
     <use xlink:href="#DejaVuSans-Oblique-4e" transform="translate(0 0.78125)"/>
     <use xlink:href="#DejaVuSans-3d" transform="translate(94.287109 0.78125)"/>
     <use xlink:href="#DejaVuSans-31" transform="translate(197.558594 0.78125)"/>
     <use xlink:href="#DejaVuSans-30" transform="translate(261.181641 0.78125)"/>
    </g>
   </g>
  </g>
 </g>
 <defs>
  <clipPath id="pf6d983e87b">
   <rect x="51.61875" y="26.877187" width="357.12" height="266.112"/>
  </clipPath>
 </defs>
</svg>
