<?xml version="1.0" encoding="utf-8" standalone="no"?>
<!DOCTYPE svg PUBLIC "-//W3C//DTD SVG 1.1//EN"
  "http://www.w3.org/Graphics/SVG/1.1/DTD/svg11.dtd">
<svg xmlns:xlink="http://www.w3.org/1999/xlink" width="380.52pt" height="328.658094pt" viewBox="0 0 380.52 328.658094" xmlns="http://www.w3.org/2000/svg" version="1.1">
 <metadata>
  <rdf:RDF xmlns:dc="http://purl.org/dc/elements/1.1/" xmlns:cc="http://creativecommons.org/ns#" xmlns:rdf="http://www.w3.org/1999/02/22-rdf-syntax-ns#">
   <cc:Work>
    <dc:type rdf:resource="http://purl.org/dc/dcmitype/StillImage"/>
    <dc:date>2022-03-19T13:37:12.894783</dc:date>
    <dc:format>image/svg+xml</dc:format>
    <dc:creator>
     <cc:Agent>
      <dc:title>Matplotlib v3.5.1, https://matplotlib.org/</dc:title>
     </cc:Agent>
    </dc:creator>
   </cc:Work>
  </rdf:RDF>
 </metadata>
 <defs>
  <style type="text/css">*{stroke-linejoin: round; stroke-linecap: butt}</style>
 </defs>
 <g id="figure_1">
  <g id="patch_1">
   <path d="M 0 328.658094 
L 380.52 328.658094 
L 380.52 0 
L 0 0 
L 0 328.658094 
z
" style="fill: none"/>
  </g>
  <g id="axes_1">
   <g id="patch_2">
    <path d="M 16.2 292.989187 
L 373.32 292.989187 
L 373.32 26.877187 
L 16.2 26.877187 
L 16.2 292.989187 
z
" style="fill: none"/>
   </g>
   <g id="PolyCollection_1">
    <defs>
     <path id="m19c88a45d0" d="M 32.432727 -35.66997 
L 32.432727 -35.668906 
L 34.064157 -35.668906 
L 35.695587 -35.668906 
L 37.327017 -35.668906 
L 38.958447 -35.668906 
L 40.589877 -35.668906 
L 42.221307 -35.668906 
L 43.852736 -35.668906 
L 45.484166 -35.668906 
L 47.115596 -35.668906 
L 48.747026 -35.668906 
L 50.378456 -35.668906 
L 52.009886 -35.668906 
L 53.641316 -35.668906 
L 55.272746 -35.668906 
L 56.904175 -35.668906 
L 58.535605 -35.668906 
L 60.167035 -35.668906 
L 61.798465 -35.668906 
L 63.429895 -35.668906 
L 65.061325 -35.668906 
L 66.692755 -35.668906 
L 68.324185 -35.668906 
L 69.955614 -35.668906 
L 71.587044 -35.668906 
L 73.218474 -35.668906 
L 74.849904 -35.668906 
L 76.481334 -35.668906 
L 78.112764 -35.668906 
L 79.744194 -35.668906 
L 81.375624 -35.668906 
L 83.007053 -35.668906 
L 84.638483 -35.668906 
L 86.269913 -35.668906 
L 87.901343 -35.668906 
L 89.532773 -35.668906 
L 91.164203 -35.668906 
L 92.795633 -35.668906 
L 94.427063 -35.668906 
L 96.058492 -35.668906 
L 97.689922 -35.668906 
L 99.321352 -35.668906 
L 100.952782 -35.668906 
L 102.584212 -35.668906 
L 104.215642 -35.668906 
L 105.847072 -35.668906 
L 107.478502 -35.668906 
L 109.109931 -35.668906 
L 110.741361 -35.668906 
L 112.372791 -35.668906 
L 114.004221 -35.668906 
L 115.635651 -35.668906 
L 117.267081 -35.668906 
L 118.898511 -35.668906 
L 120.529941 -35.668906 
L 122.16137 -35.668906 
L 123.7928 -35.668906 
L 125.42423 -35.668906 
L 127.05566 -35.668906 
L 128.68709 -35.668906 
L 130.31852 -35.668906 
L 131.94995 -35.668906 
L 133.58138 -35.668906 
L 135.21281 -35.668906 
L 136.844239 -35.668906 
L 138.475669 -35.668906 
L 140.107099 -35.668906 
L 141.738529 -35.668906 
L 143.369959 -35.668906 
L 145.001389 -35.668906 
L 146.632819 -35.668906 
L 148.264249 -35.668906 
L 149.895678 -35.668906 
L 151.527108 -35.668906 
L 153.158538 -35.668906 
L 154.789968 -35.668906 
L 156.421398 -35.668906 
L 158.052828 -35.668906 
L 159.684258 -35.668906 
L 161.315688 -35.668906 
L 162.947117 -35.668906 
L 164.578547 -35.668906 
L 166.209977 -35.668906 
L 167.841407 -35.668906 
L 169.472837 -35.668906 
L 171.104267 -35.668906 
L 172.735697 -35.668906 
L 174.367127 -35.668906 
L 175.998556 -35.668906 
L 177.629986 -35.668906 
L 179.261416 -35.668906 
L 180.892846 -35.668906 
L 182.524276 -35.668906 
L 184.155706 -35.668906 
L 185.787136 -35.668906 
L 187.418566 -35.668906 
L 189.049995 -35.668906 
L 190.681425 -35.668906 
L 192.312855 -35.668906 
L 193.944285 -35.668906 
L 195.575715 -35.668906 
L 197.207145 -35.668906 
L 198.838575 -35.668906 
L 200.470005 -35.668906 
L 202.101434 -35.668906 
L 203.732864 -35.668906 
L 205.364294 -35.668906 
L 206.995724 -35.668906 
L 208.627154 -35.668906 
L 210.258584 -35.668906 
L 211.890014 -35.668906 
L 213.521444 -35.668906 
L 215.152873 -35.668906 
L 216.784303 -35.668906 
L 218.415733 -35.668906 
L 220.047163 -35.668906 
L 221.678593 -35.668906 
L 223.310023 -35.668906 
L 224.941453 -35.668906 
L 226.572883 -35.668906 
L 228.204312 -35.668906 
L 229.835742 -35.668906 
L 231.467172 -35.668906 
L 233.098602 -35.668906 
L 234.730032 -35.668906 
L 236.361462 -35.668906 
L 237.992892 -35.668906 
L 239.624322 -35.668906 
L 241.255751 -35.668906 
L 242.887181 -35.668906 
L 244.518611 -35.668906 
L 246.150041 -35.668906 
L 247.781471 -35.668906 
L 249.412901 -35.668906 
L 251.044331 -35.668906 
L 252.675761 -35.668906 
L 254.30719 -35.668906 
L 255.93862 -35.668906 
L 257.57005 -35.668906 
L 259.20148 -35.668906 
L 260.83291 -35.668906 
L 262.46434 -35.668906 
L 264.09577 -35.668906 
L 265.7272 -35.668906 
L 267.35863 -35.668906 
L 268.990059 -35.668906 
L 270.621489 -35.668906 
L 272.252919 -35.668906 
L 273.884349 -35.668906 
L 275.515779 -35.668906 
L 277.147209 -35.668906 
L 278.778639 -35.668906 
L 280.410069 -35.668906 
L 282.041498 -35.668906 
L 283.672928 -35.668906 
L 285.304358 -35.668906 
L 286.935788 -35.668906 
L 288.567218 -35.668906 
L 290.198648 -35.668906 
L 291.830078 -35.668906 
L 293.461508 -35.668906 
L 295.092937 -35.668906 
L 296.724367 -35.668906 
L 298.355797 -35.668906 
L 299.987227 -35.668906 
L 301.618657 -35.668906 
L 303.250087 -35.668906 
L 304.881517 -35.668906 
L 306.512947 -35.668906 
L 308.144376 -35.668906 
L 309.775806 -35.668906 
L 311.407236 -35.668906 
L 313.038666 -35.668906 
L 314.670096 -35.668906 
L 316.301526 -35.668906 
L 317.932956 -35.668906 
L 319.564386 -35.668906 
L 321.195815 -35.668906 
L 322.827245 -35.668906 
L 324.458675 -35.668906 
L 326.090105 -35.668906 
L 327.721535 -35.668906 
L 329.352965 -35.668906 
L 330.984395 -35.668906 
L 332.615825 -35.668906 
L 334.247254 -35.668906 
L 335.878684 -35.668906 
L 337.510114 -35.668906 
L 339.141544 -35.668906 
L 340.772974 -35.668906 
L 342.404404 -35.668906 
L 344.035834 -35.668906 
L 345.667264 -35.668906 
L 347.298693 -35.668906 
L 348.930123 -35.668906 
L 350.561553 -35.668906 
L 352.192983 -35.668906 
L 353.824413 -35.668906 
L 355.455843 -35.668906 
L 357.087273 -35.668906 
L 357.087273 -35.669187 
L 357.087273 -35.669187 
L 355.455843 -35.669845 
L 353.824413 -35.671527 
L 352.192983 -35.675049 
L 350.561553 -35.681117 
L 348.930123 -35.689889 
L 347.298693 -35.700993 
L 345.667264 -35.714135 
L 344.035834 -35.729305 
L 342.404404 -35.745915 
L 340.772974 -35.762495 
L 339.141544 -35.77885 
L 337.510114 -35.798489 
L 335.878684 -35.826398 
L 334.247254 -35.862748 
L 332.615825 -35.900746 
L 330.984395 -35.933534 
L 329.352965 -35.962588 
L 327.721535 -35.996269 
L 326.090105 -36.039911 
L 324.458675 -36.091161 
L 322.827245 -36.148308 
L 321.195815 -36.222874 
L 319.564386 -36.342035 
L 317.932956 -36.535465 
L 316.301526 -36.812395 
L 314.670096 -37.14262 
L 313.038666 -37.459112 
L 311.407236 -37.691413 
L 309.775806 -37.814256 
L 308.144376 -37.875501 
L 306.512947 -37.977941 
L 304.881517 -38.225479 
L 303.250087 -38.668801 
L 301.618657 -39.279204 
L 299.987227 -39.961073 
L 298.355797 -40.600225 
L 296.724367 -41.12612 
L 295.092937 -41.547974 
L 293.461508 -41.943472 
L 291.830078 -42.423024 
L 290.198648 -43.10055 
L 288.567218 -44.067918 
L 286.935788 -45.363043 
L 285.304358 -46.956996 
L 283.672928 -48.788664 
L 282.041498 -50.819292 
L 280.410069 -53.045621 
L 278.778639 -55.457043 
L 277.147209 -57.989053 
L 275.515779 -60.52788 
L 273.884349 -62.962999 
L 272.252919 -65.243047 
L 270.621489 -67.410544 
L 268.990059 -69.616082 
L 267.35863 -72.089107 
L 265.7272 -75.038554 
L 264.09577 -78.537125 
L 262.46434 -82.50249 
L 260.83291 -86.800537 
L 259.20148 -91.350716 
L 257.57005 -96.114493 
L 255.93862 -101.006259 
L 254.30719 -105.875686 
L 252.675761 -110.631092 
L 251.044331 -115.394035 
L 249.412901 -120.490828 
L 247.781471 -126.21483 
L 246.150041 -132.547137 
L 244.518611 -139.117023 
L 242.887181 -145.454682 
L 241.255751 -151.294288 
L 239.624322 -156.685417 
L 237.992892 -161.90389 
L 236.361462 -167.285103 
L 234.730032 -173.060463 
L 233.098602 -179.247698 
L 231.467172 -185.67439 
L 229.835742 -192.153666 
L 228.204312 -198.660464 
L 226.572883 -205.301041 
L 224.941453 -212.080378 
L 223.310023 -218.731593 
L 221.678593 -224.837015 
L 220.047163 -230.165221 
L 218.415733 -234.91526 
L 216.784303 -239.621475 
L 215.152873 -244.760515 
L 213.521444 -250.377749 
L 211.890014 -256.062722 
L 210.258584 -261.298295 
L 208.627154 -265.857069 
L 206.995724 -269.891588 
L 205.364294 -273.699643 
L 203.732864 -277.454036 
L 202.101434 -281.119234 
L 200.470005 -284.493665 
L 198.838575 -287.235136 
L 197.207145 -288.899003 
L 195.575715 -289.108906 
L 193.944285 -287.828002 
L 192.312855 -285.515288 
L 190.681425 -282.981558 
L 189.049995 -280.997156 
L 187.418566 -279.914584 
L 185.787136 -279.542996 
L 184.155706 -279.304058 
L 182.524276 -278.52691 
L 180.892846 -276.699863 
L 179.261416 -273.561835 
L 177.629986 -269.062792 
L 175.998556 -263.336008 
L 174.367127 -256.738045 
L 172.735697 -249.825807 
L 171.104267 -243.161488 
L 169.472837 -237.061321 
L 167.841407 -231.490896 
L 166.209977 -226.150306 
L 164.578547 -220.652687 
L 162.947117 -214.725331 
L 161.315688 -208.378716 
L 159.684258 -201.916135 
L 158.052828 -195.703342 
L 156.421398 -189.854323 
L 154.789968 -184.124815 
L 153.158538 -178.122298 
L 151.527108 -171.637029 
L 149.895678 -164.802334 
L 148.264249 -157.969054 
L 146.632819 -151.428134 
L 145.001389 -145.223616 
L 143.369959 -139.202282 
L 141.738529 -133.226675 
L 140.107099 -127.321872 
L 138.475669 -121.612975 
L 136.844239 -116.16746 
L 135.21281 -110.957783 
L 133.58138 -105.967125 
L 131.94995 -101.263361 
L 130.31852 -96.940274 
L 128.68709 -93.018193 
L 127.05566 -89.4189 
L 125.42423 -86.008661 
L 123.7928 -82.651074 
L 122.16137 -79.255729 
L 120.529941 -75.827536 
L 118.898511 -72.489324 
L 117.267081 -69.43841 
L 115.635651 -66.837882 
L 114.004221 -64.70477 
L 112.372791 -62.881953 
L 110.741361 -61.126496 
L 109.109931 -59.25392 
L 107.478502 -57.239287 
L 105.847072 -55.217882 
L 104.215642 -53.393832 
L 102.584212 -51.911395 
L 100.952782 -50.764661 
L 99.321352 -49.803417 
L 97.689922 -48.82813 
L 96.058492 -47.701213 
L 94.427063 -46.401154 
L 92.795633 -45.006036 
L 91.164203 -43.640074 
L 89.532773 -42.417244 
L 87.901343 -41.403479 
L 86.269913 -40.609385 
L 84.638483 -40.005373 
L 83.007053 -39.53743 
L 81.375624 -39.138141 
L 79.744194 -38.745709 
L 78.112764 -38.330742 
L 76.481334 -37.909808 
L 74.849904 -37.530887 
L 73.218474 -37.239959 
L 71.587044 -37.051881 
L 69.955614 -36.943034 
L 68.324185 -36.866872 
L 66.692755 -36.779364 
L 65.061325 -36.658021 
L 63.429895 -36.505876 
L 61.798465 -36.342764 
L 60.167035 -36.19212 
L 58.535605 -36.070715 
L 56.904175 -35.984644 
L 55.272746 -35.931058 
L 53.641316 -35.90276 
L 52.009886 -35.892297 
L 50.378456 -35.893219 
L 48.747026 -35.898545 
L 47.115596 -35.899314 
L 45.484166 -35.886448 
L 43.852736 -35.855666 
L 42.221307 -35.811026 
L 40.589877 -35.763058 
L 38.958447 -35.722518 
L 37.327017 -35.694902 
L 35.695587 -35.679567 
L 34.064157 -35.672584 
L 32.432727 -35.66997 
z
" style="stroke: #63ff5b; stroke-width: 1.5"/>
    </defs>
    <g clip-path="url(#pff50067649)">
     <use xlink:href="#m19c88a45d0" x="0" y="328.658094" style="fill: #63ff5b; fill-opacity: 0.25; stroke: #63ff5b; stroke-width: 1.5"/>
    </g>
   </g>
   <g id="matplotlib.axis_1">
    <g id="xtick_1">
     <g id="line2d_1">
      <defs>
       <path id="m9ca68b1403" d="M 0 0 
L 0 9 
" style="stroke: #666666; stroke-opacity: 0.015686; stroke-width: 1.875"/>
      </defs>
      <g>
       <use xlink:href="#m9ca68b1403" x="32.777064" y="292.989187" style="fill: #666666; fill-opacity: 0.015686; stroke: #666666; stroke-opacity: 0.015686; stroke-width: 1.875"/>
      </g>
     </g>
     <g id="text_1">
      <!-- −3 -->
      <g style="fill: #666666" transform="translate(20.614759 318.026609)scale(0.165 -0.165)">
       <defs>
        <path id="DejaVuSans-2212" d="M 678 2272 
L 4684 2272 
L 4684 1741 
L 678 1741 
L 678 2272 
z
" transform="scale(0.015625)"/>
        <path id="DejaVuSans-33" d="M 2597 2516 
Q 3050 2419 3304 2112 
Q 3559 1806 3559 1356 
Q 3559 666 3084 287 
Q 2609 -91 1734 -91 
Q 1441 -91 1130 -33 
Q 819 25 488 141 
L 488 750 
Q 750 597 1062 519 
Q 1375 441 1716 441 
Q 2309 441 2620 675 
Q 2931 909 2931 1356 
Q 2931 1769 2642 2001 
Q 2353 2234 1838 2234 
L 1294 2234 
L 1294 2753 
L 1863 2753 
Q 2328 2753 2575 2939 
Q 2822 3125 2822 3475 
Q 2822 3834 2567 4026 
Q 2313 4219 1838 4219 
Q 1578 4219 1281 4162 
Q 984 4106 628 3988 
L 628 4550 
Q 988 4650 1302 4700 
Q 1616 4750 1894 4750 
Q 2613 4750 3031 4423 
Q 3450 4097 3450 3541 
Q 3450 3153 3228 2886 
Q 3006 2619 2597 2516 
z
" transform="scale(0.015625)"/>
       </defs>
       <use xlink:href="#DejaVuSans-2212"/>
       <use xlink:href="#DejaVuSans-33" x="83.789062"/>
      </g>
     </g>
    </g>
    <g id="xtick_2">
     <g id="line2d_2">
      <g>
       <use xlink:href="#m9ca68b1403" x="86.169798" y="292.989187" style="fill: #666666; fill-opacity: 0.015686; stroke: #666666; stroke-opacity: 0.015686; stroke-width: 1.875"/>
      </g>
     </g>
     <g id="text_2">
      <!-- −2 -->
      <g style="fill: #666666" transform="translate(74.007493 318.026609)scale(0.165 -0.165)">
       <defs>
        <path id="DejaVuSans-32" d="M 1228 531 
L 3431 531 
L 3431 0 
L 469 0 
L 469 531 
Q 828 903 1448 1529 
Q 2069 2156 2228 2338 
Q 2531 2678 2651 2914 
Q 2772 3150 2772 3378 
Q 2772 3750 2511 3984 
Q 2250 4219 1831 4219 
Q 1534 4219 1204 4116 
Q 875 4013 500 3803 
L 500 4441 
Q 881 4594 1212 4672 
Q 1544 4750 1819 4750 
Q 2544 4750 2975 4387 
Q 3406 4025 3406 3419 
Q 3406 3131 3298 2873 
Q 3191 2616 2906 2266 
Q 2828 2175 2409 1742 
Q 1991 1309 1228 531 
z
" transform="scale(0.015625)"/>
       </defs>
       <use xlink:href="#DejaVuSans-2212"/>
       <use xlink:href="#DejaVuSans-32" x="83.789062"/>
      </g>
     </g>
    </g>
    <g id="xtick_3">
     <g id="line2d_3">
      <g>
       <use xlink:href="#m9ca68b1403" x="139.562531" y="292.989187" style="fill: #666666; fill-opacity: 0.015686; stroke: #666666; stroke-opacity: 0.015686; stroke-width: 1.875"/>
      </g>
     </g>
     <g id="text_3">
      <!-- −1 -->
      <g style="fill: #666666" transform="translate(127.400227 318.026609)scale(0.165 -0.165)">
       <defs>
        <path id="DejaVuSans-31" d="M 794 531 
L 1825 531 
L 1825 4091 
L 703 3866 
L 703 4441 
L 1819 4666 
L 2450 4666 
L 2450 531 
L 3481 531 
L 3481 0 
L 794 0 
L 794 531 
z
" transform="scale(0.015625)"/>
       </defs>
       <use xlink:href="#DejaVuSans-2212"/>
       <use xlink:href="#DejaVuSans-31" x="83.789062"/>
      </g>
     </g>
    </g>
    <g id="xtick_4">
     <g id="line2d_4">
      <g>
       <use xlink:href="#m9ca68b1403" x="192.955265" y="292.989187" style="fill: #666666; fill-opacity: 0.015686; stroke: #666666; stroke-opacity: 0.015686; stroke-width: 1.875"/>
      </g>
     </g>
     <g id="text_4">
      <!-- 0 -->
      <g style="fill: #666666" transform="translate(187.706203 318.026609)scale(0.165 -0.165)">
       <defs>
        <path id="DejaVuSans-30" d="M 2034 4250 
Q 1547 4250 1301 3770 
Q 1056 3291 1056 2328 
Q 1056 1369 1301 889 
Q 1547 409 2034 409 
Q 2525 409 2770 889 
Q 3016 1369 3016 2328 
Q 3016 3291 2770 3770 
Q 2525 4250 2034 4250 
z
M 2034 4750 
Q 2819 4750 3233 4129 
Q 3647 3509 3647 2328 
Q 3647 1150 3233 529 
Q 2819 -91 2034 -91 
Q 1250 -91 836 529 
Q 422 1150 422 2328 
Q 422 3509 836 4129 
Q 1250 4750 2034 4750 
z
" transform="scale(0.015625)"/>
       </defs>
       <use xlink:href="#DejaVuSans-30"/>
      </g>
     </g>
    </g>
    <g id="xtick_5">
     <g id="line2d_5">
      <g>
       <use xlink:href="#m9ca68b1403" x="246.347999" y="292.989187" style="fill: #666666; fill-opacity: 0.015686; stroke: #666666; stroke-opacity: 0.015686; stroke-width: 1.875"/>
      </g>
     </g>
     <g id="text_5">
      <!-- 1 -->
      <g style="fill: #666666" transform="translate(241.098937 318.026609)scale(0.165 -0.165)">
       <use xlink:href="#DejaVuSans-31"/>
      </g>
     </g>
    </g>
    <g id="xtick_6">
     <g id="line2d_6">
      <g>
       <use xlink:href="#m9ca68b1403" x="299.740733" y="292.989187" style="fill: #666666; fill-opacity: 0.015686; stroke: #666666; stroke-opacity: 0.015686; stroke-width: 1.875"/>
      </g>
     </g>
     <g id="text_6">
      <!-- 2 -->
      <g style="fill: #666666" transform="translate(294.491671 318.026609)scale(0.165 -0.165)">
       <use xlink:href="#DejaVuSans-32"/>
      </g>
     </g>
    </g>
    <g id="xtick_7">
     <g id="line2d_7">
      <g>
       <use xlink:href="#m9ca68b1403" x="353.133467" y="292.989187" style="fill: #666666; fill-opacity: 0.015686; stroke: #666666; stroke-opacity: 0.015686; stroke-width: 1.875"/>
      </g>
     </g>
     <g id="text_7">
      <!-- 3 -->
      <g style="fill: #666666" transform="translate(347.884405 318.026609)scale(0.165 -0.165)">
       <use xlink:href="#DejaVuSans-33"/>
      </g>
     </g>
    </g>
   </g>
   <g id="matplotlib.axis_2"/>
   <g id="patch_3">
    <path d="M 16.2 292.989187 
L 16.2 26.877187 
" style="fill: none"/>
   </g>
   <g id="patch_4">
    <path d="M 373.32 292.989187 
L 373.32 26.877187 
" style="fill: none"/>
   </g>
   <g id="patch_5">
    <path d="M 16.2 292.989187 
L 373.32 292.989187 
" style="fill: none"/>
   </g>
   <g id="patch_6">
    <path d="M 16.2 26.877187 
L 373.32 26.877187 
" style="fill: none"/>
   </g>
   <g id="text_8">
    <!-- $N = $100000 -->
    <g style="fill: #666666" transform="translate(142.56 20.877187)scale(0.18 -0.18)">
     <defs>
      <path id="DejaVuSans-Oblique-4e" d="M 1081 4666 
L 1931 4666 
L 3219 666 
L 4000 4666 
L 4616 4666 
L 3706 0 
L 2853 0 
L 1569 4025 
L 788 0 
L 172 0 
L 1081 4666 
z
" transform="scale(0.015625)"/>
      <path id="DejaVuSans-3d" d="M 678 2906 
L 4684 2906 
L 4684 2381 
L 678 2381 
L 678 2906 
z
M 678 1631 
L 4684 1631 
L 4684 1100 
L 678 1100 
L 678 1631 
z
" transform="scale(0.015625)"/>
     </defs>
     <use xlink:href="#DejaVuSans-Oblique-4e" transform="translate(0 0.78125)"/>
     <use xlink:href="#DejaVuSans-3d" transform="translate(94.287109 0.78125)"/>
     <use xlink:href="#DejaVuSans-31" transform="translate(197.558594 0.78125)"/>
     <use xlink:href="#DejaVuSans-30" transform="translate(261.181641 0.78125)"/>
     <use xlink:href="#DejaVuSans-30" transform="translate(324.804688 0.78125)"/>
     <use xlink:href="#DejaVuSans-30" transform="translate(388.427734 0.78125)"/>
     <use xlink:href="#DejaVuSans-30" transform="translate(452.050781 0.78125)"/>
     <use xlink:href="#DejaVuSans-30" transform="translate(515.673828 0.78125)"/>
    </g>
   </g>
  </g>
 </g>
 <defs>
  <clipPath id="pff50067649">
   <rect x="16.2" y="26.877187" width="357.12" height="266.112"/>
  </clipPath>
 </defs>
</svg>
