<?xml version="1.0" encoding="utf-8" standalone="no"?>
<!DOCTYPE svg PUBLIC "-//W3C//DTD SVG 1.1//EN"
  "http://www.w3.org/Graphics/SVG/1.1/DTD/svg11.dtd">
<svg xmlns:xlink="http://www.w3.org/1999/xlink" width="383.797242pt" height="328.658094pt" viewBox="0 0 383.797242 328.658094" xmlns="http://www.w3.org/2000/svg" version="1.1">
 <metadata>
  <rdf:RDF xmlns:dc="http://purl.org/dc/elements/1.1/" xmlns:cc="http://creativecommons.org/ns#" xmlns:rdf="http://www.w3.org/1999/02/22-rdf-syntax-ns#">
   <cc:Work>
    <dc:type rdf:resource="http://purl.org/dc/dcmitype/StillImage"/>
    <dc:date>2022-03-19T13:37:07.878540</dc:date>
    <dc:format>image/svg+xml</dc:format>
    <dc:creator>
     <cc:Agent>
      <dc:title>Matplotlib v3.5.1, https://matplotlib.org/</dc:title>
     </cc:Agent>
    </dc:creator>
   </cc:Work>
  </rdf:RDF>
 </metadata>
 <defs>
  <style type="text/css">*{stroke-linejoin: round; stroke-linecap: butt}</style>
 </defs>
 <g id="figure_1">
  <g id="patch_1">
   <path d="M 0 328.658094 
L 383.797242 328.658094 
L 383.797242 0 
L 0 0 
L 0 328.658094 
z
" style="fill: none"/>
  </g>
  <g id="axes_1">
   <g id="patch_2">
    <path d="M 16.2 292.989187 
L 373.32 292.989187 
L 373.32 26.877187 
L 16.2 26.877187 
L 16.2 292.989187 
z
" style="fill: none"/>
   </g>
   <g id="PolyCollection_1">
    <defs>
     <path id="mfd2e4c3cd1" d="M 32.432727 -35.682759 
L 32.432727 -35.668906 
L 34.064157 -35.668906 
L 35.695587 -35.668906 
L 37.327017 -35.668906 
L 38.958447 -35.668906 
L 40.589877 -35.668906 
L 42.221307 -35.668906 
L 43.852736 -35.668906 
L 45.484166 -35.668906 
L 47.115596 -35.668906 
L 48.747026 -35.668906 
L 50.378456 -35.668906 
L 52.009886 -35.668906 
L 53.641316 -35.668906 
L 55.272746 -35.668906 
L 56.904175 -35.668906 
L 58.535605 -35.668906 
L 60.167035 -35.668906 
L 61.798465 -35.668906 
L 63.429895 -35.668906 
L 65.061325 -35.668906 
L 66.692755 -35.668906 
L 68.324185 -35.668906 
L 69.955614 -35.668906 
L 71.587044 -35.668906 
L 73.218474 -35.668906 
L 74.849904 -35.668906 
L 76.481334 -35.668906 
L 78.112764 -35.668906 
L 79.744194 -35.668906 
L 81.375624 -35.668906 
L 83.007053 -35.668906 
L 84.638483 -35.668906 
L 86.269913 -35.668906 
L 87.901343 -35.668906 
L 89.532773 -35.668906 
L 91.164203 -35.668906 
L 92.795633 -35.668906 
L 94.427063 -35.668906 
L 96.058492 -35.668906 
L 97.689922 -35.668906 
L 99.321352 -35.668906 
L 100.952782 -35.668906 
L 102.584212 -35.668906 
L 104.215642 -35.668906 
L 105.847072 -35.668906 
L 107.478502 -35.668906 
L 109.109931 -35.668906 
L 110.741361 -35.668906 
L 112.372791 -35.668906 
L 114.004221 -35.668906 
L 115.635651 -35.668906 
L 117.267081 -35.668906 
L 118.898511 -35.668906 
L 120.529941 -35.668906 
L 122.16137 -35.668906 
L 123.7928 -35.668906 
L 125.42423 -35.668906 
L 127.05566 -35.668906 
L 128.68709 -35.668906 
L 130.31852 -35.668906 
L 131.94995 -35.668906 
L 133.58138 -35.668906 
L 135.21281 -35.668906 
L 136.844239 -35.668906 
L 138.475669 -35.668906 
L 140.107099 -35.668906 
L 141.738529 -35.668906 
L 143.369959 -35.668906 
L 145.001389 -35.668906 
L 146.632819 -35.668906 
L 148.264249 -35.668906 
L 149.895678 -35.668906 
L 151.527108 -35.668906 
L 153.158538 -35.668906 
L 154.789968 -35.668906 
L 156.421398 -35.668906 
L 158.052828 -35.668906 
L 159.684258 -35.668906 
L 161.315688 -35.668906 
L 162.947117 -35.668906 
L 164.578547 -35.668906 
L 166.209977 -35.668906 
L 167.841407 -35.668906 
L 169.472837 -35.668906 
L 171.104267 -35.668906 
L 172.735697 -35.668906 
L 174.367127 -35.668906 
L 175.998556 -35.668906 
L 177.629986 -35.668906 
L 179.261416 -35.668906 
L 180.892846 -35.668906 
L 182.524276 -35.668906 
L 184.155706 -35.668906 
L 185.787136 -35.668906 
L 187.418566 -35.668906 
L 189.049995 -35.668906 
L 190.681425 -35.668906 
L 192.312855 -35.668906 
L 193.944285 -35.668906 
L 195.575715 -35.668906 
L 197.207145 -35.668906 
L 198.838575 -35.668906 
L 200.470005 -35.668906 
L 202.101434 -35.668906 
L 203.732864 -35.668906 
L 205.364294 -35.668906 
L 206.995724 -35.668906 
L 208.627154 -35.668906 
L 210.258584 -35.668906 
L 211.890014 -35.668906 
L 213.521444 -35.668906 
L 215.152873 -35.668906 
L 216.784303 -35.668906 
L 218.415733 -35.668906 
L 220.047163 -35.668906 
L 221.678593 -35.668906 
L 223.310023 -35.668906 
L 224.941453 -35.668906 
L 226.572883 -35.668906 
L 228.204312 -35.668906 
L 229.835742 -35.668906 
L 231.467172 -35.668906 
L 233.098602 -35.668906 
L 234.730032 -35.668906 
L 236.361462 -35.668906 
L 237.992892 -35.668906 
L 239.624322 -35.668906 
L 241.255751 -35.668906 
L 242.887181 -35.668906 
L 244.518611 -35.668906 
L 246.150041 -35.668906 
L 247.781471 -35.668906 
L 249.412901 -35.668906 
L 251.044331 -35.668906 
L 252.675761 -35.668906 
L 254.30719 -35.668906 
L 255.93862 -35.668906 
L 257.57005 -35.668906 
L 259.20148 -35.668906 
L 260.83291 -35.668906 
L 262.46434 -35.668906 
L 264.09577 -35.668906 
L 265.7272 -35.668906 
L 267.35863 -35.668906 
L 268.990059 -35.668906 
L 270.621489 -35.668906 
L 272.252919 -35.668906 
L 273.884349 -35.668906 
L 275.515779 -35.668906 
L 277.147209 -35.668906 
L 278.778639 -35.668906 
L 280.410069 -35.668906 
L 282.041498 -35.668906 
L 283.672928 -35.668906 
L 285.304358 -35.668906 
L 286.935788 -35.668906 
L 288.567218 -35.668906 
L 290.198648 -35.668906 
L 291.830078 -35.668906 
L 293.461508 -35.668906 
L 295.092937 -35.668906 
L 296.724367 -35.668906 
L 298.355797 -35.668906 
L 299.987227 -35.668906 
L 301.618657 -35.668906 
L 303.250087 -35.668906 
L 304.881517 -35.668906 
L 306.512947 -35.668906 
L 308.144376 -35.668906 
L 309.775806 -35.668906 
L 311.407236 -35.668906 
L 313.038666 -35.668906 
L 314.670096 -35.668906 
L 316.301526 -35.668906 
L 317.932956 -35.668906 
L 319.564386 -35.668906 
L 321.195815 -35.668906 
L 322.827245 -35.668906 
L 324.458675 -35.668906 
L 326.090105 -35.668906 
L 327.721535 -35.668906 
L 329.352965 -35.668906 
L 330.984395 -35.668906 
L 332.615825 -35.668906 
L 334.247254 -35.668906 
L 335.878684 -35.668906 
L 337.510114 -35.668906 
L 339.141544 -35.668906 
L 340.772974 -35.668906 
L 342.404404 -35.668906 
L 344.035834 -35.668906 
L 345.667264 -35.668906 
L 347.298693 -35.668906 
L 348.930123 -35.668906 
L 350.561553 -35.668906 
L 352.192983 -35.668906 
L 353.824413 -35.668906 
L 355.455843 -35.668906 
L 357.087273 -35.668906 
L 357.087273 -35.680171 
L 357.087273 -35.680171 
L 355.455843 -35.686553 
L 353.824413 -35.695907 
L 352.192983 -35.709259 
L 350.561553 -35.727812 
L 348.930123 -35.752897 
L 347.298693 -35.785886 
L 345.667264 -35.828058 
L 344.035834 -35.880434 
L 342.404404 -35.943577 
L 340.772974 -36.017408 
L 339.141544 -36.101048 
L 337.510114 -36.192742 
L 335.878684 -36.289893 
L 334.247254 -36.389239 
L 332.615825 -36.487179 
L 330.984395 -36.580245 
L 329.352965 -36.665654 
L 327.721535 -36.741897 
L 326.090105 -36.809269 
L 324.458675 -36.870256 
L 322.827245 -36.929704 
L 321.195815 -36.994707 
L 319.564386 -37.074223 
L 317.932956 -37.178421 
L 316.301526 -37.317842 
L 314.670096 -37.502471 
L 313.038666 -37.740837 
L 311.407236 -38.039246 
L 309.775806 -38.401265 
L 308.144376 -38.827492 
L 306.512947 -39.315627 
L 304.881517 -39.860814 
L 303.250087 -40.456161 
L 301.618657 -41.093338 
L 299.987227 -41.763153 
L 298.355797 -42.456015 
L 296.724367 -43.162289 
L 295.092937 -43.872533 
L 293.461508 -44.577748 
L 291.830078 -45.269724 
L 290.198648 -45.941624 
L 288.567218 -46.588864 
L 286.935788 -47.210305 
L 285.304358 -47.809646 
L 283.672928 -48.396862 
L 282.041498 -48.989426 
L 280.410069 -49.613065 
L 278.778639 -50.301829 
L 277.147209 -51.097318 
L 275.515779 -52.047041 
L 273.884349 -53.201987 
L 272.252919 -54.6136 
L 270.621489 -56.330437 
L 268.990059 -58.394813 
L 267.35863 -60.839755 
L 265.7272 -63.686534 
L 264.09577 -66.943002 
L 262.46434 -70.602884 
L 260.83291 -74.646085 
L 259.20148 -79.039992 
L 257.57005 -83.741671 
L 255.93862 -88.700782 
L 254.30719 -93.862942 
L 252.675761 -99.173255 
L 251.044331 -104.579676 
L 249.412901 -110.035928 
L 247.781471 -115.503729 
L 246.150041 -120.954212 
L 244.518611 -126.368531 
L 242.887181 -131.737774 
L 241.255751 -137.062408 
L 239.624322 -142.351492 
L 237.992892 -147.621885 
L 236.361462 -152.897571 
L 234.730032 -158.209053 
L 233.098602 -163.592647 
L 231.467172 -169.089357 
L 229.835742 -174.743 
L 228.204312 -180.597341 
L 226.572883 -186.692143 
L 224.941453 -193.058354 
L 223.310023 -199.712875 
L 221.678593 -206.653607 
L 220.047163 -213.855524 
L 218.415733 -221.268501 
L 216.784303 -228.817348 
L 215.152873 -236.40421 
L 213.521444 -243.91313 
L 211.890014 -251.21622 
L 210.258584 -258.180751 
L 208.627154 -264.676359 
L 206.995724 -270.581712 
L 205.364294 -275.790141 
L 203.732864 -280.21398 
L 202.101434 -283.787546 
L 200.470005 -286.468889 
L 198.838575 -288.240457 
L 197.207145 -289.108906 
L 195.575715 -289.104259 
L 193.944285 -288.278592 
L 192.312855 -286.704422 
L 190.681425 -284.472895 
L 189.049995 -281.691825 
L 187.418566 -278.483507 
L 185.787136 -274.98212 
L 184.155706 -271.330462 
L 182.524276 -267.675728 
L 180.892846 -264.164156 
L 179.261416 -260.934541 
L 177.629986 -258.110913 
L 175.998556 -255.794907 
L 174.367127 -254.058558 
L 172.735697 -252.938299 
L 171.104267 -252.430824 
L 169.472837 -252.491268 
L 167.841407 -253.03385 
L 166.209977 -253.934903 
L 164.578547 -255.038003 
L 162.947117 -256.160898 
L 161.315688 -257.103928 
L 159.684258 -257.659707 
L 158.052828 -257.623831 
L 156.421398 -256.806294 
L 154.789968 -255.043098 
L 153.158538 -252.207277 
L 151.527108 -248.21837 
L 149.895678 -243.049222 
L 148.264249 -236.729113 
L 146.632819 -229.342536 
L 145.001389 -221.023425 
L 143.369959 -211.945285 
L 141.738529 -202.308248 
L 140.107099 -192.324545 
L 138.475669 -182.204105 
L 136.844239 -172.141926 
L 135.21281 -162.308529 
L 133.58138 -152.844253 
L 131.94995 -143.857542 
L 130.31852 -135.426741 
L 128.68709 -127.604426 
L 127.05566 -120.423035 
L 125.42423 -113.900502 
L 123.7928 -108.044829 
L 122.16137 -102.856868 
L 120.529941 -98.331117 
L 118.898511 -94.4548 
L 117.267081 -91.205907 
L 115.635651 -88.551105 
L 114.004221 -86.444432 
L 112.372791 -84.827496 
L 110.741361 -83.631525 
L 109.109931 -82.781153 
L 107.478502 -82.199404 
L 105.847072 -81.813003 
L 104.215642 -81.557018 
L 102.584212 -81.377948 
L 100.952782 -81.234656 
L 99.321352 -81.097004 
L 97.689922 -80.942519 
L 96.058492 -80.751859 
L 94.427063 -80.504115 
L 92.795633 -80.173022 
L 91.164203 -79.725009 
L 89.532773 -79.119618 
L 87.901343 -78.312358 
L 86.269913 -77.259563 
L 84.638483 -75.92438 
L 83.007053 -74.282825 
L 81.375624 -72.328763 
L 79.744194 -70.076891 
L 78.112764 -67.563179 
L 76.481334 -64.842641 
L 74.849904 -61.984804 
L 73.218474 -59.067576 
L 71.587044 -56.170441 
L 69.955614 -53.367931 
L 68.324185 -50.724202 
L 66.692755 -48.289259 
L 65.061325 -46.097081 
L 63.429895 -44.165574 
L 61.798465 -42.49804 
L 60.167035 -41.085705 
L 58.535605 -39.910778 
L 56.904175 -38.949606 
L 55.272746 -38.175523 
L 53.641316 -37.561201 
L 52.009886 -37.080383 
L 50.378456 -36.709016 
L 48.747026 -36.425868 
L 47.115596 -36.212736 
L 45.484166 -36.05438 
L 43.852736 -35.938294 
L 42.221307 -35.854385 
L 40.589877 -35.794627 
L 38.958447 -35.752732 
L 37.327017 -35.723845 
L 35.695587 -35.704273 
L 34.064157 -35.691255 
L 32.432727 -35.682759 
z
" style="stroke: #f92672; stroke-width: 1.5"/>
    </defs>
    <g clip-path="url(#pefc5e8b7b2)">
     <use xlink:href="#mfd2e4c3cd1" x="0" y="328.658094" style="fill: #f92672; fill-opacity: 0.25; stroke: #f92672; stroke-width: 1.5"/>
    </g>
   </g>
   <g id="matplotlib.axis_1">
    <g id="xtick_1">
     <g id="line2d_1">
      <defs>
       <path id="m5a4e62d95b" d="M 0 0 
L 0 9 
" style="stroke: #666666; stroke-opacity: 0.015686; stroke-width: 1.875"/>
      </defs>
      <g>
       <use xlink:href="#m5a4e62d95b" x="58.945584" y="292.989187" style="fill: #666666; fill-opacity: 0.015686; stroke: #666666; stroke-opacity: 0.015686; stroke-width: 1.875"/>
      </g>
     </g>
     <g id="text_1">
      <!-- −2 -->
      <g style="fill: #666666" transform="translate(46.78328 318.026609)scale(0.165 -0.165)">
       <defs>
        <path id="DejaVuSans-2212" d="M 678 2272 
L 4684 2272 
L 4684 1741 
L 678 1741 
L 678 2272 
z
" transform="scale(0.015625)"/>
        <path id="DejaVuSans-32" d="M 1228 531 
L 3431 531 
L 3431 0 
L 469 0 
L 469 531 
Q 828 903 1448 1529 
Q 2069 2156 2228 2338 
Q 2531 2678 2651 2914 
Q 2772 3150 2772 3378 
Q 2772 3750 2511 3984 
Q 2250 4219 1831 4219 
Q 1534 4219 1204 4116 
Q 875 4013 500 3803 
L 500 4441 
Q 881 4594 1212 4672 
Q 1544 4750 1819 4750 
Q 2544 4750 2975 4387 
Q 3406 4025 3406 3419 
Q 3406 3131 3298 2873 
Q 3191 2616 2906 2266 
Q 2828 2175 2409 1742 
Q 1991 1309 1228 531 
z
" transform="scale(0.015625)"/>
       </defs>
       <use xlink:href="#DejaVuSans-2212"/>
       <use xlink:href="#DejaVuSans-32" x="83.789062"/>
      </g>
     </g>
    </g>
    <g id="xtick_2">
     <g id="line2d_2">
      <g>
       <use xlink:href="#m5a4e62d95b" x="121.426103" y="292.989187" style="fill: #666666; fill-opacity: 0.015686; stroke: #666666; stroke-opacity: 0.015686; stroke-width: 1.875"/>
      </g>
     </g>
     <g id="text_2">
      <!-- −1 -->
      <g style="fill: #666666" transform="translate(109.263799 318.026609)scale(0.165 -0.165)">
       <defs>
        <path id="DejaVuSans-31" d="M 794 531 
L 1825 531 
L 1825 4091 
L 703 3866 
L 703 4441 
L 1819 4666 
L 2450 4666 
L 2450 531 
L 3481 531 
L 3481 0 
L 794 0 
L 794 531 
z
" transform="scale(0.015625)"/>
       </defs>
       <use xlink:href="#DejaVuSans-2212"/>
       <use xlink:href="#DejaVuSans-31" x="83.789062"/>
      </g>
     </g>
    </g>
    <g id="xtick_3">
     <g id="line2d_3">
      <g>
       <use xlink:href="#m5a4e62d95b" x="183.906622" y="292.989187" style="fill: #666666; fill-opacity: 0.015686; stroke: #666666; stroke-opacity: 0.015686; stroke-width: 1.875"/>
      </g>
     </g>
     <g id="text_3">
      <!-- 0 -->
      <g style="fill: #666666" transform="translate(178.65756 318.026609)scale(0.165 -0.165)">
       <defs>
        <path id="DejaVuSans-30" d="M 2034 4250 
Q 1547 4250 1301 3770 
Q 1056 3291 1056 2328 
Q 1056 1369 1301 889 
Q 1547 409 2034 409 
Q 2525 409 2770 889 
Q 3016 1369 3016 2328 
Q 3016 3291 2770 3770 
Q 2525 4250 2034 4250 
z
M 2034 4750 
Q 2819 4750 3233 4129 
Q 3647 3509 3647 2328 
Q 3647 1150 3233 529 
Q 2819 -91 2034 -91 
Q 1250 -91 836 529 
Q 422 1150 422 2328 
Q 422 3509 836 4129 
Q 1250 4750 2034 4750 
z
" transform="scale(0.015625)"/>
       </defs>
       <use xlink:href="#DejaVuSans-30"/>
      </g>
     </g>
    </g>
    <g id="xtick_4">
     <g id="line2d_4">
      <g>
       <use xlink:href="#m5a4e62d95b" x="246.387142" y="292.989187" style="fill: #666666; fill-opacity: 0.015686; stroke: #666666; stroke-opacity: 0.015686; stroke-width: 1.875"/>
      </g>
     </g>
     <g id="text_4">
      <!-- 1 -->
      <g style="fill: #666666" transform="translate(241.138079 318.026609)scale(0.165 -0.165)">
       <use xlink:href="#DejaVuSans-31"/>
      </g>
     </g>
    </g>
    <g id="xtick_5">
     <g id="line2d_5">
      <g>
       <use xlink:href="#m5a4e62d95b" x="308.867661" y="292.989187" style="fill: #666666; fill-opacity: 0.015686; stroke: #666666; stroke-opacity: 0.015686; stroke-width: 1.875"/>
      </g>
     </g>
     <g id="text_5">
      <!-- 2 -->
      <g style="fill: #666666" transform="translate(303.618598 318.026609)scale(0.165 -0.165)">
       <use xlink:href="#DejaVuSans-32"/>
      </g>
     </g>
    </g>
    <g id="xtick_6">
     <g id="line2d_6">
      <g>
       <use xlink:href="#m5a4e62d95b" x="371.34818" y="292.989187" style="fill: #666666; fill-opacity: 0.015686; stroke: #666666; stroke-opacity: 0.015686; stroke-width: 1.875"/>
      </g>
     </g>
     <g id="text_6">
      <!-- 3 -->
      <g style="fill: #666666" transform="translate(366.099117 318.026609)scale(0.165 -0.165)">
       <defs>
        <path id="DejaVuSans-33" d="M 2597 2516 
Q 3050 2419 3304 2112 
Q 3559 1806 3559 1356 
Q 3559 666 3084 287 
Q 2609 -91 1734 -91 
Q 1441 -91 1130 -33 
Q 819 25 488 141 
L 488 750 
Q 750 597 1062 519 
Q 1375 441 1716 441 
Q 2309 441 2620 675 
Q 2931 909 2931 1356 
Q 2931 1769 2642 2001 
Q 2353 2234 1838 2234 
L 1294 2234 
L 1294 2753 
L 1863 2753 
Q 2328 2753 2575 2939 
Q 2822 3125 2822 3475 
Q 2822 3834 2567 4026 
Q 2313 4219 1838 4219 
Q 1578 4219 1281 4162 
Q 984 4106 628 3988 
L 628 4550 
Q 988 4650 1302 4700 
Q 1616 4750 1894 4750 
Q 2613 4750 3031 4423 
Q 3450 4097 3450 3541 
Q 3450 3153 3228 2886 
Q 3006 2619 2597 2516 
z
" transform="scale(0.015625)"/>
       </defs>
       <use xlink:href="#DejaVuSans-33"/>
      </g>
     </g>
    </g>
   </g>
   <g id="matplotlib.axis_2"/>
   <g id="patch_3">
    <path d="M 16.2 292.989187 
L 16.2 26.877187 
" style="fill: none"/>
   </g>
   <g id="patch_4">
    <path d="M 373.32 292.989187 
L 373.32 26.877187 
" style="fill: none"/>
   </g>
   <g id="patch_5">
    <path d="M 16.2 292.989187 
L 373.32 292.989187 
" style="fill: none"/>
   </g>
   <g id="patch_6">
    <path d="M 16.2 26.877187 
L 373.32 26.877187 
" style="fill: none"/>
   </g>
   <g id="text_7">
    <!-- $N = $1000 -->
    <g style="fill: #666666" transform="translate(153.99 20.877187)scale(0.18 -0.18)">
     <defs>
      <path id="DejaVuSans-Oblique-4e" d="M 1081 4666 
L 1931 4666 
L 3219 666 
L 4000 4666 
L 4616 4666 
L 3706 0 
L 2853 0 
L 1569 4025 
L 788 0 
L 172 0 
L 1081 4666 
z
" transform="scale(0.015625)"/>
      <path id="DejaVuSans-3d" d="M 678 2906 
L 4684 2906 
L 4684 2381 
L 678 2381 
L 678 2906 
z
M 678 1631 
L 4684 1631 
L 4684 1100 
L 678 1100 
L 678 1631 
z
" transform="scale(0.015625)"/>
     </defs>
     <use xlink:href="#DejaVuSans-Oblique-4e" transform="translate(0 0.78125)"/>
     <use xlink:href="#DejaVuSans-3d" transform="translate(94.287109 0.78125)"/>
     <use xlink:href="#DejaVuSans-31" transform="translate(197.558594 0.78125)"/>
     <use xlink:href="#DejaVuSans-30" transform="translate(261.181641 0.78125)"/>
     <use xlink:href="#DejaVuSans-30" transform="translate(324.804688 0.78125)"/>
     <use xlink:href="#DejaVuSans-30" transform="translate(388.427734 0.78125)"/>
    </g>
   </g>
  </g>
 </g>
 <defs>
  <clipPath id="pefc5e8b7b2">
   <rect x="16.2" y="26.877187" width="357.12" height="266.112"/>
  </clipPath>
 </defs>
</svg>
