<?xml version="1.0" encoding="utf-8" standalone="no"?>
<!DOCTYPE svg PUBLIC "-//W3C//DTD SVG 1.1//EN"
  "http://www.w3.org/Graphics/SVG/1.1/DTD/svg11.dtd">
<svg xmlns:xlink="http://www.w3.org/1999/xlink" width="380.52pt" height="328.658094pt" viewBox="0 0 380.52 328.658094" xmlns="http://www.w3.org/2000/svg" version="1.1">
 <metadata>
  <rdf:RDF xmlns:dc="http://purl.org/dc/elements/1.1/" xmlns:cc="http://creativecommons.org/ns#" xmlns:rdf="http://www.w3.org/1999/02/22-rdf-syntax-ns#">
   <cc:Work>
    <dc:type rdf:resource="http://purl.org/dc/dcmitype/StillImage"/>
    <dc:date>2022-03-19T13:37:03.455520</dc:date>
    <dc:format>image/svg+xml</dc:format>
    <dc:creator>
     <cc:Agent>
      <dc:title>Matplotlib v3.5.1, https://matplotlib.org/</dc:title>
     </cc:Agent>
    </dc:creator>
   </cc:Work>
  </rdf:RDF>
 </metadata>
 <defs>
  <style type="text/css">*{stroke-linejoin: round; stroke-linecap: butt}</style>
 </defs>
 <g id="figure_1">
  <g id="patch_1">
   <path d="M 0 328.658094 
L 380.52 328.658094 
L 380.52 0 
L 0 0 
L 0 328.658094 
z
" style="fill: none"/>
  </g>
  <g id="axes_1">
   <g id="patch_2">
    <path d="M 16.2 292.989187 
L 373.32 292.989187 
L 373.32 26.877187 
L 16.2 26.877187 
L 16.2 292.989187 
z
" style="fill: none"/>
   </g>
   <g id="PolyCollection_1">
    <defs>
     <path id="m31d65fdcf8" d="M 32.432727 -35.918359 
L 32.432727 -35.668906 
L 34.064157 -35.668906 
L 35.695587 -35.668906 
L 37.327017 -35.668906 
L 38.958447 -35.668906 
L 40.589877 -35.668906 
L 42.221307 -35.668906 
L 43.852736 -35.668906 
L 45.484166 -35.668906 
L 47.115596 -35.668906 
L 48.747026 -35.668906 
L 50.378456 -35.668906 
L 52.009886 -35.668906 
L 53.641316 -35.668906 
L 55.272746 -35.668906 
L 56.904175 -35.668906 
L 58.535605 -35.668906 
L 60.167035 -35.668906 
L 61.798465 -35.668906 
L 63.429895 -35.668906 
L 65.061325 -35.668906 
L 66.692755 -35.668906 
L 68.324185 -35.668906 
L 69.955614 -35.668906 
L 71.587044 -35.668906 
L 73.218474 -35.668906 
L 74.849904 -35.668906 
L 76.481334 -35.668906 
L 78.112764 -35.668906 
L 79.744194 -35.668906 
L 81.375624 -35.668906 
L 83.007053 -35.668906 
L 84.638483 -35.668906 
L 86.269913 -35.668906 
L 87.901343 -35.668906 
L 89.532773 -35.668906 
L 91.164203 -35.668906 
L 92.795633 -35.668906 
L 94.427063 -35.668906 
L 96.058492 -35.668906 
L 97.689922 -35.668906 
L 99.321352 -35.668906 
L 100.952782 -35.668906 
L 102.584212 -35.668906 
L 104.215642 -35.668906 
L 105.847072 -35.668906 
L 107.478502 -35.668906 
L 109.109931 -35.668906 
L 110.741361 -35.668906 
L 112.372791 -35.668906 
L 114.004221 -35.668906 
L 115.635651 -35.668906 
L 117.267081 -35.668906 
L 118.898511 -35.668906 
L 120.529941 -35.668906 
L 122.16137 -35.668906 
L 123.7928 -35.668906 
L 125.42423 -35.668906 
L 127.05566 -35.668906 
L 128.68709 -35.668906 
L 130.31852 -35.668906 
L 131.94995 -35.668906 
L 133.58138 -35.668906 
L 135.21281 -35.668906 
L 136.844239 -35.668906 
L 138.475669 -35.668906 
L 140.107099 -35.668906 
L 141.738529 -35.668906 
L 143.369959 -35.668906 
L 145.001389 -35.668906 
L 146.632819 -35.668906 
L 148.264249 -35.668906 
L 149.895678 -35.668906 
L 151.527108 -35.668906 
L 153.158538 -35.668906 
L 154.789968 -35.668906 
L 156.421398 -35.668906 
L 158.052828 -35.668906 
L 159.684258 -35.668906 
L 161.315688 -35.668906 
L 162.947117 -35.668906 
L 164.578547 -35.668906 
L 166.209977 -35.668906 
L 167.841407 -35.668906 
L 169.472837 -35.668906 
L 171.104267 -35.668906 
L 172.735697 -35.668906 
L 174.367127 -35.668906 
L 175.998556 -35.668906 
L 177.629986 -35.668906 
L 179.261416 -35.668906 
L 180.892846 -35.668906 
L 182.524276 -35.668906 
L 184.155706 -35.668906 
L 185.787136 -35.668906 
L 187.418566 -35.668906 
L 189.049995 -35.668906 
L 190.681425 -35.668906 
L 192.312855 -35.668906 
L 193.944285 -35.668906 
L 195.575715 -35.668906 
L 197.207145 -35.668906 
L 198.838575 -35.668906 
L 200.470005 -35.668906 
L 202.101434 -35.668906 
L 203.732864 -35.668906 
L 205.364294 -35.668906 
L 206.995724 -35.668906 
L 208.627154 -35.668906 
L 210.258584 -35.668906 
L 211.890014 -35.668906 
L 213.521444 -35.668906 
L 215.152873 -35.668906 
L 216.784303 -35.668906 
L 218.415733 -35.668906 
L 220.047163 -35.668906 
L 221.678593 -35.668906 
L 223.310023 -35.668906 
L 224.941453 -35.668906 
L 226.572883 -35.668906 
L 228.204312 -35.668906 
L 229.835742 -35.668906 
L 231.467172 -35.668906 
L 233.098602 -35.668906 
L 234.730032 -35.668906 
L 236.361462 -35.668906 
L 237.992892 -35.668906 
L 239.624322 -35.668906 
L 241.255751 -35.668906 
L 242.887181 -35.668906 
L 244.518611 -35.668906 
L 246.150041 -35.668906 
L 247.781471 -35.668906 
L 249.412901 -35.668906 
L 251.044331 -35.668906 
L 252.675761 -35.668906 
L 254.30719 -35.668906 
L 255.93862 -35.668906 
L 257.57005 -35.668906 
L 259.20148 -35.668906 
L 260.83291 -35.668906 
L 262.46434 -35.668906 
L 264.09577 -35.668906 
L 265.7272 -35.668906 
L 267.35863 -35.668906 
L 268.990059 -35.668906 
L 270.621489 -35.668906 
L 272.252919 -35.668906 
L 273.884349 -35.668906 
L 275.515779 -35.668906 
L 277.147209 -35.668906 
L 278.778639 -35.668906 
L 280.410069 -35.668906 
L 282.041498 -35.668906 
L 283.672928 -35.668906 
L 285.304358 -35.668906 
L 286.935788 -35.668906 
L 288.567218 -35.668906 
L 290.198648 -35.668906 
L 291.830078 -35.668906 
L 293.461508 -35.668906 
L 295.092937 -35.668906 
L 296.724367 -35.668906 
L 298.355797 -35.668906 
L 299.987227 -35.668906 
L 301.618657 -35.668906 
L 303.250087 -35.668906 
L 304.881517 -35.668906 
L 306.512947 -35.668906 
L 308.144376 -35.668906 
L 309.775806 -35.668906 
L 311.407236 -35.668906 
L 313.038666 -35.668906 
L 314.670096 -35.668906 
L 316.301526 -35.668906 
L 317.932956 -35.668906 
L 319.564386 -35.668906 
L 321.195815 -35.668906 
L 322.827245 -35.668906 
L 324.458675 -35.668906 
L 326.090105 -35.668906 
L 327.721535 -35.668906 
L 329.352965 -35.668906 
L 330.984395 -35.668906 
L 332.615825 -35.668906 
L 334.247254 -35.668906 
L 335.878684 -35.668906 
L 337.510114 -35.668906 
L 339.141544 -35.668906 
L 340.772974 -35.668906 
L 342.404404 -35.668906 
L 344.035834 -35.668906 
L 345.667264 -35.668906 
L 347.298693 -35.668906 
L 348.930123 -35.668906 
L 350.561553 -35.668906 
L 352.192983 -35.668906 
L 353.824413 -35.668906 
L 355.455843 -35.668906 
L 357.087273 -35.668906 
L 357.087273 -35.749211 
L 357.087273 -35.749211 
L 355.455843 -35.775106 
L 353.824413 -35.808257 
L 352.192983 -35.85034 
L 350.561553 -35.90331 
L 348.930123 -35.969418 
L 347.298693 -36.051226 
L 345.667264 -36.151606 
L 344.035834 -36.273733 
L 342.404404 -36.421059 
L 340.772974 -36.597275 
L 339.141544 -36.806257 
L 337.510114 -37.051985 
L 335.878684 -37.338456 
L 334.247254 -37.669563 
L 332.615825 -38.048971 
L 330.984395 -38.479967 
L 329.352965 -38.965314 
L 327.721535 -39.507085 
L 326.090105 -40.106512 
L 324.458675 -40.763837 
L 322.827245 -41.478188 
L 321.195815 -42.247473 
L 319.564386 -43.068319 
L 317.932956 -43.936047 
L 316.301526 -44.844702 
L 314.670096 -45.78713 
L 313.038666 -46.755122 
L 311.407236 -47.739609 
L 309.775806 -48.730911 
L 308.144376 -49.719042 
L 306.512947 -50.694039 
L 304.881517 -51.646334 
L 303.250087 -52.567124 
L 301.618657 -53.44874 
L 299.987227 -54.284995 
L 298.355797 -55.071477 
L 296.724367 -55.805794 
L 295.092937 -56.487734 
L 293.461508 -57.119335 
L 291.830078 -57.704857 
L 290.198648 -58.250653 
L 288.567218 -58.76493 
L 286.935788 -59.257426 
L 285.304358 -59.738993 
L 283.672928 -60.221124 
L 282.041498 -60.715431 
L 280.410069 -61.233103 
L 278.778639 -61.78438 
L 277.147209 -62.378056 
L 275.515779 -63.021043 
L 273.884349 -63.718026 
L 272.252919 -64.471217 
L 270.621489 -65.280234 
L 268.990059 -66.142107 
L 267.35863 -67.051424 
L 265.7272 -68.000609 
L 264.09577 -68.980327 
L 262.46434 -69.980008 
L 260.83291 -70.988471 
L 259.20148 -71.994634 
L 257.57005 -72.98828 
L 255.93862 -73.96086 
L 254.30719 -74.906306 
L 252.675761 -75.82183 
L 251.044331 -76.708666 
L 249.412901 -77.572745 
L 247.781471 -78.425253 
L 246.150041 -79.283057 
L 244.518611 -80.16896 
L 242.887181 -81.111762 
L 241.255751 -82.146092 
L 239.624322 -83.312006 
L 237.992892 -84.654325 
L 236.361462 -86.221702 
L 234.730032 -88.065442 
L 233.098602 -90.238061 
L 231.467172 -92.791645 
L 229.835742 -95.776021 
L 228.204312 -99.23682 
L 226.572883 -103.213487 
L 224.941453 -107.737331 
L 223.310023 -112.829693 
L 221.678593 -118.500331 
L 220.047163 -124.746115 
L 218.415733 -131.550116 
L 216.784303 -138.881158 
L 215.152873 -146.693901 
L 213.521444 -154.929465 
L 211.890014 -163.516623 
L 210.258584 -172.373514 
L 208.627154 -181.409833 
L 206.995724 -190.529408 
L 205.364294 -199.633052 
L 203.732864 -208.621548 
L 202.101434 -217.398644 
L 200.470005 -225.873887 
L 198.838575 -233.965172 
L 197.207145 -241.600871 
L 195.575715 -248.721455 
L 193.944285 -255.280523 
L 192.312855 -261.245224 
L 190.681425 -266.596075 
L 189.049995 -271.326219 
L 187.418566 -275.44021 
L 185.787136 -278.952425 
L 184.155706 -281.885246 
L 182.524276 -284.26712 
L 180.892846 -286.130667 
L 179.261416 -287.510918 
L 177.629986 -288.443809 
L 175.998556 -288.964976 
L 174.367127 -289.108906 
L 172.735697 -288.908428 
L 171.104267 -288.394514 
L 169.472837 -287.596341 
L 167.841407 -286.541516 
L 166.209977 -285.25638 
L 164.578547 -283.766306 
L 162.947117 -282.095888 
L 161.315688 -280.268973 
L 159.684258 -278.308475 
L 158.052828 -276.235968 
L 156.421398 -274.071067 
L 154.789968 -271.830643 
L 153.158538 -269.527936 
L 151.527108 -267.171665 
L 149.895678 -264.765221 
L 148.264249 -262.306049 
L 146.632819 -259.785306 
L 145.001389 -257.187877 
L 143.369959 -254.492791 
L 141.738529 -251.674057 
L 140.107099 -248.701909 
L 138.475669 -245.544406 
L 136.844239 -242.169312 
L 135.21281 -238.546138 
L 133.58138 -234.648241 
L 131.94995 -230.454815 
L 130.31852 -225.95266 
L 128.68709 -221.137599 
L 127.05566 -216.01543 
L 125.42423 -210.602349 
L 123.7928 -204.924788 
L 122.16137 -199.018684 
L 120.529941 -192.928199 
L 118.898511 -186.703973 
L 117.267081 -180.401008 
L 115.635651 -174.07632 
L 114.004221 -167.786491 
L 112.372791 -161.585284 
L 110.741361 -155.521438 
L 109.109931 -149.636802 
L 107.478502 -143.964877 
L 105.847072 -138.529865 
L 104.215642 -133.346248 
L 102.584212 -128.418903 
L 100.952782 -123.743728 
L 99.321352 -119.308708 
L 97.689922 -115.095343 
L 96.058492 -111.080331 
L 94.427063 -107.237384 
L 92.795633 -103.539079 
L 91.164203 -99.958612 
L 89.532773 -96.471375 
L 87.901343 -93.056266 
L 86.269913 -89.696682 
L 84.638483 -86.381157 
L 83.007053 -83.10364 
L 81.375624 -79.863424 
L 79.744194 -76.664765 
L 78.112764 -73.516241 
L 76.481334 -70.429908 
L 74.849904 -67.420328 
L 73.218474 -64.503542 
L 71.587044 -61.696037 
L 69.955614 -59.013787 
L 68.324185 -56.471408 
L 66.692755 -54.081452 
L 65.061325 -51.853887 
L 63.429895 -49.795748 
L 61.798465 -47.910975 
L 60.167035 -46.200417 
L 58.535605 -44.661974 
L 56.904175 -43.290872 
L 55.272746 -42.080019 
L 53.641316 -41.020416 
L 52.009886 -40.10161 
L 50.378456 -39.312134 
L 48.747026 -38.639942 
L 47.115596 -38.072796 
L 45.484166 -37.598602 
L 43.852736 -37.205702 
L 42.221307 -36.883084 
L 40.589877 -36.620552 
L 38.958447 -36.408825 
L 37.327017 -36.239594 
L 35.695587 -36.105532 
L 34.064157 -36.000273 
L 32.432727 -35.918359 
z
" style="stroke: #00ccff; stroke-width: 1.5"/>
    </defs>
    <g clip-path="url(#pb7ece2b5a5)">
     <use xlink:href="#m31d65fdcf8" x="0" y="328.658094" style="fill: #00ccff; fill-opacity: 0.25; stroke: #00ccff; stroke-width: 1.5"/>
    </g>
   </g>
   <g id="matplotlib.axis_1">
    <g id="xtick_1">
     <g id="line2d_1">
      <defs>
       <path id="mcce92586a6" d="M 0 0 
L 0 9 
" style="stroke: #666666; stroke-opacity: 0.015686; stroke-width: 1.875"/>
      </defs>
      <g>
       <use xlink:href="#mcce92586a6" x="31.910503" y="292.989187" style="fill: #666666; fill-opacity: 0.015686; stroke: #666666; stroke-opacity: 0.015686; stroke-width: 1.875"/>
      </g>
     </g>
     <g id="text_1">
      <!-- −2 -->
      <g style="fill: #666666" transform="translate(19.748198 318.026609)scale(0.165 -0.165)">
       <defs>
        <path id="DejaVuSans-2212" d="M 678 2272 
L 4684 2272 
L 4684 1741 
L 678 1741 
L 678 2272 
z
" transform="scale(0.015625)"/>
        <path id="DejaVuSans-32" d="M 1228 531 
L 3431 531 
L 3431 0 
L 469 0 
L 469 531 
Q 828 903 1448 1529 
Q 2069 2156 2228 2338 
Q 2531 2678 2651 2914 
Q 2772 3150 2772 3378 
Q 2772 3750 2511 3984 
Q 2250 4219 1831 4219 
Q 1534 4219 1204 4116 
Q 875 4013 500 3803 
L 500 4441 
Q 881 4594 1212 4672 
Q 1544 4750 1819 4750 
Q 2544 4750 2975 4387 
Q 3406 4025 3406 3419 
Q 3406 3131 3298 2873 
Q 3191 2616 2906 2266 
Q 2828 2175 2409 1742 
Q 1991 1309 1228 531 
z
" transform="scale(0.015625)"/>
       </defs>
       <use xlink:href="#DejaVuSans-2212"/>
       <use xlink:href="#DejaVuSans-32" x="83.789062"/>
      </g>
     </g>
    </g>
    <g id="xtick_2">
     <g id="line2d_2">
      <g>
       <use xlink:href="#mcce92586a6" x="92.245064" y="292.989187" style="fill: #666666; fill-opacity: 0.015686; stroke: #666666; stroke-opacity: 0.015686; stroke-width: 1.875"/>
      </g>
     </g>
     <g id="text_2">
      <!-- −1 -->
      <g style="fill: #666666" transform="translate(80.08276 318.026609)scale(0.165 -0.165)">
       <defs>
        <path id="DejaVuSans-31" d="M 794 531 
L 1825 531 
L 1825 4091 
L 703 3866 
L 703 4441 
L 1819 4666 
L 2450 4666 
L 2450 531 
L 3481 531 
L 3481 0 
L 794 0 
L 794 531 
z
" transform="scale(0.015625)"/>
       </defs>
       <use xlink:href="#DejaVuSans-2212"/>
       <use xlink:href="#DejaVuSans-31" x="83.789062"/>
      </g>
     </g>
    </g>
    <g id="xtick_3">
     <g id="line2d_3">
      <g>
       <use xlink:href="#mcce92586a6" x="152.579625" y="292.989187" style="fill: #666666; fill-opacity: 0.015686; stroke: #666666; stroke-opacity: 0.015686; stroke-width: 1.875"/>
      </g>
     </g>
     <g id="text_3">
      <!-- 0 -->
      <g style="fill: #666666" transform="translate(147.330563 318.026609)scale(0.165 -0.165)">
       <defs>
        <path id="DejaVuSans-30" d="M 2034 4250 
Q 1547 4250 1301 3770 
Q 1056 3291 1056 2328 
Q 1056 1369 1301 889 
Q 1547 409 2034 409 
Q 2525 409 2770 889 
Q 3016 1369 3016 2328 
Q 3016 3291 2770 3770 
Q 2525 4250 2034 4250 
z
M 2034 4750 
Q 2819 4750 3233 4129 
Q 3647 3509 3647 2328 
Q 3647 1150 3233 529 
Q 2819 -91 2034 -91 
Q 1250 -91 836 529 
Q 422 1150 422 2328 
Q 422 3509 836 4129 
Q 1250 4750 2034 4750 
z
" transform="scale(0.015625)"/>
       </defs>
       <use xlink:href="#DejaVuSans-30"/>
      </g>
     </g>
    </g>
    <g id="xtick_4">
     <g id="line2d_4">
      <g>
       <use xlink:href="#mcce92586a6" x="212.914187" y="292.989187" style="fill: #666666; fill-opacity: 0.015686; stroke: #666666; stroke-opacity: 0.015686; stroke-width: 1.875"/>
      </g>
     </g>
     <g id="text_4">
      <!-- 1 -->
      <g style="fill: #666666" transform="translate(207.665124 318.026609)scale(0.165 -0.165)">
       <use xlink:href="#DejaVuSans-31"/>
      </g>
     </g>
    </g>
    <g id="xtick_5">
     <g id="line2d_5">
      <g>
       <use xlink:href="#mcce92586a6" x="273.248748" y="292.989187" style="fill: #666666; fill-opacity: 0.015686; stroke: #666666; stroke-opacity: 0.015686; stroke-width: 1.875"/>
      </g>
     </g>
     <g id="text_5">
      <!-- 2 -->
      <g style="fill: #666666" transform="translate(267.999685 318.026609)scale(0.165 -0.165)">
       <use xlink:href="#DejaVuSans-32"/>
      </g>
     </g>
    </g>
    <g id="xtick_6">
     <g id="line2d_6">
      <g>
       <use xlink:href="#mcce92586a6" x="333.583309" y="292.989187" style="fill: #666666; fill-opacity: 0.015686; stroke: #666666; stroke-opacity: 0.015686; stroke-width: 1.875"/>
      </g>
     </g>
     <g id="text_6">
      <!-- 3 -->
      <g style="fill: #666666" transform="translate(328.334246 318.026609)scale(0.165 -0.165)">
       <defs>
        <path id="DejaVuSans-33" d="M 2597 2516 
Q 3050 2419 3304 2112 
Q 3559 1806 3559 1356 
Q 3559 666 3084 287 
Q 2609 -91 1734 -91 
Q 1441 -91 1130 -33 
Q 819 25 488 141 
L 488 750 
Q 750 597 1062 519 
Q 1375 441 1716 441 
Q 2309 441 2620 675 
Q 2931 909 2931 1356 
Q 2931 1769 2642 2001 
Q 2353 2234 1838 2234 
L 1294 2234 
L 1294 2753 
L 1863 2753 
Q 2328 2753 2575 2939 
Q 2822 3125 2822 3475 
Q 2822 3834 2567 4026 
Q 2313 4219 1838 4219 
Q 1578 4219 1281 4162 
Q 984 4106 628 3988 
L 628 4550 
Q 988 4650 1302 4700 
Q 1616 4750 1894 4750 
Q 2613 4750 3031 4423 
Q 3450 4097 3450 3541 
Q 3450 3153 3228 2886 
Q 3006 2619 2597 2516 
z
" transform="scale(0.015625)"/>
       </defs>
       <use xlink:href="#DejaVuSans-33"/>
      </g>
     </g>
    </g>
   </g>
   <g id="matplotlib.axis_2"/>
   <g id="patch_3">
    <path d="M 16.2 292.989187 
L 16.2 26.877187 
" style="fill: none"/>
   </g>
   <g id="patch_4">
    <path d="M 373.32 292.989187 
L 373.32 26.877187 
" style="fill: none"/>
   </g>
   <g id="patch_5">
    <path d="M 16.2 292.989187 
L 373.32 292.989187 
" style="fill: none"/>
   </g>
   <g id="patch_6">
    <path d="M 16.2 26.877187 
L 373.32 26.877187 
" style="fill: none"/>
   </g>
   <g id="text_7">
    <!-- $N = $100 -->
    <g style="fill: #666666" transform="translate(159.75 20.877187)scale(0.18 -0.18)">
     <defs>
      <path id="DejaVuSans-Oblique-4e" d="M 1081 4666 
L 1931 4666 
L 3219 666 
L 4000 4666 
L 4616 4666 
L 3706 0 
L 2853 0 
L 1569 4025 
L 788 0 
L 172 0 
L 1081 4666 
z
" transform="scale(0.015625)"/>
      <path id="DejaVuSans-3d" d="M 678 2906 
L 4684 2906 
L 4684 2381 
L 678 2381 
L 678 2906 
z
M 678 1631 
L 4684 1631 
L 4684 1100 
L 678 1100 
L 678 1631 
z
" transform="scale(0.015625)"/>
     </defs>
     <use xlink:href="#DejaVuSans-Oblique-4e" transform="translate(0 0.78125)"/>
     <use xlink:href="#DejaVuSans-3d" transform="translate(94.287109 0.78125)"/>
     <use xlink:href="#DejaVuSans-31" transform="translate(197.558594 0.78125)"/>
     <use xlink:href="#DejaVuSans-30" transform="translate(261.181641 0.78125)"/>
     <use xlink:href="#DejaVuSans-30" transform="translate(324.804688 0.78125)"/>
    </g>
   </g>
  </g>
 </g>
 <defs>
  <clipPath id="pb7ece2b5a5">
   <rect x="16.2" y="26.877187" width="357.12" height="266.112"/>
  </clipPath>
 </defs>
</svg>
