<?xml version="1.0" encoding="utf-8" standalone="no"?>
<!DOCTYPE svg PUBLIC "-//W3C//DTD SVG 1.1//EN"
  "http://www.w3.org/Graphics/SVG/1.1/DTD/svg11.dtd">
<svg xmlns:xlink="http://www.w3.org/1999/xlink" width="382.529568pt" height="328.658094pt" viewBox="0 0 382.529568 328.658094" xmlns="http://www.w3.org/2000/svg" version="1.1">
 <metadata>
  <rdf:RDF xmlns:dc="http://purl.org/dc/elements/1.1/" xmlns:cc="http://creativecommons.org/ns#" xmlns:rdf="http://www.w3.org/1999/02/22-rdf-syntax-ns#">
   <cc:Work>
    <dc:type rdf:resource="http://purl.org/dc/dcmitype/StillImage"/>
    <dc:date>2022-03-19T13:40:12.700552</dc:date>
    <dc:format>image/svg+xml</dc:format>
    <dc:creator>
     <cc:Agent>
      <dc:title>Matplotlib v3.5.1, https://matplotlib.org/</dc:title>
     </cc:Agent>
    </dc:creator>
   </cc:Work>
  </rdf:RDF>
 </metadata>
 <defs>
  <style type="text/css">*{stroke-linejoin: round; stroke-linecap: butt}</style>
 </defs>
 <g id="figure_1">
  <g id="patch_1">
   <path d="M -0 328.658094 
L 382.529568 328.658094 
L 382.529568 0 
L -0 0 
L -0 328.658094 
z
" style="fill: none"/>
  </g>
  <g id="axes_1">
   <g id="patch_2">
    <path d="M 18.209568 292.989187 
L 375.329568 292.989187 
L 375.329568 26.877187 
L 18.209568 26.877187 
L 18.209568 292.989187 
z
" style="fill: none"/>
   </g>
   <g id="PolyCollection_1">
    <defs>
     <path id="m8c6916ae70" d="M 34.442296 -35.671374 
L 34.442296 -35.668906 
L 36.073726 -35.668906 
L 37.705155 -35.668906 
L 39.336585 -35.668906 
L 40.968015 -35.668906 
L 42.599445 -35.668906 
L 44.230875 -35.668906 
L 45.862305 -35.668906 
L 47.493735 -35.668906 
L 49.125165 -35.668906 
L 50.756594 -35.668906 
L 52.388024 -35.668906 
L 54.019454 -35.668906 
L 55.650884 -35.668906 
L 57.282314 -35.668906 
L 58.913744 -35.668906 
L 60.545174 -35.668906 
L 62.176604 -35.668906 
L 63.808033 -35.668906 
L 65.439463 -35.668906 
L 67.070893 -35.668906 
L 68.702323 -35.668906 
L 70.333753 -35.668906 
L 71.965183 -35.668906 
L 73.596613 -35.668906 
L 75.228043 -35.668906 
L 76.859472 -35.668906 
L 78.490902 -35.668906 
L 80.122332 -35.668906 
L 81.753762 -35.668906 
L 83.385192 -35.668906 
L 85.016622 -35.668906 
L 86.648052 -35.668906 
L 88.279482 -35.668906 
L 89.910912 -35.668906 
L 91.542341 -35.668906 
L 93.173771 -35.668906 
L 94.805201 -35.668906 
L 96.436631 -35.668906 
L 98.068061 -35.668906 
L 99.699491 -35.668906 
L 101.330921 -35.668906 
L 102.962351 -35.668906 
L 104.59378 -35.668906 
L 106.22521 -35.668906 
L 107.85664 -35.668906 
L 109.48807 -35.668906 
L 111.1195 -35.668906 
L 112.75093 -35.668906 
L 114.38236 -35.668906 
L 116.01379 -35.668906 
L 117.645219 -35.668906 
L 119.276649 -35.668906 
L 120.908079 -35.668906 
L 122.539509 -35.668906 
L 124.170939 -35.668906 
L 125.802369 -35.668906 
L 127.433799 -35.668906 
L 129.065229 -35.668906 
L 130.696658 -35.668906 
L 132.328088 -35.668906 
L 133.959518 -35.668906 
L 135.590948 -35.668906 
L 137.222378 -35.668906 
L 138.853808 -35.668906 
L 140.485238 -35.668906 
L 142.116668 -35.668906 
L 143.748097 -35.668906 
L 145.379527 -35.668906 
L 147.010957 -35.668906 
L 148.642387 -35.668906 
L 150.273817 -35.668906 
L 151.905247 -35.668906 
L 153.536677 -35.668906 
L 155.168107 -35.668906 
L 156.799536 -35.668906 
L 158.430966 -35.668906 
L 160.062396 -35.668906 
L 161.693826 -35.668906 
L 163.325256 -35.668906 
L 164.956686 -35.668906 
L 166.588116 -35.668906 
L 168.219546 -35.668906 
L 169.850975 -35.668906 
L 171.482405 -35.668906 
L 173.113835 -35.668906 
L 174.745265 -35.668906 
L 176.376695 -35.668906 
L 178.008125 -35.668906 
L 179.639555 -35.668906 
L 181.270985 -35.668906 
L 182.902414 -35.668906 
L 184.533844 -35.668906 
L 186.165274 -35.668906 
L 187.796704 -35.668906 
L 189.428134 -35.668906 
L 191.059564 -35.668906 
L 192.690994 -35.668906 
L 194.322424 -35.668906 
L 195.953853 -35.668906 
L 197.585283 -35.668906 
L 199.216713 -35.668906 
L 200.848143 -35.668906 
L 202.479573 -35.668906 
L 204.111003 -35.668906 
L 205.742433 -35.668906 
L 207.373863 -35.668906 
L 209.005293 -35.668906 
L 210.636722 -35.668906 
L 212.268152 -35.668906 
L 213.899582 -35.668906 
L 215.531012 -35.668906 
L 217.162442 -35.668906 
L 218.793872 -35.668906 
L 220.425302 -35.668906 
L 222.056732 -35.668906 
L 223.688161 -35.668906 
L 225.319591 -35.668906 
L 226.951021 -35.668906 
L 228.582451 -35.668906 
L 230.213881 -35.668906 
L 231.845311 -35.668906 
L 233.476741 -35.668906 
L 235.108171 -35.668906 
L 236.7396 -35.668906 
L 238.37103 -35.668906 
L 240.00246 -35.668906 
L 241.63389 -35.668906 
L 243.26532 -35.668906 
L 244.89675 -35.668906 
L 246.52818 -35.668906 
L 248.15961 -35.668906 
L 249.791039 -35.668906 
L 251.422469 -35.668906 
L 253.053899 -35.668906 
L 254.685329 -35.668906 
L 256.316759 -35.668906 
L 257.948189 -35.668906 
L 259.579619 -35.668906 
L 261.211049 -35.668906 
L 262.842478 -35.668906 
L 264.473908 -35.668906 
L 266.105338 -35.668906 
L 267.736768 -35.668906 
L 269.368198 -35.668906 
L 270.999628 -35.668906 
L 272.631058 -35.668906 
L 274.262488 -35.668906 
L 275.893917 -35.668906 
L 277.525347 -35.668906 
L 279.156777 -35.668906 
L 280.788207 -35.668906 
L 282.419637 -35.668906 
L 284.051067 -35.668906 
L 285.682497 -35.668906 
L 287.313927 -35.668906 
L 288.945356 -35.668906 
L 290.576786 -35.668906 
L 292.208216 -35.668906 
L 293.839646 -35.668906 
L 295.471076 -35.668906 
L 297.102506 -35.668906 
L 298.733936 -35.668906 
L 300.365366 -35.668906 
L 301.996795 -35.668906 
L 303.628225 -35.668906 
L 305.259655 -35.668906 
L 306.891085 -35.668906 
L 308.522515 -35.668906 
L 310.153945 -35.668906 
L 311.785375 -35.668906 
L 313.416805 -35.668906 
L 315.048234 -35.668906 
L 316.679664 -35.668906 
L 318.311094 -35.668906 
L 319.942524 -35.668906 
L 321.573954 -35.668906 
L 323.205384 -35.668906 
L 324.836814 -35.668906 
L 326.468244 -35.668906 
L 328.099673 -35.668906 
L 329.731103 -35.668906 
L 331.362533 -35.668906 
L 332.993963 -35.668906 
L 334.625393 -35.668906 
L 336.256823 -35.668906 
L 337.888253 -35.668906 
L 339.519683 -35.668906 
L 341.151113 -35.668906 
L 342.782542 -35.668906 
L 344.413972 -35.668906 
L 346.045402 -35.668906 
L 347.676832 -35.668906 
L 349.308262 -35.668906 
L 350.939692 -35.668906 
L 352.571122 -35.668906 
L 354.202552 -35.668906 
L 355.833981 -35.668906 
L 357.465411 -35.668906 
L 359.096841 -35.668906 
L 359.096841 -35.670743 
L 359.096841 -35.670743 
L 357.465411 -35.672745 
L 355.833981 -35.676417 
L 354.202552 -35.682665 
L 352.571122 -35.692505 
L 350.939692 -35.706809 
L 349.308262 -35.725918 
L 347.676832 -35.749247 
L 346.045402 -35.775046 
L 344.413972 -35.800558 
L 342.782542 -35.822679 
L 341.151113 -35.839078 
L 339.519683 -35.849476 
L 337.888253 -35.856642 
L 336.256823 -35.866689 
L 334.625393 -35.888388 
L 332.993963 -35.931551 
L 331.362533 -36.00485 
L 329.731103 -36.113753 
L 328.099673 -36.259373 
L 326.468244 -36.438873 
L 324.836814 -36.647474 
L 323.205384 -36.881305 
L 321.573954 -37.139634 
L 319.942524 -37.425013 
L 318.311094 -37.74081 
L 316.679664 -38.087042 
L 315.048234 -38.45657 
L 313.416805 -38.833807 
L 311.785375 -39.196921 
L 310.153945 -39.522962 
L 308.522515 -39.794232 
L 306.891085 -40.004088 
L 305.259655 -40.160836 
L 303.628225 -40.28894 
L 301.996795 -40.42699 
L 300.365366 -40.62237 
L 298.733936 -40.923412 
L 297.102506 -41.37103 
L 295.471076 -41.992341 
L 293.839646 -42.797963 
L 292.208216 -43.782665 
L 290.576786 -44.927225 
L 288.945356 -46.1993 
L 287.313927 -47.553201 
L 285.682497 -48.931425 
L 284.051067 -50.272104 
L 282.419637 -51.524468 
L 280.788207 -52.669419 
L 279.156777 -53.737333 
L 277.525347 -54.813874 
L 275.893917 -56.028619 
L 274.262488 -57.52909 
L 272.631058 -59.44978 
L 270.999628 -61.887715 
L 269.368198 -64.891523 
L 267.736768 -68.463087 
L 266.105338 -72.564597 
L 264.473908 -77.123533 
L 262.842478 -82.033521 
L 261.211049 -87.155944 
L 259.579619 -92.330274 
L 257.948189 -97.397483 
L 256.316759 -102.232675 
L 254.685329 -106.775438 
L 253.053899 -111.044618 
L 251.422469 -115.130041 
L 249.791039 -119.16422 
L 248.15961 -123.286568 
L 246.52818 -127.615463 
L 244.89675 -132.23789 
L 243.26532 -137.215392 
L 241.63389 -142.595407 
L 240.00246 -148.414766 
L 238.37103 -154.688661 
L 236.7396 -161.389381 
L 235.108171 -168.427411 
L 233.476741 -175.648035 
L 231.845311 -182.849532 
L 230.213881 -189.819236 
L 228.582451 -196.376601 
L 226.951021 -202.41067 
L 225.319591 -207.902072 
L 223.688161 -212.924134 
L 222.056732 -217.622217 
L 220.425302 -222.174721 
L 218.793872 -226.744012 
L 217.162442 -231.430084 
L 215.531012 -236.241628 
L 213.899582 -241.095476 
L 212.268152 -245.845761 
L 210.636722 -250.331942 
L 209.005293 -254.426787 
L 207.373863 -258.06665 
L 205.742433 -261.256793 
L 204.111003 -264.057721 
L 202.479573 -266.565694 
L 200.848143 -268.8973 
L 199.216713 -271.177618 
L 197.585283 -273.523306 
L 195.953853 -276.013748 
L 194.322424 -278.655026 
L 192.690994 -281.354372 
L 191.059564 -283.9259 
L 189.428134 -286.136889 
L 187.796704 -287.782826 
L 186.165274 -288.761099 
L 184.533844 -289.108906 
L 182.902414 -288.984225 
L 181.270985 -288.593546 
L 179.639555 -288.09471 
L 178.008125 -287.516157 
L 176.376695 -286.728863 
L 174.745265 -285.485649 
L 173.113835 -283.51329 
L 171.482405 -280.618827 
L 169.850975 -276.764668 
L 168.219546 -272.081319 
L 166.588116 -266.815392 
L 164.956686 -261.239291 
L 163.325256 -255.563264 
L 161.693826 -249.884587 
L 160.062396 -244.187991 
L 158.430966 -238.388329 
L 156.799536 -232.392025 
L 155.168107 -226.15211 
L 153.536677 -219.69941 
L 151.905247 -213.143496 
L 150.273817 -206.646638 
L 148.642387 -200.380552 
L 147.010957 -194.479439 
L 145.379527 -189.003493 
L 143.748097 -183.923885 
L 142.116668 -179.133124 
L 140.485238 -174.475672 
L 138.853808 -169.786619 
L 137.222378 -164.924664 
L 135.590948 -159.790506 
L 133.959518 -154.330257 
L 132.328088 -148.530836 
L 130.696658 -142.41621 
L 129.065229 -136.048938 
L 127.433799 -129.533959 
L 125.802369 -123.016264 
L 124.170939 -116.665109 
L 122.539509 -110.644526 
L 120.908079 -105.078627 
L 119.276649 -100.025006 
L 117.645219 -95.467314 
L 116.01379 -91.330131 
L 114.38236 -87.50994 
L 112.75093 -83.909965 
L 111.1195 -80.466108 
L 109.48807 -77.155932 
L 107.85664 -73.990163 
L 106.22521 -70.993173 
L 104.59378 -68.182636 
L 102.962351 -65.557414 
L 101.330921 -63.097701 
L 99.699491 -60.775157 
L 98.068061 -58.566299 
L 96.436631 -56.461888 
L 94.805201 -54.468184 
L 93.173771 -52.600597 
L 91.542341 -50.874007 
L 89.910912 -49.294977 
L 88.279482 -47.859297 
L 86.648052 -46.555078 
L 85.016622 -45.368845 
L 83.385192 -44.290983 
L 81.753762 -43.317843 
L 80.122332 -42.449916 
L 78.490902 -41.687548 
L 76.859472 -41.026752 
L 75.228043 -40.457309 
L 73.596613 -39.964018 
L 71.965183 -39.530275 
L 70.333753 -39.142051 
L 68.702323 -38.790281 
L 67.070893 -38.470651 
L 65.439463 -38.181215 
L 63.808033 -37.919401 
L 62.176604 -37.680142 
L 60.545174 -37.456091 
L 58.913744 -37.239639 
L 57.282314 -37.025547 
L 55.650884 -36.812793 
L 54.019454 -36.604818 
L 52.388024 -36.40819 
L 50.756594 -36.230386 
L 49.125165 -36.077592 
L 47.493735 -35.953247 
L 45.862305 -35.857589 
L 44.230875 -35.788098 
L 42.599445 -35.74046 
L 40.968015 -35.709664 
L 39.336585 -35.690902 
L 37.705155 -35.680137 
L 36.073726 -35.674325 
L 34.442296 -35.671374 
z
" style="stroke: #f92672; stroke-width: 1.5"/>
    </defs>
    <g clip-path="url(#p5da2852998)">
     <use xlink:href="#m8c6916ae70" x="0" y="328.658094" style="fill: #f92672; fill-opacity: 0.25; stroke: #f92672; stroke-width: 1.5"/>
    </g>
   </g>
   <g id="matplotlib.axis_1">
    <g id="xtick_1">
     <g id="line2d_1">
      <defs>
       <path id="mf17b32d521" d="M 0 0 
L 0 9 
" style="stroke: #666666; stroke-opacity: 0.015686; stroke-width: 1.875"/>
      </defs>
      <g>
       <use xlink:href="#mf17b32d521" x="19.362305" y="292.989187" style="fill: #666666; fill-opacity: 0.015686; stroke: #666666; stroke-opacity: 0.015686; stroke-width: 1.875"/>
      </g>
     </g>
     <g id="text_1">
      <!-- −3 -->
      <g style="fill: #666666" transform="translate(7.2 318.026609)scale(0.165 -0.165)">
       <defs>
        <path id="DejaVuSans-2212" d="M 678 2272 
L 4684 2272 
L 4684 1741 
L 678 1741 
L 678 2272 
z
" transform="scale(0.015625)"/>
        <path id="DejaVuSans-33" d="M 2597 2516 
Q 3050 2419 3304 2112 
Q 3559 1806 3559 1356 
Q 3559 666 3084 287 
Q 2609 -91 1734 -91 
Q 1441 -91 1130 -33 
Q 819 25 488 141 
L 488 750 
Q 750 597 1062 519 
Q 1375 441 1716 441 
Q 2309 441 2620 675 
Q 2931 909 2931 1356 
Q 2931 1769 2642 2001 
Q 2353 2234 1838 2234 
L 1294 2234 
L 1294 2753 
L 1863 2753 
Q 2328 2753 2575 2939 
Q 2822 3125 2822 3475 
Q 2822 3834 2567 4026 
Q 2313 4219 1838 4219 
Q 1578 4219 1281 4162 
Q 984 4106 628 3988 
L 628 4550 
Q 988 4650 1302 4700 
Q 1616 4750 1894 4750 
Q 2613 4750 3031 4423 
Q 3450 4097 3450 3541 
Q 3450 3153 3228 2886 
Q 3006 2619 2597 2516 
z
" transform="scale(0.015625)"/>
       </defs>
       <use xlink:href="#DejaVuSans-2212"/>
       <use xlink:href="#DejaVuSans-33" x="83.789062"/>
      </g>
     </g>
    </g>
    <g id="xtick_2">
     <g id="line2d_2">
      <g>
       <use xlink:href="#mf17b32d521" x="75.006439" y="292.989187" style="fill: #666666; fill-opacity: 0.015686; stroke: #666666; stroke-opacity: 0.015686; stroke-width: 1.875"/>
      </g>
     </g>
     <g id="text_2">
      <!-- −2 -->
      <g style="fill: #666666" transform="translate(62.844134 318.026609)scale(0.165 -0.165)">
       <defs>
        <path id="DejaVuSans-32" d="M 1228 531 
L 3431 531 
L 3431 0 
L 469 0 
L 469 531 
Q 828 903 1448 1529 
Q 2069 2156 2228 2338 
Q 2531 2678 2651 2914 
Q 2772 3150 2772 3378 
Q 2772 3750 2511 3984 
Q 2250 4219 1831 4219 
Q 1534 4219 1204 4116 
Q 875 4013 500 3803 
L 500 4441 
Q 881 4594 1212 4672 
Q 1544 4750 1819 4750 
Q 2544 4750 2975 4387 
Q 3406 4025 3406 3419 
Q 3406 3131 3298 2873 
Q 3191 2616 2906 2266 
Q 2828 2175 2409 1742 
Q 1991 1309 1228 531 
z
" transform="scale(0.015625)"/>
       </defs>
       <use xlink:href="#DejaVuSans-2212"/>
       <use xlink:href="#DejaVuSans-32" x="83.789062"/>
      </g>
     </g>
    </g>
    <g id="xtick_3">
     <g id="line2d_3">
      <g>
       <use xlink:href="#mf17b32d521" x="130.650573" y="292.989187" style="fill: #666666; fill-opacity: 0.015686; stroke: #666666; stroke-opacity: 0.015686; stroke-width: 1.875"/>
      </g>
     </g>
     <g id="text_3">
      <!-- −1 -->
      <g style="fill: #666666" transform="translate(118.488269 318.026609)scale(0.165 -0.165)">
       <defs>
        <path id="DejaVuSans-31" d="M 794 531 
L 1825 531 
L 1825 4091 
L 703 3866 
L 703 4441 
L 1819 4666 
L 2450 4666 
L 2450 531 
L 3481 531 
L 3481 0 
L 794 0 
L 794 531 
z
" transform="scale(0.015625)"/>
       </defs>
       <use xlink:href="#DejaVuSans-2212"/>
       <use xlink:href="#DejaVuSans-31" x="83.789062"/>
      </g>
     </g>
    </g>
    <g id="xtick_4">
     <g id="line2d_4">
      <g>
       <use xlink:href="#mf17b32d521" x="186.294708" y="292.989187" style="fill: #666666; fill-opacity: 0.015686; stroke: #666666; stroke-opacity: 0.015686; stroke-width: 1.875"/>
      </g>
     </g>
     <g id="text_4">
      <!-- 0 -->
      <g style="fill: #666666" transform="translate(181.045645 318.026609)scale(0.165 -0.165)">
       <defs>
        <path id="DejaVuSans-30" d="M 2034 4250 
Q 1547 4250 1301 3770 
Q 1056 3291 1056 2328 
Q 1056 1369 1301 889 
Q 1547 409 2034 409 
Q 2525 409 2770 889 
Q 3016 1369 3016 2328 
Q 3016 3291 2770 3770 
Q 2525 4250 2034 4250 
z
M 2034 4750 
Q 2819 4750 3233 4129 
Q 3647 3509 3647 2328 
Q 3647 1150 3233 529 
Q 2819 -91 2034 -91 
Q 1250 -91 836 529 
Q 422 1150 422 2328 
Q 422 3509 836 4129 
Q 1250 4750 2034 4750 
z
" transform="scale(0.015625)"/>
       </defs>
       <use xlink:href="#DejaVuSans-30"/>
      </g>
     </g>
    </g>
    <g id="xtick_5">
     <g id="line2d_5">
      <g>
       <use xlink:href="#mf17b32d521" x="241.938842" y="292.989187" style="fill: #666666; fill-opacity: 0.015686; stroke: #666666; stroke-opacity: 0.015686; stroke-width: 1.875"/>
      </g>
     </g>
     <g id="text_5">
      <!-- 1 -->
      <g style="fill: #666666" transform="translate(236.68978 318.026609)scale(0.165 -0.165)">
       <use xlink:href="#DejaVuSans-31"/>
      </g>
     </g>
    </g>
    <g id="xtick_6">
     <g id="line2d_6">
      <g>
       <use xlink:href="#mf17b32d521" x="297.582976" y="292.989187" style="fill: #666666; fill-opacity: 0.015686; stroke: #666666; stroke-opacity: 0.015686; stroke-width: 1.875"/>
      </g>
     </g>
     <g id="text_6">
      <!-- 2 -->
      <g style="fill: #666666" transform="translate(292.333914 318.026609)scale(0.165 -0.165)">
       <use xlink:href="#DejaVuSans-32"/>
      </g>
     </g>
    </g>
    <g id="xtick_7">
     <g id="line2d_7">
      <g>
       <use xlink:href="#mf17b32d521" x="353.227111" y="292.989187" style="fill: #666666; fill-opacity: 0.015686; stroke: #666666; stroke-opacity: 0.015686; stroke-width: 1.875"/>
      </g>
     </g>
     <g id="text_7">
      <!-- 3 -->
      <g style="fill: #666666" transform="translate(347.978048 318.026609)scale(0.165 -0.165)">
       <use xlink:href="#DejaVuSans-33"/>
      </g>
     </g>
    </g>
   </g>
   <g id="matplotlib.axis_2"/>
   <g id="patch_3">
    <path d="M 18.209568 292.989187 
L 18.209568 26.877187 
" style="fill: none"/>
   </g>
   <g id="patch_4">
    <path d="M 375.329568 292.989187 
L 375.329568 26.877187 
" style="fill: none"/>
   </g>
   <g id="patch_5">
    <path d="M 18.209568 292.989187 
L 375.329568 292.989187 
" style="fill: none"/>
   </g>
   <g id="patch_6">
    <path d="M 18.209568 26.877187 
L 375.329568 26.877187 
" style="fill: none"/>
   </g>
   <g id="text_8">
    <!-- $N = $10000 -->
    <g style="fill: #666666" transform="translate(150.329568 20.877187)scale(0.18 -0.18)">
     <defs>
      <path id="DejaVuSans-Oblique-4e" d="M 1081 4666 
L 1931 4666 
L 3219 666 
L 4000 4666 
L 4616 4666 
L 3706 0 
L 2853 0 
L 1569 4025 
L 788 0 
L 172 0 
L 1081 4666 
z
" transform="scale(0.015625)"/>
      <path id="DejaVuSans-3d" d="M 678 2906 
L 4684 2906 
L 4684 2381 
L 678 2381 
L 678 2906 
z
M 678 1631 
L 4684 1631 
L 4684 1100 
L 678 1100 
L 678 1631 
z
" transform="scale(0.015625)"/>
     </defs>
     <use xlink:href="#DejaVuSans-Oblique-4e" transform="translate(0 0.78125)"/>
     <use xlink:href="#DejaVuSans-3d" transform="translate(94.287109 0.78125)"/>
     <use xlink:href="#DejaVuSans-31" transform="translate(197.558594 0.78125)"/>
     <use xlink:href="#DejaVuSans-30" transform="translate(261.181641 0.78125)"/>
     <use xlink:href="#DejaVuSans-30" transform="translate(324.804688 0.78125)"/>
     <use xlink:href="#DejaVuSans-30" transform="translate(388.427734 0.78125)"/>
     <use xlink:href="#DejaVuSans-30" transform="translate(452.050781 0.78125)"/>
    </g>
   </g>
  </g>
 </g>
 <defs>
  <clipPath id="p5da2852998">
   <rect x="18.209568" y="26.877187" width="357.12" height="266.112"/>
  </clipPath>
 </defs>
</svg>
