<?xml version="1.0" encoding="utf-8" standalone="no"?>
<!DOCTYPE svg PUBLIC "-//W3C//DTD SVG 1.1//EN"
  "http://www.w3.org/Graphics/SVG/1.1/DTD/svg11.dtd">
<svg xmlns:xlink="http://www.w3.org/1999/xlink" width="436.935pt" height="328.658094pt" viewBox="0 0 436.935 328.658094" xmlns="http://www.w3.org/2000/svg" version="1.1">
 <metadata>
  <rdf:RDF xmlns:dc="http://purl.org/dc/elements/1.1/" xmlns:cc="http://creativecommons.org/ns#" xmlns:rdf="http://www.w3.org/1999/02/22-rdf-syntax-ns#">
   <cc:Work>
    <dc:type rdf:resource="http://purl.org/dc/dcmitype/StillImage"/>
    <dc:date>2022-03-19T20:46:31.123902</dc:date>
    <dc:format>image/svg+xml</dc:format>
    <dc:creator>
     <cc:Agent>
      <dc:title>Matplotlib v3.5.1, https://matplotlib.org/</dc:title>
     </cc:Agent>
    </dc:creator>
   </cc:Work>
  </rdf:RDF>
 </metadata>
 <defs>
  <style type="text/css">*{stroke-linejoin: round; stroke-linecap: butt}</style>
 </defs>
 <g id="figure_1">
  <g id="patch_1">
   <path d="M 0 328.658094 
L 436.935 328.658094 
L 436.935 0 
L 0 0 
L 0 328.658094 
z
" style="fill: none"/>
  </g>
  <g id="axes_1">
   <g id="patch_2">
    <path d="M 72.615 292.989187 
L 429.735 292.989187 
L 429.735 26.877187 
L 72.615 26.877187 
L 72.615 292.989187 
z
" style="fill: none"/>
   </g>
   <g id="patch_3">
    <path d="M 88.847727 292.989187 
L 101.833909 292.989187 
L 101.833909 290.598244 
L 88.847727 290.598244 
z
" clip-path="url(#p4f3dafb752)" style="fill: #63ff5b; fill-opacity: 0.75; stroke: #000000; stroke-width: 1.298618; stroke-linejoin: miter"/>
   </g>
   <g id="patch_4">
    <path d="M 101.833909 292.989187 
L 114.820091 292.989187 
L 114.820091 292.989187 
L 101.833909 292.989187 
z
" clip-path="url(#p4f3dafb752)" style="fill: #63ff5b; fill-opacity: 0.75; stroke: #000000; stroke-width: 1.298618; stroke-linejoin: miter"/>
   </g>
   <g id="patch_5">
    <path d="M 114.820091 292.989187 
L 127.806273 292.989187 
L 127.806273 292.989187 
L 114.820091 292.989187 
z
" clip-path="url(#p4f3dafb752)" style="fill: #63ff5b; fill-opacity: 0.75; stroke: #000000; stroke-width: 1.298618; stroke-linejoin: miter"/>
   </g>
   <g id="patch_6">
    <path d="M 127.806273 292.989187 
L 140.792455 292.989187 
L 140.792455 290.598244 
L 127.806273 290.598244 
z
" clip-path="url(#p4f3dafb752)" style="fill: #63ff5b; fill-opacity: 0.75; stroke: #000000; stroke-width: 1.298618; stroke-linejoin: miter"/>
   </g>
   <g id="patch_7">
    <path d="M 140.792455 292.989187 
L 153.778636 292.989187 
L 153.778636 283.425414 
L 140.792455 283.425414 
z
" clip-path="url(#p4f3dafb752)" style="fill: #63ff5b; fill-opacity: 0.75; stroke: #000000; stroke-width: 1.298618; stroke-linejoin: miter"/>
   </g>
   <g id="patch_8">
    <path d="M 153.778636 292.989187 
L 166.764818 292.989187 
L 166.764818 288.207301 
L 153.778636 288.207301 
z
" clip-path="url(#p4f3dafb752)" style="fill: #63ff5b; fill-opacity: 0.75; stroke: #000000; stroke-width: 1.298618; stroke-linejoin: miter"/>
   </g>
   <g id="patch_9">
    <path d="M 166.764818 292.989187 
L 179.751 292.989187 
L 179.751 259.51598 
L 166.764818 259.51598 
z
" clip-path="url(#p4f3dafb752)" style="fill: #63ff5b; fill-opacity: 0.75; stroke: #000000; stroke-width: 1.298618; stroke-linejoin: miter"/>
   </g>
   <g id="patch_10">
    <path d="M 179.751 292.989187 
L 192.737182 292.989187 
L 192.737182 252.34315 
L 179.751 252.34315 
z
" clip-path="url(#p4f3dafb752)" style="fill: #63ff5b; fill-opacity: 0.75; stroke: #000000; stroke-width: 1.298618; stroke-linejoin: miter"/>
   </g>
   <g id="patch_11">
    <path d="M 192.737182 292.989187 
L 205.723364 292.989187 
L 205.723364 259.51598 
L 192.737182 259.51598 
z
" clip-path="url(#p4f3dafb752)" style="fill: #63ff5b; fill-opacity: 0.75; stroke: #000000; stroke-width: 1.298618; stroke-linejoin: miter"/>
   </g>
   <g id="patch_12">
    <path d="M 205.723364 292.989187 
L 218.709545 292.989187 
L 218.709545 226.042772 
L 205.723364 226.042772 
z
" clip-path="url(#p4f3dafb752)" style="fill: #63ff5b; fill-opacity: 0.75; stroke: #000000; stroke-width: 1.298618; stroke-linejoin: miter"/>
   </g>
   <g id="patch_13">
    <path d="M 218.709545 292.989187 
L 231.695727 292.989187 
L 231.695727 125.62315 
L 218.709545 125.62315 
z
" clip-path="url(#p4f3dafb752)" style="fill: #63ff5b; fill-opacity: 0.75; stroke: #000000; stroke-width: 1.298618; stroke-linejoin: miter"/>
   </g>
   <g id="patch_14">
    <path d="M 231.695727 292.989187 
L 244.681909 292.989187 
L 244.681909 104.104659 
L 231.695727 104.104659 
z
" clip-path="url(#p4f3dafb752)" style="fill: #63ff5b; fill-opacity: 0.75; stroke: #000000; stroke-width: 1.298618; stroke-linejoin: miter"/>
   </g>
   <g id="patch_15">
    <path d="M 244.681909 292.989187 
L 257.668091 292.989187 
L 257.668091 63.458621 
L 244.681909 63.458621 
z
" clip-path="url(#p4f3dafb752)" style="fill: #63ff5b; fill-opacity: 0.75; stroke: #000000; stroke-width: 1.298618; stroke-linejoin: miter"/>
   </g>
   <g id="patch_16">
    <path d="M 257.668091 292.989187 
L 270.654273 292.989187 
L 270.654273 39.549187 
L 257.668091 39.549187 
z
" clip-path="url(#p4f3dafb752)" style="fill: #63ff5b; fill-opacity: 0.75; stroke: #000000; stroke-width: 1.298618; stroke-linejoin: miter"/>
   </g>
   <g id="patch_17">
    <path d="M 270.654273 292.989187 
L 283.640455 292.989187 
L 283.640455 41.940131 
L 270.654273 41.940131 
z
" clip-path="url(#p4f3dafb752)" style="fill: #63ff5b; fill-opacity: 0.75; stroke: #000000; stroke-width: 1.298618; stroke-linejoin: miter"/>
   </g>
   <g id="patch_18">
    <path d="M 283.640455 292.989187 
L 296.626636 292.989187 
L 296.626636 101.713716 
L 283.640455 101.713716 
z
" clip-path="url(#p4f3dafb752)" style="fill: #63ff5b; fill-opacity: 0.75; stroke: #000000; stroke-width: 1.298618; stroke-linejoin: miter"/>
   </g>
   <g id="patch_19">
    <path d="M 296.626636 292.989187 
L 309.612818 292.989187 
L 309.612818 41.940131 
L 296.626636 41.940131 
z
" clip-path="url(#p4f3dafb752)" style="fill: #63ff5b; fill-opacity: 0.75; stroke: #000000; stroke-width: 1.298618; stroke-linejoin: miter"/>
   </g>
   <g id="patch_20">
    <path d="M 309.612818 292.989187 
L 322.599 292.989187 
L 322.599 96.931829 
L 309.612818 96.931829 
z
" clip-path="url(#p4f3dafb752)" style="fill: #63ff5b; fill-opacity: 0.75; stroke: #000000; stroke-width: 1.298618; stroke-linejoin: miter"/>
   </g>
   <g id="patch_21">
    <path d="M 322.599 292.989187 
L 335.585182 292.989187 
L 335.585182 118.45032 
L 322.599 118.45032 
z
" clip-path="url(#p4f3dafb752)" style="fill: #63ff5b; fill-opacity: 0.75; stroke: #000000; stroke-width: 1.298618; stroke-linejoin: miter"/>
   </g>
   <g id="patch_22">
    <path d="M 335.585182 292.989187 
L 348.571364 292.989187 
L 348.571364 163.878244 
L 335.585182 163.878244 
z
" clip-path="url(#p4f3dafb752)" style="fill: #63ff5b; fill-opacity: 0.75; stroke: #000000; stroke-width: 1.298618; stroke-linejoin: miter"/>
   </g>
   <g id="patch_23">
    <path d="M 348.571364 292.989187 
L 361.557545 292.989187 
L 361.557545 226.042772 
L 348.571364 226.042772 
z
" clip-path="url(#p4f3dafb752)" style="fill: #63ff5b; fill-opacity: 0.75; stroke: #000000; stroke-width: 1.298618; stroke-linejoin: miter"/>
   </g>
   <g id="patch_24">
    <path d="M 361.557545 292.989187 
L 374.543727 292.989187 
L 374.543727 240.388433 
L 361.557545 240.388433 
z
" clip-path="url(#p4f3dafb752)" style="fill: #63ff5b; fill-opacity: 0.75; stroke: #000000; stroke-width: 1.298618; stroke-linejoin: miter"/>
   </g>
   <g id="patch_25">
    <path d="M 374.543727 292.989187 
L 387.529909 292.989187 
L 387.529909 273.86164 
L 374.543727 273.86164 
z
" clip-path="url(#p4f3dafb752)" style="fill: #63ff5b; fill-opacity: 0.75; stroke: #000000; stroke-width: 1.298618; stroke-linejoin: miter"/>
   </g>
   <g id="patch_26">
    <path d="M 387.529909 292.989187 
L 400.516091 292.989187 
L 400.516091 269.079754 
L 387.529909 269.079754 
z
" clip-path="url(#p4f3dafb752)" style="fill: #63ff5b; fill-opacity: 0.75; stroke: #000000; stroke-width: 1.298618; stroke-linejoin: miter"/>
   </g>
   <g id="patch_27">
    <path d="M 400.516091 292.989187 
L 413.502273 292.989187 
L 413.502273 290.598244 
L 400.516091 290.598244 
z
" clip-path="url(#p4f3dafb752)" style="fill: #63ff5b; fill-opacity: 0.75; stroke: #000000; stroke-width: 1.298618; stroke-linejoin: miter"/>
   </g>
   <g id="matplotlib.axis_1">
    <g id="xtick_1">
     <g id="line2d_1">
      <defs>
       <path id="m03dd4f33a2" d="M 0 0 
L 0 9 
" style="stroke: #666666; stroke-opacity: 0.015686; stroke-width: 1.875"/>
      </defs>
      <g>
       <use xlink:href="#m03dd4f33a2" x="80.11235" y="292.989187" style="fill: #666666; fill-opacity: 0.015686; stroke: #666666; stroke-opacity: 0.015686; stroke-width: 1.875"/>
      </g>
     </g>
     <g id="text_1">
      <!-- −4 -->
      <g style="fill: #666666" transform="translate(67.950046 318.026609)scale(0.165 -0.165)">
       <defs>
        <path id="DejaVuSans-2212" d="M 678 2272 
L 4684 2272 
L 4684 1741 
L 678 1741 
L 678 2272 
z
" transform="scale(0.015625)"/>
        <path id="DejaVuSans-34" d="M 2419 4116 
L 825 1625 
L 2419 1625 
L 2419 4116 
z
M 2253 4666 
L 3047 4666 
L 3047 1625 
L 3713 1625 
L 3713 1100 
L 3047 1100 
L 3047 0 
L 2419 0 
L 2419 1100 
L 313 1100 
L 313 1709 
L 2253 4666 
z
" transform="scale(0.015625)"/>
       </defs>
       <use xlink:href="#DejaVuSans-2212"/>
       <use xlink:href="#DejaVuSans-34" x="83.789062"/>
      </g>
     </g>
    </g>
    <g id="xtick_2">
     <g id="line2d_2">
      <g>
       <use xlink:href="#m03dd4f33a2" x="179.024603" y="292.989187" style="fill: #666666; fill-opacity: 0.015686; stroke: #666666; stroke-opacity: 0.015686; stroke-width: 1.875"/>
      </g>
     </g>
     <g id="text_2">
      <!-- −2 -->
      <g style="fill: #666666" transform="translate(166.862299 318.026609)scale(0.165 -0.165)">
       <defs>
        <path id="DejaVuSans-32" d="M 1228 531 
L 3431 531 
L 3431 0 
L 469 0 
L 469 531 
Q 828 903 1448 1529 
Q 2069 2156 2228 2338 
Q 2531 2678 2651 2914 
Q 2772 3150 2772 3378 
Q 2772 3750 2511 3984 
Q 2250 4219 1831 4219 
Q 1534 4219 1204 4116 
Q 875 4013 500 3803 
L 500 4441 
Q 881 4594 1212 4672 
Q 1544 4750 1819 4750 
Q 2544 4750 2975 4387 
Q 3406 4025 3406 3419 
Q 3406 3131 3298 2873 
Q 3191 2616 2906 2266 
Q 2828 2175 2409 1742 
Q 1991 1309 1228 531 
z
" transform="scale(0.015625)"/>
       </defs>
       <use xlink:href="#DejaVuSans-2212"/>
       <use xlink:href="#DejaVuSans-32" x="83.789062"/>
      </g>
     </g>
    </g>
    <g id="xtick_3">
     <g id="line2d_3">
      <g>
       <use xlink:href="#m03dd4f33a2" x="277.936856" y="292.989187" style="fill: #666666; fill-opacity: 0.015686; stroke: #666666; stroke-opacity: 0.015686; stroke-width: 1.875"/>
      </g>
     </g>
     <g id="text_3">
      <!-- 0 -->
      <g style="fill: #666666" transform="translate(272.687794 318.026609)scale(0.165 -0.165)">
       <defs>
        <path id="DejaVuSans-30" d="M 2034 4250 
Q 1547 4250 1301 3770 
Q 1056 3291 1056 2328 
Q 1056 1369 1301 889 
Q 1547 409 2034 409 
Q 2525 409 2770 889 
Q 3016 1369 3016 2328 
Q 3016 3291 2770 3770 
Q 2525 4250 2034 4250 
z
M 2034 4750 
Q 2819 4750 3233 4129 
Q 3647 3509 3647 2328 
Q 3647 1150 3233 529 
Q 2819 -91 2034 -91 
Q 1250 -91 836 529 
Q 422 1150 422 2328 
Q 422 3509 836 4129 
Q 1250 4750 2034 4750 
z
" transform="scale(0.015625)"/>
       </defs>
       <use xlink:href="#DejaVuSans-30"/>
      </g>
     </g>
    </g>
    <g id="xtick_4">
     <g id="line2d_4">
      <g>
       <use xlink:href="#m03dd4f33a2" x="376.849109" y="292.989187" style="fill: #666666; fill-opacity: 0.015686; stroke: #666666; stroke-opacity: 0.015686; stroke-width: 1.875"/>
      </g>
     </g>
     <g id="text_4">
      <!-- 2 -->
      <g style="fill: #666666" transform="translate(371.600047 318.026609)scale(0.165 -0.165)">
       <use xlink:href="#DejaVuSans-32"/>
      </g>
     </g>
    </g>
   </g>
   <g id="matplotlib.axis_2">
    <g id="ytick_1">
     <g id="line2d_5">
      <defs>
       <path id="me851269a02" d="M 0 0 
L -9 0 
" style="stroke: #666666; stroke-opacity: 0.015686; stroke-width: 1.875"/>
      </defs>
      <g>
       <use xlink:href="#me851269a02" x="72.615" y="292.989187" style="fill: #666666; fill-opacity: 0.015686; stroke: #666666; stroke-opacity: 0.015686; stroke-width: 1.875"/>
      </g>
     </g>
     <g id="text_5">
      <!-- 0 -->
      <g style="fill: #666666" transform="translate(49.616875 299.257898)scale(0.165 -0.165)">
       <use xlink:href="#DejaVuSans-30"/>
      </g>
     </g>
    </g>
    <g id="ytick_2">
     <g id="line2d_6">
      <g>
       <use xlink:href="#me851269a02" x="72.615" y="245.17032" style="fill: #666666; fill-opacity: 0.015686; stroke: #666666; stroke-opacity: 0.015686; stroke-width: 1.875"/>
      </g>
     </g>
     <g id="text_6">
      <!-- 20 -->
      <g style="fill: #666666" transform="translate(39.11875 251.439031)scale(0.165 -0.165)">
       <use xlink:href="#DejaVuSans-32"/>
       <use xlink:href="#DejaVuSans-30" x="63.623047"/>
      </g>
     </g>
    </g>
    <g id="ytick_3">
     <g id="line2d_7">
      <g>
       <use xlink:href="#me851269a02" x="72.615" y="197.351452" style="fill: #666666; fill-opacity: 0.015686; stroke: #666666; stroke-opacity: 0.015686; stroke-width: 1.875"/>
      </g>
     </g>
     <g id="text_7">
      <!-- 40 -->
      <g style="fill: #666666" transform="translate(39.11875 203.620163)scale(0.165 -0.165)">
       <use xlink:href="#DejaVuSans-34"/>
       <use xlink:href="#DejaVuSans-30" x="63.623047"/>
      </g>
     </g>
    </g>
    <g id="ytick_4">
     <g id="line2d_8">
      <g>
       <use xlink:href="#me851269a02" x="72.615" y="149.532584" style="fill: #666666; fill-opacity: 0.015686; stroke: #666666; stroke-opacity: 0.015686; stroke-width: 1.875"/>
      </g>
     </g>
     <g id="text_8">
      <!-- 60 -->
      <g style="fill: #666666" transform="translate(39.11875 155.801295)scale(0.165 -0.165)">
       <defs>
        <path id="DejaVuSans-36" d="M 2113 2584 
Q 1688 2584 1439 2293 
Q 1191 2003 1191 1497 
Q 1191 994 1439 701 
Q 1688 409 2113 409 
Q 2538 409 2786 701 
Q 3034 994 3034 1497 
Q 3034 2003 2786 2293 
Q 2538 2584 2113 2584 
z
M 3366 4563 
L 3366 3988 
Q 3128 4100 2886 4159 
Q 2644 4219 2406 4219 
Q 1781 4219 1451 3797 
Q 1122 3375 1075 2522 
Q 1259 2794 1537 2939 
Q 1816 3084 2150 3084 
Q 2853 3084 3261 2657 
Q 3669 2231 3669 1497 
Q 3669 778 3244 343 
Q 2819 -91 2113 -91 
Q 1303 -91 875 529 
Q 447 1150 447 2328 
Q 447 3434 972 4092 
Q 1497 4750 2381 4750 
Q 2619 4750 2861 4703 
Q 3103 4656 3366 4563 
z
" transform="scale(0.015625)"/>
       </defs>
       <use xlink:href="#DejaVuSans-36"/>
       <use xlink:href="#DejaVuSans-30" x="63.623047"/>
      </g>
     </g>
    </g>
    <g id="ytick_5">
     <g id="line2d_9">
      <g>
       <use xlink:href="#me851269a02" x="72.615" y="101.713716" style="fill: #666666; fill-opacity: 0.015686; stroke: #666666; stroke-opacity: 0.015686; stroke-width: 1.875"/>
      </g>
     </g>
     <g id="text_9">
      <!-- 80 -->
      <g style="fill: #666666" transform="translate(39.11875 107.982427)scale(0.165 -0.165)">
       <defs>
        <path id="DejaVuSans-38" d="M 2034 2216 
Q 1584 2216 1326 1975 
Q 1069 1734 1069 1313 
Q 1069 891 1326 650 
Q 1584 409 2034 409 
Q 2484 409 2743 651 
Q 3003 894 3003 1313 
Q 3003 1734 2745 1975 
Q 2488 2216 2034 2216 
z
M 1403 2484 
Q 997 2584 770 2862 
Q 544 3141 544 3541 
Q 544 4100 942 4425 
Q 1341 4750 2034 4750 
Q 2731 4750 3128 4425 
Q 3525 4100 3525 3541 
Q 3525 3141 3298 2862 
Q 3072 2584 2669 2484 
Q 3125 2378 3379 2068 
Q 3634 1759 3634 1313 
Q 3634 634 3220 271 
Q 2806 -91 2034 -91 
Q 1263 -91 848 271 
Q 434 634 434 1313 
Q 434 1759 690 2068 
Q 947 2378 1403 2484 
z
M 1172 3481 
Q 1172 3119 1398 2916 
Q 1625 2713 2034 2713 
Q 2441 2713 2670 2916 
Q 2900 3119 2900 3481 
Q 2900 3844 2670 4047 
Q 2441 4250 2034 4250 
Q 1625 4250 1398 4047 
Q 1172 3844 1172 3481 
z
" transform="scale(0.015625)"/>
       </defs>
       <use xlink:href="#DejaVuSans-38"/>
       <use xlink:href="#DejaVuSans-30" x="63.623047"/>
      </g>
     </g>
    </g>
    <g id="ytick_6">
     <g id="line2d_10">
      <g>
       <use xlink:href="#me851269a02" x="72.615" y="53.894848" style="fill: #666666; fill-opacity: 0.015686; stroke: #666666; stroke-opacity: 0.015686; stroke-width: 1.875"/>
      </g>
     </g>
     <g id="text_10">
      <!-- 100 -->
      <g style="fill: #666666" transform="translate(28.620625 60.163559)scale(0.165 -0.165)">
       <defs>
        <path id="DejaVuSans-31" d="M 794 531 
L 1825 531 
L 1825 4091 
L 703 3866 
L 703 4441 
L 1819 4666 
L 2450 4666 
L 2450 531 
L 3481 531 
L 3481 0 
L 794 0 
L 794 531 
z
" transform="scale(0.015625)"/>
       </defs>
       <use xlink:href="#DejaVuSans-31"/>
       <use xlink:href="#DejaVuSans-30" x="63.623047"/>
       <use xlink:href="#DejaVuSans-30" x="127.246094"/>
      </g>
     </g>
    </g>
    <g id="text_11">
     <!-- Count -->
     <g style="fill: #666666" transform="translate(20.877187 186.660375)rotate(-90)scale(0.18 -0.18)">
      <defs>
       <path id="DejaVuSans-43" d="M 4122 4306 
L 4122 3641 
Q 3803 3938 3442 4084 
Q 3081 4231 2675 4231 
Q 1875 4231 1450 3742 
Q 1025 3253 1025 2328 
Q 1025 1406 1450 917 
Q 1875 428 2675 428 
Q 3081 428 3442 575 
Q 3803 722 4122 1019 
L 4122 359 
Q 3791 134 3420 21 
Q 3050 -91 2638 -91 
Q 1578 -91 968 557 
Q 359 1206 359 2328 
Q 359 3453 968 4101 
Q 1578 4750 2638 4750 
Q 3056 4750 3426 4639 
Q 3797 4528 4122 4306 
z
" transform="scale(0.015625)"/>
       <path id="DejaVuSans-6f" d="M 1959 3097 
Q 1497 3097 1228 2736 
Q 959 2375 959 1747 
Q 959 1119 1226 758 
Q 1494 397 1959 397 
Q 2419 397 2687 759 
Q 2956 1122 2956 1747 
Q 2956 2369 2687 2733 
Q 2419 3097 1959 3097 
z
M 1959 3584 
Q 2709 3584 3137 3096 
Q 3566 2609 3566 1747 
Q 3566 888 3137 398 
Q 2709 -91 1959 -91 
Q 1206 -91 779 398 
Q 353 888 353 1747 
Q 353 2609 779 3096 
Q 1206 3584 1959 3584 
z
" transform="scale(0.015625)"/>
       <path id="DejaVuSans-75" d="M 544 1381 
L 544 3500 
L 1119 3500 
L 1119 1403 
Q 1119 906 1312 657 
Q 1506 409 1894 409 
Q 2359 409 2629 706 
Q 2900 1003 2900 1516 
L 2900 3500 
L 3475 3500 
L 3475 0 
L 2900 0 
L 2900 538 
Q 2691 219 2414 64 
Q 2138 -91 1772 -91 
Q 1169 -91 856 284 
Q 544 659 544 1381 
z
M 1991 3584 
L 1991 3584 
z
" transform="scale(0.015625)"/>
       <path id="DejaVuSans-6e" d="M 3513 2113 
L 3513 0 
L 2938 0 
L 2938 2094 
Q 2938 2591 2744 2837 
Q 2550 3084 2163 3084 
Q 1697 3084 1428 2787 
Q 1159 2491 1159 1978 
L 1159 0 
L 581 0 
L 581 3500 
L 1159 3500 
L 1159 2956 
Q 1366 3272 1645 3428 
Q 1925 3584 2291 3584 
Q 2894 3584 3203 3211 
Q 3513 2838 3513 2113 
z
" transform="scale(0.015625)"/>
       <path id="DejaVuSans-74" d="M 1172 4494 
L 1172 3500 
L 2356 3500 
L 2356 3053 
L 1172 3053 
L 1172 1153 
Q 1172 725 1289 603 
Q 1406 481 1766 481 
L 2356 481 
L 2356 0 
L 1766 0 
Q 1100 0 847 248 
Q 594 497 594 1153 
L 594 3053 
L 172 3053 
L 172 3500 
L 594 3500 
L 594 4494 
L 1172 4494 
z
" transform="scale(0.015625)"/>
      </defs>
      <use xlink:href="#DejaVuSans-43"/>
      <use xlink:href="#DejaVuSans-6f" x="69.824219"/>
      <use xlink:href="#DejaVuSans-75" x="131.005859"/>
      <use xlink:href="#DejaVuSans-6e" x="194.384766"/>
      <use xlink:href="#DejaVuSans-74" x="257.763672"/>
     </g>
    </g>
   </g>
   <g id="patch_28">
    <path d="M 72.615 292.989187 
L 72.615 26.877187 
" style="fill: none"/>
   </g>
   <g id="patch_29">
    <path d="M 429.735 292.989187 
L 429.735 26.877187 
" style="fill: none"/>
   </g>
   <g id="patch_30">
    <path d="M 72.615 292.989187 
L 429.735 292.989187 
" style="fill: none"/>
   </g>
   <g id="patch_31">
    <path d="M 72.615 26.877187 
L 429.735 26.877187 
" style="fill: none"/>
   </g>
   <g id="text_12">
    <!-- $N = $1000 -->
    <g style="fill: #666666" transform="translate(210.405 20.877187)scale(0.18 -0.18)">
     <defs>
      <path id="DejaVuSans-Oblique-4e" d="M 1081 4666 
L 1931 4666 
L 3219 666 
L 4000 4666 
L 4616 4666 
L 3706 0 
L 2853 0 
L 1569 4025 
L 788 0 
L 172 0 
L 1081 4666 
z
" transform="scale(0.015625)"/>
      <path id="DejaVuSans-3d" d="M 678 2906 
L 4684 2906 
L 4684 2381 
L 678 2381 
L 678 2906 
z
M 678 1631 
L 4684 1631 
L 4684 1100 
L 678 1100 
L 678 1631 
z
" transform="scale(0.015625)"/>
     </defs>
     <use xlink:href="#DejaVuSans-Oblique-4e" transform="translate(0 0.78125)"/>
     <use xlink:href="#DejaVuSans-3d" transform="translate(94.287109 0.78125)"/>
     <use xlink:href="#DejaVuSans-31" transform="translate(197.558594 0.78125)"/>
     <use xlink:href="#DejaVuSans-30" transform="translate(261.181641 0.78125)"/>
     <use xlink:href="#DejaVuSans-30" transform="translate(324.804688 0.78125)"/>
     <use xlink:href="#DejaVuSans-30" transform="translate(388.427734 0.78125)"/>
    </g>
   </g>
  </g>
 </g>
 <defs>
  <clipPath id="p4f3dafb752">
   <rect x="72.615" y="26.877187" width="357.12" height="266.112"/>
  </clipPath>
 </defs>
</svg>
