<svg version="1.1" xmlns="http://www.w3.org/2000/svg" viewBox="0 0 1432.9610989239159 344.60856401557123" width="2865.9221978478317" height="689.2171280311425">
  <!-- svg-source:excalidraw -->
  
  <defs>
    <style>
      @font-face {
        font-family: "Virgil";
        src: url("https://unpkg.com/@zsviczian/excalidraw@0.11.0-obsidian-20/dist/excalidraw-assets/Virgil.woff2");
      }
      @font-face {
        font-family: "Cascadia";
        src: url("https://unpkg.com/@zsviczian/excalidraw@0.11.0-obsidian-20/dist/excalidraw-assets/Cascadia.woff2");
      }
    </style>
  </defs>
  <g stroke-linecap="round"><g transform="translate(166.0656879975197 237.42956596414126) rotate(0 36.11126708984375 -82.206298828125)"><path d="M0.98 0.45 C2.51 -1.25, 13.34 -5.85, 9.63 -9.54 C5.91 -13.22, -20.93 -16.53, -21.31 -21.67 C-21.7 -26.8, 6.89 -34.13, 7.3 -40.33 C7.71 -46.54, -19.84 -54.03, -18.86 -58.9 C-17.87 -63.76, 11.12 -62.87, 13.21 -69.51 C15.29 -76.14, -8.37 -93.71, -6.35 -98.72 C-4.32 -103.72, 21.85 -94.84, 25.37 -99.53 C28.89 -104.22, 11.49 -123.35, 14.77 -126.87 C18.05 -130.39, 39.76 -116.36, 45.04 -120.66 C50.32 -124.97, 42.11 -149.96, 46.47 -152.72 C50.82 -155.48, 65.7 -135.12, 71.17 -137.2 C76.65 -139.27, 75.5 -162.06, 79.32 -165.15 C83.14 -168.24, 91.54 -157.36, 94.09 -155.76 M0.03 -0.35 C1.36 -1.94, 12.23 -4.25, 8.6 -8.16 C4.98 -12.07, -21.61 -18.12, -21.71 -23.81 C-21.81 -29.51, 7.74 -36.44, 8.02 -42.32 C8.31 -48.21, -21.09 -54.44, -20 -59.13 C-18.91 -63.81, 12.14 -64.16, 14.57 -70.42 C16.99 -76.67, -7.13 -92.28, -5.44 -96.67 C-3.76 -101.06, 21.05 -92.03, 24.67 -96.76 C28.3 -101.48, 12.79 -121, 16.31 -125.01 C19.83 -129.02, 40.76 -116.38, 45.77 -120.84 C50.79 -125.29, 42.42 -148.97, 46.4 -151.75 C50.37 -154.53, 64.09 -135.69, 69.63 -137.52 C75.17 -139.34, 75.7 -159.59, 79.64 -162.7 C83.59 -165.81, 90.73 -157.28, 93.3 -156.2" stroke="#666666" stroke-width="1" fill="none"/></g><g transform="translate(166.0656879975197 237.42956596414126) rotate(0 36.11126708984375 -82.206298828125)"><path d="M85.17 -158.81 C87.46 -157.42, 90.78 -156.43, 94.1 -155.74 M85.02 -158.89 C86.77 -158.6, 87.93 -158, 93.28 -156.01" stroke="#666666" stroke-width="1" fill="none"/></g><g transform="translate(166.0656879975197 237.42956596414126) rotate(0 36.11126708984375 -82.206298828125)"><path d="M88.76 -163.67 C89.88 -160.62, 92 -158.01, 94.1 -155.74 M88.61 -163.75 C89.63 -162.47, 90.07 -160.9, 93.28 -156.01" stroke="#666666" stroke-width="1" fill="none"/></g></g><g stroke-linecap="round"><g transform="translate(381.94184766548847 80.51825004617251) rotate(0 57.56103515625 78.197265625)"><path d="M-0.3 -1.11 C1.07 1.7, 4.05 17.97, 9.44 18 C14.84 18.04, 27.64 -2.52, 32.09 -0.88 C36.54 0.76, 30.02 25.39, 36.14 27.84 C42.26 30.28, 64.62 10.12, 68.81 13.79 C73 17.45, 57.22 45.09, 61.26 49.82 C65.31 54.55, 90.65 38.13, 93.09 42.16 C95.53 46.19, 73.29 68.4, 75.92 74 C78.55 79.61, 107.05 71.1, 108.87 75.81 C110.68 80.53, 85.85 96.2, 86.81 102.29 C87.78 108.38, 114.33 107.6, 114.66 112.34 C114.99 117.07, 89.6 124.73, 88.8 130.68 C88 136.64, 107.77 143.72, 109.84 148.05 C111.92 152.38, 102.68 154.96, 101.23 156.67 M1.74 0.92 C3.41 3.93, 6.85 16.52, 11.82 16.43 C16.78 16.34, 27.37 -1.16, 31.53 0.38 C35.7 1.92, 30.8 23.4, 36.79 25.69 C42.79 27.98, 63.77 10.25, 67.52 14.13 C71.26 18.01, 55.41 43.95, 59.26 48.96 C63.11 53.97, 88.01 40.05, 90.59 44.18 C93.17 48.3, 71.45 68.63, 74.76 73.71 C78.07 78.8, 108.41 69.95, 110.46 74.7 C112.51 79.45, 86.32 95.83, 87.04 102.22 C87.75 108.61, 114.69 108.31, 114.74 113.06 C114.8 117.81, 88.2 124.49, 87.36 130.72 C86.52 136.94, 107.41 146.16, 109.71 150.41 C112.01 154.66, 103.04 154.9, 101.15 156.22" stroke="#666666" stroke-width="1" fill="none"/></g><g transform="translate(381.94184766548847 80.51825004617251) rotate(0 57.56103515625 78.197265625)"><path d="M105.75 151.73 C104.9 153.95, 102.18 155.8, 101.58 156.41 M106.64 151.93 C104.79 153.34, 103.12 154.66, 100.86 156.42" stroke="#666666" stroke-width="1" fill="none"/></g><g transform="translate(381.94184766548847 80.51825004617251) rotate(0 57.56103515625 78.197265625)"><path d="M107.18 156.06 C105.72 156.54, 102.43 156.67, 101.58 156.41 M108.07 156.26 C105.78 156.4, 103.7 156.46, 100.86 156.42" stroke="#666666" stroke-width="1" fill="none"/></g></g><g stroke-linecap="round"><g transform="translate(987.0228413178322 28.787750778594386) rotate(0 64.3663330078125 3.8645172119140625)"><path d="M-0.84 -0.02 C2.6 -1.94, 13.94 -12.71, 20.38 -11.67 C26.82 -10.64, 36.42 0.84, 37.81 6.19 C39.2 11.54, 31.52 21.02, 28.72 20.42 C25.92 19.83, 20.19 8.13, 21 2.62 C21.81 -2.89, 27.68 -11.31, 33.57 -12.62 C39.47 -13.92, 52.17 -8.86, 56.38 -5.21 C60.6 -1.56, 60.33 5.49, 58.89 9.28 C57.44 13.06, 49.4 19.66, 47.72 17.5 C46.03 15.33, 45.79 1.4, 48.75 -3.71 C51.71 -8.82, 60.41 -13.11, 65.49 -13.17 C70.58 -13.23, 77.12 -9.1, 79.24 -4.07 C81.37 0.97, 80.06 14.73, 78.24 17.06 C76.43 19.38, 68.96 13.69, 68.36 9.88 C67.77 6.07, 71.46 -2.03, 74.68 -5.79 C77.9 -9.56, 83.03 -12.92, 87.67 -12.71 C92.31 -12.51, 99.82 -9.74, 102.51 -4.56 C105.2 0.61, 105.9 17.04, 103.79 18.34 C101.69 19.64, 91.4 7.35, 89.86 3.23 C88.33 -0.88, 91.22 -3.55, 94.59 -6.33 C97.96 -9.1, 104.22 -14.66, 110.09 -13.41 C115.96 -12.15, 126.87 -1.33, 129.8 1.18 M0.92 -1.07 C4.29 -3.34, 13.83 -14.33, 19.82 -13.46 C25.82 -12.6, 35.35 -1.62, 36.87 4.13 C38.39 9.87, 31.26 21.17, 28.95 21.02 C26.63 20.87, 22 8.91, 22.96 3.21 C23.92 -2.49, 29.58 -11.59, 34.72 -13.18 C39.85 -14.77, 49.38 -9.95, 53.79 -6.33 C58.2 -2.72, 61.9 4.19, 61.18 8.5 C60.47 12.81, 51.47 21.58, 49.51 19.5 C47.55 17.42, 46.63 1.38, 49.43 -3.98 C52.23 -9.33, 61.05 -12.59, 66.31 -12.64 C71.57 -12.68, 79.04 -9.56, 80.99 -4.24 C82.94 1.08, 80.22 17.01, 78.01 19.29 C75.8 21.57, 68.29 13.62, 67.76 9.42 C67.22 5.23, 71.33 -2.31, 74.78 -5.89 C78.22 -9.47, 83.46 -12.43, 88.44 -12.03 C93.43 -11.63, 102.28 -8.57, 104.68 -3.5 C107.09 1.57, 105.57 17.14, 102.89 18.38 C100.21 19.63, 89.86 8.32, 88.61 3.96 C87.36 -0.39, 91.44 -4.68, 95.41 -7.75 C99.37 -10.82, 107.14 -16.27, 112.4 -14.46 C117.66 -12.64, 124.54 0.6, 126.98 3.13" stroke="#666666" stroke-width="1" fill="none"/></g></g><g stroke-linecap="round"><g transform="translate(999.2099094692726 69.96728127315941) rotate(0 50.269985101463476 4.104190964825278)"><path d="M0.07 0.09 C3.64 -1.85, 14.38 -12.21, 20.71 -11.17 C27.05 -10.14, 36.58 1.04, 38.1 6.3 C39.62 11.57, 32.54 21.15, 29.84 20.42 C27.14 19.7, 20.61 7.75, 21.91 1.97 C23.21 -3.81, 32.04 -12.91, 37.66 -14.26 C43.28 -15.61, 51.99 -10.35, 55.63 -6.14 C59.27 -1.92, 60.57 6.82, 59.5 11.03 C58.43 15.24, 50.84 21.53, 49.19 19.13 C47.55 16.73, 46.99 1.86, 49.61 -3.37 C52.24 -8.6, 59.7 -11.86, 64.94 -12.24 C70.17 -12.62, 78.51 -10.79, 81.04 -5.64 C83.56 -0.5, 82.29 16.15, 80.1 18.63 C77.92 21.11, 68.71 13.39, 67.93 9.27 C67.14 5.14, 72.36 -2.48, 75.39 -6.1 C78.43 -9.71, 82.02 -13.3, 86.16 -12.43 C90.29 -11.57, 97.75 -2.69, 100.18 -0.89 M-1.35 -0.9 C2.21 -3.2, 13.89 -13.56, 20.34 -12.7 C26.78 -11.83, 36.21 -1.32, 37.32 4.3 C38.43 9.92, 29.76 21.37, 26.99 21.02 C24.22 20.68, 18.7 7.76, 20.69 2.22 C22.67 -3.32, 32.96 -11.16, 38.89 -12.21 C44.83 -13.26, 53.04 -7.99, 56.3 -4.09 C59.56 -0.19, 59.83 7.44, 58.46 11.18 C57.09 14.92, 50 20.78, 48.11 18.34 C46.21 15.9, 44.19 1.47, 47.09 -3.46 C49.98 -8.38, 59.97 -11.3, 65.46 -11.22 C70.96 -11.14, 77.5 -7.86, 80.07 -2.98 C82.63 1.89, 83 15.51, 80.84 18.03 C78.68 20.55, 67.92 16.2, 67.09 12.14 C66.26 8.08, 72.56 -2.42, 75.86 -6.35 C79.17 -10.29, 83.12 -12.55, 86.93 -11.48 C90.74 -10.42, 96.64 -1.63, 98.73 0.05" stroke="#666666" stroke-width="1" fill="none"/></g></g><g stroke-linecap="round"><g transform="translate(989.6939817924808 112.62646921988494) rotate(0 59.27499142998795 2.191555526431557)"><path d="M0.54 1.11 C3.08 -1.62, 9.82 -15.12, 14.95 -15.9 C20.08 -16.67, 28.29 -7.89, 31.3 -3.53 C34.32 0.83, 34.27 6.46, 33.03 10.26 C31.79 14.05, 26.09 20.09, 23.88 19.24 C21.67 18.39, 17.86 10.62, 19.79 5.14 C21.73 -0.34, 30.07 -11.35, 35.48 -13.62 C40.88 -15.89, 48.54 -11.28, 52.23 -8.46 C55.91 -5.64, 57.86 -1.44, 57.57 3.32 C57.28 8.07, 52.84 19.18, 50.49 20.06 C48.14 20.93, 43.15 14.06, 43.46 8.56 C43.77 3.05, 48.2 -9.68, 52.36 -12.97 C56.51 -16.25, 63.9 -14.03, 68.39 -11.16 C72.88 -8.29, 78.58 -0.78, 79.28 4.24 C79.97 9.26, 74.71 18.87, 72.57 18.97 C70.42 19.07, 65.65 10.05, 66.42 4.83 C67.19 -0.4, 72.44 -9.88, 77.19 -12.36 C81.95 -14.84, 90.31 -13, 94.95 -10.08 C99.59 -7.16, 104.79 0.38, 105.01 5.14 C105.23 9.9, 99.23 17.69, 96.28 18.47 C93.34 19.25, 87.99 14.24, 87.33 9.82 C86.66 5.39, 89.47 -4.34, 92.3 -8.09 C95.14 -11.84, 99.99 -12.09, 104.34 -12.69 C108.7 -13.29, 116.22 -11.81, 118.42 -11.7 M-0.63 0.65 C1.85 -2, 9.3 -14.33, 14.47 -14.85 C19.64 -15.36, 27.23 -6.74, 30.4 -2.43 C33.57 1.88, 34.79 7.3, 33.49 11.01 C32.18 14.72, 24.62 20.98, 22.56 19.83 C20.49 18.67, 18.9 9.3, 21.11 4.07 C23.32 -1.15, 30.7 -9.35, 35.81 -11.51 C40.93 -13.67, 48.37 -11.69, 51.79 -8.87 C55.21 -6.05, 56.45 0.61, 56.31 5.42 C56.16 10.23, 53.02 19.32, 50.92 19.97 C48.82 20.63, 43.14 14.94, 43.72 9.34 C44.29 3.74, 50.12 -10.07, 54.36 -13.63 C58.6 -17.19, 65.13 -15.04, 69.15 -12.01 C73.17 -8.98, 77.82 -0.56, 78.48 4.54 C79.13 9.63, 75.46 18.28, 73.1 18.54 C70.75 18.8, 63.84 11.21, 64.36 6.11 C64.89 1.01, 71.38 -9.39, 76.25 -12.06 C81.11 -14.73, 88.89 -12.75, 93.53 -9.92 C98.17 -7.08, 103.55 0.5, 104.07 4.95 C104.59 9.39, 99.65 15.57, 96.65 16.74 C93.65 17.91, 86.68 16.35, 86.06 11.98 C85.45 7.61, 89.96 -5.27, 92.94 -9.47 C95.93 -13.68, 99.48 -12.77, 103.98 -13.27 C108.49 -13.78, 117.53 -12.74, 119.99 -12.49" stroke="#666666" stroke-width="1" fill="none"/></g></g><g stroke-linecap="round"><g transform="translate(794.9008748097319 233.13204979784325) rotate(0 30.92970142157526 -78.80797691792958)"><path d="M-0.83 0.47 C0.61 -0.79, 11.37 -3.8, 8.33 -7.72 C5.3 -11.64, -19.08 -17.53, -19.03 -23.06 C-18.98 -28.6, 8.46 -34.52, 8.65 -40.94 C8.83 -47.36, -18.66 -56.5, -17.91 -61.6 C-17.16 -66.69, 10.39 -65.26, 13.14 -71.51 C15.9 -77.77, -3.75 -94.41, -1.38 -99.13 C0.98 -103.85, 23.71 -95.04, 27.34 -99.82 C30.96 -104.61, 15.82 -123.68, 20.36 -127.84 C24.9 -132, 50.36 -119.98, 54.6 -124.78 C58.85 -129.58, 42.73 -153.68, 45.83 -156.64 C48.93 -159.59, 67.45 -143.62, 73.2 -142.51 C78.95 -141.4, 79.12 -148.72, 80.35 -149.97 M0.94 -0.33 C2.22 -1.91, 10.64 -5.79, 7.22 -9.41 C3.79 -13.03, -19.83 -17, -19.62 -22.07 C-19.42 -27.14, 7.83 -33.25, 8.44 -39.83 C9.05 -46.41, -16.99 -56.16, -15.96 -61.55 C-14.93 -66.94, 12.6 -66.24, 14.63 -72.18 C16.65 -78.12, -6.27 -92.59, -3.79 -97.2 C-1.32 -101.82, 25.71 -94.62, 29.48 -99.89 C33.24 -105.16, 15.01 -124.67, 18.8 -128.81 C22.6 -132.96, 47.76 -119.76, 52.27 -124.76 C56.77 -129.76, 42.49 -155.76, 45.82 -158.8 C49.15 -161.84, 66.5 -144.28, 72.22 -142.98 C77.94 -141.68, 78.91 -149.77, 80.13 -151" stroke="#666666" stroke-width="1" fill="none"/></g></g><g stroke-linecap="round"><g transform="translate(1228.946682895784 76.70053946015997) rotate(0 47.954430317855895 73.90300562531107)"><path d="M1.02 -0.28 C2.7 -2.36, 8.56 -12.72, 10.94 -12.36 C13.32 -12, 14.87 -3.07, 15.29 1.87 C15.71 6.82, 11.45 14.16, 13.48 17.31 C15.52 20.47, 22.98 21.72, 27.5 20.8 C32.03 19.88, 37.76 10.85, 40.63 11.78 C43.49 12.72, 45.24 22.32, 44.71 26.42 C44.18 30.52, 37.06 33.66, 37.45 36.39 C37.83 39.11, 44.08 42.11, 47 42.77 C49.93 43.43, 51.49 41.15, 55.01 40.34 C58.52 39.53, 66.66 35.09, 68.09 37.91 C69.52 40.73, 65.75 52.15, 63.59 57.26 C61.43 62.37, 51.5 65.66, 55.13 68.56 C58.77 71.46, 83.59 69.68, 85.41 74.66 C87.22 79.64, 64.15 92.71, 66.04 98.46 C67.92 104.21, 96.12 103.84, 96.71 109.16 C97.29 114.47, 69.72 123.66, 69.55 130.36 C69.38 137.06, 93.94 144.38, 95.68 149.37 C97.42 154.36, 82.73 158.81, 79.99 160.3 M0.09 -1.47 C1.5 -3.43, 7.34 -12.01, 9.78 -11.24 C12.21 -10.47, 14 -1.79, 14.71 3.15 C15.42 8.1, 12.13 15.96, 14.04 18.45 C15.94 20.94, 21.58 19.39, 26.16 18.09 C30.73 16.8, 38.27 9.5, 41.51 10.68 C44.75 11.86, 46.46 20.96, 45.6 25.17 C44.74 29.38, 36.39 32.67, 36.34 35.93 C36.29 39.2, 42.16 44.11, 45.3 44.78 C48.44 45.44, 51.41 40.98, 55.17 39.92 C58.93 38.86, 66.15 35.61, 67.86 38.43 C69.56 41.26, 67.54 52.04, 65.39 56.89 C63.24 61.73, 51.81 64.49, 54.98 67.5 C58.14 70.5, 82.53 69.3, 84.37 74.91 C86.22 80.51, 64.35 95.2, 66.03 101.11 C67.72 107.03, 93.58 105.46, 94.5 110.39 C95.41 115.31, 71.52 124.17, 71.51 130.65 C71.51 137.13, 93.3 144.19, 94.48 149.25 C95.66 154.32, 81.13 159.31, 78.6 161.05" stroke="#666666" stroke-width="1" fill="none"/></g></g><g stroke-linecap="round"><g transform="translate(1049.0056146840495 332.93243171537404) rotate(0 2.3334008961720656 -50.123175709195294)"><path d="M0.71 0.58 C-1.31 -1.77, -14.28 -8.87, -11.59 -13.87 C-8.91 -18.87, 16.58 -23.55, 16.84 -29.41 C17.09 -35.27, -9.82 -42.59, -10.06 -49.02 C-10.3 -55.45, 15.88 -61.93, 15.42 -67.99 C14.95 -74.04, -10.8 -80.07, -12.85 -85.35 C-14.89 -90.63, 0.77 -97.07, 3.14 -99.68 M-0.38 -0.15 C-2.58 -2.41, -15.16 -8.2, -12.39 -12.89 C-9.62 -17.58, 15.73 -22.46, 16.22 -28.28 C16.71 -34.09, -9.06 -41.27, -9.44 -47.78 C-9.82 -54.28, 14.36 -60.84, 13.95 -67.3 C13.53 -73.75, -10.29 -80.95, -11.94 -86.52 C-13.58 -92.09, 1.52 -98.2, 4.08 -100.73" stroke="#666666" stroke-width="1" fill="none"/></g></g><g stroke-linecap="round"><g transform="translate(731.467366330691 235.67820224346355) rotate(0 39.37150217213775 -0.07645191443316435)"><path d="M-1.17 -0.07 C11.87 0.15, 65.75 0.82, 78.97 0.9 M0.42 -1.14 C13.25 -1.22, 65.36 -0.59, 78.15 -0.67" stroke="#666666" stroke-width="1" fill="none"/></g><g transform="translate(731.467366330691 235.67820224346355) rotate(0 39.37150217213775 -0.07645191443316435)"><path d="M49.81 9.86 C61.95 5.15, 71.37 4.02, 77.89 -1.59 M50.74 9.13 C55.85 8.17, 60.92 5.68, 78.74 -1.03" stroke="#666666" stroke-width="1" fill="none"/></g><g transform="translate(731.467366330691 235.67820224346355) rotate(0 39.37150217213775 -0.07645191443316435)"><path d="M49.89 -10.66 C61.94 -7.92, 71.33 -1.6, 77.89 -1.59 M50.82 -11.39 C56 -8.15, 61.05 -6.43, 78.74 -1.03" stroke="#666666" stroke-width="1" fill="none"/></g></g><g stroke-linecap="round"><g transform="translate(810.9209839573508 235.59065885957892) rotate(0 120.39801643150741 0)"><path d="M0.06 0.81 C40.28 0.81, 201.59 -0.19, 241.68 -0.48 M-1.37 0.2 C38.74 0.39, 201.02 0.85, 241.19 0.81" stroke="#666666" stroke-width="1" fill="none"/></g><g transform="translate(810.9209839573508 235.59065885957892) rotate(0 120.39801643150741 0)"><path d="M214.34 12.5 C221.45 7.27, 229.95 4.75, 243.02 0.85 M213.83 11.16 C220.31 8.39, 228.41 5.44, 241.49 0.89" stroke="#666666" stroke-width="1" fill="none"/></g><g transform="translate(810.9209839573508 235.59065885957892) rotate(0 120.39801643150741 0)"><path d="M214.37 -8.02 C221.39 -6.55, 229.88 -2.36, 243.02 0.85 M213.86 -9.36 C220.32 -6.37, 228.41 -3.57, 241.49 0.89" stroke="#666666" stroke-width="1" fill="none"/></g></g><g stroke-linecap="round"><g transform="translate(1051.1718182803063 235.34291636483772) rotate(0 123.52668559044548 0)"><path d="M0.34 -0.31 C41.64 -0.27, 205.75 -0.94, 246.83 -0.96 M-0.94 -1.51 C40.27 -1.26, 204.62 -0.28, 245.77 0.08" stroke="#666666" stroke-width="1" fill="none"/></g><g transform="translate(1051.1718182803063 235.34291636483772) rotate(0 123.52668559044548 0)"><path d="M217 9.77 C222.14 7.48, 229.15 7.4, 246.25 -0.71 M216.94 10.07 C228.75 6.92, 237.72 3.03, 245 -0.79" stroke="#666666" stroke-width="1" fill="none"/></g><g transform="translate(1051.1718182803063 235.34291636483772) rotate(0 123.52668559044548 0)"><path d="M217.14 -10.75 C222.06 -8.59, 229.03 -4.21, 246.25 -0.71 M217.08 -10.45 C228.87 -6, 237.79 -2.29, 245 -0.79" stroke="#666666" stroke-width="1" fill="none"/></g></g><g stroke-linecap="round"><g transform="translate(321.12423477689924 334.60856401557123) rotate(0 0.7196251013135679 -48.43076931840426)"><path d="M-1.03 0.36 C-2.71 -2.25, -13.16 -10.75, -10.61 -15.62 C-8.07 -20.48, 14.48 -23.25, 14.25 -28.83 C14.01 -34.41, -11.96 -42.89, -12.03 -49.09 C-12.09 -55.29, 14.19 -59.59, 13.84 -66.02 C13.49 -72.45, -11.54 -82.47, -14.14 -87.68 C-16.73 -92.88, -3.76 -95.87, -1.73 -97.25 M0.62 -0.5 C-1.09 -2.91, -13.25 -9.55, -11.16 -14.08 C-9.07 -18.61, 13.31 -22.05, 13.16 -27.67 C13.01 -33.28, -11.98 -41.47, -12.06 -47.78 C-12.14 -54.08, 12.88 -59.19, 12.71 -65.49 C12.53 -71.8, -10.78 -80.65, -13.1 -85.59 C-15.42 -90.53, -2.84 -93.44, -1.2 -95.14" stroke="#666666" stroke-width="1" fill="none"/></g><g transform="translate(321.12423477689924 334.60856401557123) rotate(0 0.7196251013135679 -48.43076931840426)"><path d="M-6.34 -88.93 C-5.24 -91.22, -4.08 -92.6, -0.94 -94.72 M-6.65 -89.56 C-4.97 -90.93, -3.02 -93.34, -1.26 -95.26" stroke="#666666" stroke-width="1" fill="none"/></g><g transform="translate(321.12423477689924 334.60856401557123) rotate(0 0.7196251013135679 -48.43076931840426)"><path d="M-8.76 -93.72 C-7.04 -94.78, -5.28 -94.96, -0.94 -94.72 M-9.06 -94.35 C-6.63 -94.15, -3.91 -95.03, -1.26 -95.26" stroke="#666666" stroke-width="1" fill="none"/></g></g><g stroke-linecap="round"><g transform="translate(10 238.63274444822508) rotate(0 39.43956533754006 0)"><path d="M-1.14 0.8 C11.81 0.78, 64.62 0.65, 77.76 0.47 M0.46 0.18 C13.77 -0.27, 66.63 -1.52, 79.88 -1.41" stroke="#666666" stroke-width="1" fill="none"/></g><g transform="translate(10 238.63274444822508) rotate(0 39.43956533754006 0)"><path d="M53.14 7.27 C61.02 4.21, 68.21 3.99, 77.89 -2.6 M51.63 8.87 C61.43 5.08, 70.06 1.26, 79.06 -0.83" stroke="#666666" stroke-width="1" fill="none"/></g><g transform="translate(10 238.63274444822508) rotate(0 39.43956533754006 0)"><path d="M52.93 -13.25 C60.98 -10.09, 68.23 -4.11, 77.89 -2.6 M51.42 -11.65 C61.18 -8.81, 69.88 -6.01, 79.06 -0.83" stroke="#666666" stroke-width="1" fill="none"/></g></g><g stroke-linecap="round"><g transform="translate(94.40113097658642 239.17116491005194) rotate(0 76.53118873041582 -0.7813544104629386)"><path d="M0.14 0.51 C25.89 0.3, 127.99 -0.07, 153.51 -0.59 M-1.24 -0.26 C24.47 -0.86, 127.15 -1.94, 152.8 -2.2" stroke="#666666" stroke-width="1" fill="none"/></g><g transform="translate(94.40113097658642 239.17116491005194) rotate(0 76.53118873041582 -0.7813544104629386)"><path d="M125.57 9.11 C132.41 6.43, 135.2 4.08, 151.79 -0.67 M125.18 9.18 C133.06 5.99, 141.54 3.04, 153.11 -2.74" stroke="#666666" stroke-width="1" fill="none"/></g><g transform="translate(94.40113097658642 239.17116491005194) rotate(0 76.53118873041582 -0.7813544104629386)"><path d="M125.36 -11.41 C132.36 -9.62, 135.2 -7.5, 151.79 -0.67 M124.97 -11.34 C132.89 -8.46, 141.43 -5.32, 153.11 -2.74" stroke="#666666" stroke-width="1" fill="none"/></g></g><g stroke-linecap="round"><g transform="translate(250.62127619850327 238.73949236369512) rotate(0 77.53962117170154 0)"><path d="M1.19 0.37 C26.76 0.13, 128.98 -1.07, 154.43 -1.19 M0.35 -0.48 C26.24 -0.64, 130.83 -0.49, 156.8 -0.27" stroke="#666666" stroke-width="1" fill="none"/></g><g transform="translate(250.62127619850327 238.73949236369512) rotate(0 77.53962117170154 0)"><path d="M129.18 8.78 C137.32 3.72, 149.51 2.99, 157.34 1.06 M127.65 9.71 C137.47 6.98, 148.53 3.59, 155.94 -1.16" stroke="#666666" stroke-width="1" fill="none"/></g><g transform="translate(250.62127619850327 238.73949236369512) rotate(0 77.53962117170154 0)"><path d="M129.26 -11.74 C137.41 -8.98, 149.57 -1.89, 157.34 1.06 M127.74 -10.81 C137.7 -6.48, 148.73 -2.82, 155.94 -1.16" stroke="#666666" stroke-width="1" fill="none"/></g></g><g stroke-linecap="round"><g transform="translate(410.0671244318954 237.2201831150095) rotate(0 75.02933444500695 0.6109220986243145)"><path d="M-0.42 0.58 C24.59 0.89, 123.86 2.22, 148.98 2.38 M1.55 -0.16 C27.03 -0.2, 126.44 0.33, 151.13 0.86" stroke="#666666" stroke-width="1" fill="none"/></g><g transform="translate(410.0671244318954 237.2201831150095) rotate(0 75.02933444500695 0.6109220986243145)"><path d="M123.79 8.99 C130.56 9.27, 134.99 7.97, 149.96 1.08 M122.82 10.95 C131.07 8.08, 139.4 5.78, 151.22 0.5" stroke="#666666" stroke-width="1" fill="none"/></g><g transform="translate(410.0671244318954 237.2201831150095) rotate(0 75.02933444500695 0.6109220986243145)"><path d="M124.04 -11.53 C130.85 -7, 135.23 -4.05, 149.96 1.08 M123.06 -9.57 C131.32 -6.71, 139.58 -3.3, 151.22 0.5" stroke="#666666" stroke-width="1" fill="none"/></g></g><g stroke-linecap="round"><g transform="translate(563.4341541890584 237.77774687932623) rotate(0 39.456648181114815 0)"><path d="M-0.25 0.41 C13.12 0.38, 66.32 -0.01, 79.54 0 M1.81 -0.43 C15.15 -0.26, 66.15 1.73, 78.93 1.53" stroke="#666666" stroke-width="1" fill="none"/></g></g><g stroke-linecap="round" transform="translate(258.6333444021834 20.164068149090554) rotate(0 62.61464608594645 62.0550880541865)"><path d="M13.06 24.6 C13.06 24.6, 13.06 24.6, 13.06 24.6 M13.06 24.6 C13.06 24.6, 13.06 24.6, 13.06 24.6 M2.69 51.98 C11.76 40.88, 20.35 29.91, 37.72 7.49 M1.6 51.14 C10.73 40.68, 18.84 30.66, 38.24 8.9 M7.48 55.4 C24.42 38.06, 40.57 16.9, 51.02 3.94 M8.2 55.45 C20.42 38.31, 35.34 22.9, 51.6 5.85 M6.84 66.94 C26.12 46.25, 48.07 19.88, 64.38 0.14 M7.34 68.14 C28.28 41.72, 50.94 18.72, 66.91 0.84 M4.28 82.02 C29.44 54.34, 58.04 23.07, 74.52 4.22 M3.9 82.87 C30.72 54, 56.41 23.7, 75.57 2.77 M7.57 89.5 C33.16 61.4, 57.31 31.86, 82.39 3.08 M9.11 90.75 C32.96 61, 57.3 35.01, 83.27 4.38 M13.54 96.96 C34.01 72.8, 53.77 50.66, 89.85 6.63 M13.79 96.16 C33.59 73.93, 54.72 50.79, 91.03 7.03 M19.34 105.4 C33.41 85.16, 49.99 67.04, 98.59 13.87 M18.02 104.08 C36.44 82.39, 54.99 60.36, 98.61 11.4 M23.63 111.16 C51.35 79.93, 78.4 46.6, 103.82 17.03 M24.83 110.48 C39.9 91.11, 57.44 70.31, 104.64 18.15 M30.3 112.31 C53.81 90.05, 74.12 62.97, 109.35 24.67 M30.25 113.35 C46.47 95.11, 64.43 76.49, 110.11 23.58 M38.83 120.51 C55.97 95.32, 77.12 74.81, 114.65 28.85 M38.22 119.1 C65.46 86.54, 93.78 53.11, 115.87 29.38 M44.65 122.16 C67.83 97.27, 87.99 69.63, 122.48 34.94 M45.34 122.22 C67.71 93.74, 91.91 66.05, 120.72 35.01 M54.85 124.73 C74.11 102.71, 93.35 80.97, 124.07 43.6 M54.97 122.26 C73.06 101.1, 93.59 78.79, 125.02 42.22 M66.63 125.2 C89.19 96.77, 109.66 70.43, 128.63 53.25 M64.21 124.77 C77.33 108.94, 89.56 93.89, 128.6 52.09 M74.91 123.36 C95.23 101.82, 112.67 79.85, 129.91 61.6 M73.89 125.2 C86.18 109.88, 99.28 95.04, 129.82 61.14 M93.93 117.46 C105 103.93, 114.24 88.74, 126.54 78.7 M92.61 117.06 C102.72 105.33, 113.28 92.66, 126.31 76.91" stroke="#868e96" stroke-width="1" fill="none"/><path d="M36.62 6.21 C44.67 1.62, 56.38 -0.4, 65.9 -0.07 C75.41 0.26, 85.45 3.33, 93.72 8.19 C101.98 13.06, 110.12 20.91, 115.47 29.1 C120.82 37.29, 125.17 47.73, 125.82 57.33 C126.46 66.93, 123.54 77.74, 119.34 86.7 C115.14 95.65, 108.26 104.96, 100.61 111.05 C92.96 117.15, 82.97 121.47, 73.47 123.28 C63.97 125.1, 52.73 124.94, 43.62 121.96 C34.51 118.99, 25.61 112.23, 18.78 105.44 C11.95 98.64, 5.59 90.35, 2.66 81.19 C-0.28 72.03, -0.58 59.94, 1.17 50.49 C2.92 41.04, 7.13 31.99, 13.17 24.47 C19.21 16.95, 33.06 8.58, 37.42 5.39 C41.79 2.19, 38.84 4.4, 39.33 5.32 M43.78 2.13 C52.44 -1.18, 65.57 0.28, 75.18 2.39 C84.79 4.5, 93.77 8.76, 101.45 14.78 C109.12 20.81, 117.14 29.85, 121.23 38.53 C125.31 47.21, 127 57.68, 125.97 66.85 C124.94 76.03, 120.18 85.23, 115.04 93.6 C109.9 101.97, 103.15 112.19, 95.14 117.07 C87.13 121.95, 76.95 122.83, 66.97 122.88 C57 122.94, 44.36 121.13, 35.27 117.4 C26.19 113.67, 18.13 107.8, 12.46 100.5 C6.78 93.2, 2.55 83.01, 1.23 73.62 C-0.09 64.22, 1.73 53.52, 4.53 44.13 C7.33 34.74, 11.39 24.14, 18.05 17.26 C24.71 10.38, 39.83 5.07, 44.49 2.87 C49.16 0.66, 45.72 2.93, 46.03 4.04" stroke="#666666" stroke-width="2" fill="none"/></g><g stroke-linecap="round" transform="translate(873.2417775450007 12.7857666015625) rotate(0 62.61464608594645 62.0550880541865)"><path d="M14.49 23.19 C14.49 23.19, 14.49 23.19, 14.49 23.19 M14.49 23.19 C14.49 23.19, 14.49 23.19, 14.49 23.19 M0.63 52.31 C9.7 40.53, 16.21 31.07, 42.14 7.35 M1.64 49.76 C15.89 34.39, 28.59 18.83, 40.29 6.05 M5.4 57.74 C15.56 43.9, 26.77 31.44, 52.32 4.33 M7.61 56.98 C22.89 38.99, 37.18 20.26, 52.12 5.15 M8.61 68.67 C25.34 49.11, 43.03 27.73, 64.19 1.94 M8.2 67.41 C29.56 43.19, 49.89 20.01, 63.8 1.49 M5.2 80.81 C27.42 55, 51.57 29.2, 71.71 6.23 M6.61 82.59 C27.75 58.32, 48.55 35.02, 72.76 4.4 M11.74 88.77 C34.71 59.93, 64.3 29.91, 81.09 5.52 M10.87 90.19 C25.62 73.38, 40.28 54.91, 80.92 6.63 M12.45 98.12 C28.14 77, 42.63 60.29, 91.29 10.4 M14.41 96.45 C36.53 70.51, 60.62 43.19, 89.8 10.79 M16.49 102.59 C49.76 68.46, 80.18 35.25, 97.56 10.78 M17.89 103.88 C44.14 76.46, 67.97 48.09, 98.57 10.8 M22.25 110.48 C48.14 83.2, 70.76 53.8, 102.5 16.32 M24.15 110.1 C50.1 79.03, 77.41 47.58, 103.73 16.83 M28.45 116.1 C54.52 89.1, 77.83 61.81, 110.14 21.97 M29.76 115.64 C56.12 83.86, 80.95 54.76, 109.66 23.2 M36.37 119.33 C66.03 83.37, 97.21 49.38, 115.07 30.66 M37.86 118.05 C68.58 83.69, 99.87 46.71, 116.44 29.57 M44.77 120.5 C73.63 86.92, 102.84 55.12, 121.37 36.18 M45.67 121.16 C63.14 101.89, 80.76 80.71, 121.23 34.22 M55.57 124.8 C73.03 105.4, 88.36 83.32, 125.59 42.03 M54.68 123.89 C73.21 102.93, 90.3 81.73, 123.88 43.36 M65.45 124.88 C85.61 98.66, 106.25 77.03, 128.22 51.02 M64.84 123.38 C81.14 105.19, 96.43 88.24, 126.94 53.13 M72.16 124.48 C94.08 98.49, 119.1 75.11, 128.88 61.71 M73.47 124.97 C89.19 107.73, 103.97 90.69, 129.38 62.54 M90.67 118.75 C105.03 102.47, 118.67 85.02, 126.51 77.77 M91.85 117.01 C101.38 105.47, 111.92 93.19, 125.42 79.2" stroke="#868e96" stroke-width="1" fill="none"/><path d="M38.43 4.32 C46.58 -0.19, 57.87 -0.96, 67.32 -0.26 C76.77 0.44, 87.03 3.42, 95.13 8.52 C103.22 13.63, 110.8 21.89, 115.91 30.37 C121.03 38.85, 125.2 49.65, 125.81 59.4 C126.41 69.16, 123.78 80.08, 119.53 88.87 C115.28 97.67, 108.06 106.32, 100.29 112.17 C92.53 118.01, 82.25 122.49, 72.93 123.94 C63.61 125.39, 53.59 123.88, 44.36 120.87 C35.13 117.86, 24.38 112.77, 17.57 105.88 C10.77 98.99, 6.25 88.72, 3.52 79.55 C0.78 70.38, -0.61 60.22, 1.17 50.87 C2.96 41.53, 6.59 31.53, 14.21 23.5 C21.84 15.48, 40.02 6.28, 46.91 2.72 C53.79 -0.84, 55.28 1.35, 55.52 2.17 M77.85 1.06 C86.88 2.2, 96.03 8.36, 103.33 14.81 C110.62 21.26, 118.2 30.89, 121.6 39.77 C125 48.65, 124.75 58.56, 123.73 68.12 C122.71 77.68, 120.62 88.84, 115.48 97.15 C110.34 105.46, 101.3 113.3, 92.89 117.96 C84.48 122.61, 74.8 125.28, 65.03 125.06 C55.26 124.83, 43.1 121.29, 34.26 116.61 C25.42 111.93, 17.44 104.82, 11.99 96.96 C6.53 89.09, 2.65 78.84, 1.52 69.44 C0.38 60.03, 2.08 49.18, 5.18 40.53 C8.29 31.88, 13.19 23.77, 20.12 17.56 C27.05 11.36, 37.28 5.76, 46.77 3.31 C56.26 0.86, 72.01 2.78, 77.09 2.87 C82.16 2.97, 77.56 3.03, 77.23 3.89" stroke="#666666" stroke-width="2" fill="none"/></g><g stroke-linecap="round" transform="translate(1103.0886403379693 10) rotate(0 62.61464608594645 62.0550880541865)"><path d="M12.1 25.09 C12.1 25.09, 12.1 25.09, 12.1 25.09 M12.1 25.09 C12.1 25.09, 12.1 25.09, 12.1 25.09 M0.43 48.56 C13.82 33.94, 25.41 24.1, 39.51 9.24 M3.1 47.97 C10.94 40.55, 17.75 30.38, 37.92 6.72 M6.2 57.62 C15.75 45.08, 29.12 28.21, 50.52 5.49 M5.88 57.54 C21.76 37.92, 38.45 17.93, 50.75 5.8 M6.94 68.54 C30.55 40.97, 51.74 13.21, 64.73 0.09 M7.22 68.56 C30.92 41.37, 53.24 14.19, 65.29 1.58 M5.05 82.08 C27.35 55.2, 54.31 24.67, 75.23 2.6 M3.47 82.44 C25.54 58.28, 46 35.78, 74.59 3.11 M9.62 91.51 C36.89 58.27, 63.35 30.65, 83.86 6.71 M8.97 88.89 C32.95 62.98, 55.99 37.26, 81.65 4.41 M12.05 97.47 C34.21 70.36, 58.76 44.18, 89.22 7.27 M14.02 97.4 C35.19 69.8, 58.75 43.72, 89.9 8.13 M18.58 105.64 C46.94 69.45, 77.58 34.03, 98.3 13.57 M17.98 103.41 C42.19 75.86, 66.97 46.64, 97.23 11.38 M22.84 108.89 C41.28 89.26, 62.52 66.52, 105.53 16.52 M22.11 109.11 C50.1 80.98, 74.5 51.94, 103.48 17.44 M29.54 114.23 C50.56 90.92, 73.64 66.59, 111.08 23.98 M29.83 114.86 C57.24 82.38, 84.8 51.41, 109.22 23.71 M36.24 118.87 C65.1 85.34, 95.95 51.99, 116.66 27.18 M36.83 117.89 C62.14 90.63, 86.47 61.44, 115.91 28.61 M46.3 123.14 C72.76 89.1, 102.53 55.18, 119.19 33.31 M44.54 121.7 C65.26 96.91, 85.19 73.58, 122.11 32.81 M49.33 128.07 C65.99 108.63, 83.83 89.95, 122.59 43.93 M50.91 126.3 C65.84 110.69, 82.26 92.63, 123.61 42.17 M62.75 127.02 C79.57 102.45, 101.51 82.54, 127.29 50.04 M62.54 126.32 C77.72 108.27, 91.56 91.51, 127.42 51.36 M73.05 124.11 C90.96 106.89, 106.62 87.83, 128.1 61.74 M74.26 124.06 C89.84 106.34, 103.53 89.64, 128.11 62.13 M93.35 113.28 C104.26 104.97, 112.76 89.5, 127.96 76.41 M93.2 115.05 C99.38 107.54, 107.07 98.92, 127.93 75.98" stroke="#868e96" stroke-width="1" fill="none"/><path d="M65.16 0.42 C74.52 -0.06, 86.38 4.19, 94.86 9.08 C103.34 13.98, 111.15 21.76, 116.04 29.77 C120.93 37.77, 123.51 47.49, 124.19 57.11 C124.86 66.73, 123.81 78.69, 120.1 87.49 C116.39 96.29, 109.54 104, 101.94 109.92 C94.34 115.85, 83.85 121.07, 74.5 123.04 C65.16 125.02, 55.03 124.38, 45.87 121.78 C36.7 119.19, 26.77 114.23, 19.52 107.47 C12.27 100.71, 5.46 90.36, 2.35 81.2 C-0.76 72.04, -0.73 61.8, 0.84 52.5 C2.42 43.2, 5.98 33.1, 11.82 25.42 C17.65 17.74, 26.39 10.56, 35.86 6.44 C45.33 2.31, 62.71 1.29, 68.62 0.66 C74.54 0.03, 71.63 1.79, 71.35 2.68 M74.29 0.35 C83.22 1.15, 93.89 6.94, 101.65 13.03 C109.42 19.12, 117.12 27.79, 120.89 36.89 C124.66 45.99, 125.11 58.02, 124.28 67.64 C123.45 77.26, 121.1 86.44, 115.92 94.63 C110.75 102.82, 101.46 111.66, 93.23 116.78 C85 121.9, 76.04 124.91, 66.52 125.35 C57.01 125.79, 44.88 123.7, 36.11 119.42 C27.34 115.14, 19.92 107.33, 13.91 99.65 C7.9 91.97, 2.06 82.65, 0.06 73.33 C-1.95 64.01, -1.51 53.12, 1.87 43.74 C5.25 34.36, 13.41 23.82, 20.34 17.07 C27.27 10.31, 34.15 5.75, 43.44 3.19 C52.73 0.63, 70.95 2.06, 76.09 1.72 C81.23 1.38, 74.92 0.13, 74.28 1.16" stroke="#666666" stroke-width="2" fill="none"/></g><g stroke-linecap="round"><g transform="translate(1295.9300930645409 234.0765724291865) rotate(0 63.5155029296875 0)"><path d="M-1.03 0.49 C20 0.85, 104.5 1.1, 126 1.17 M0.63 -0.3 C22.04 -0.16, 107 -0.23, 128.16 -0.34" stroke="#666666" stroke-width="2" fill="none"/></g></g><g stroke-linecap="round"><g transform="translate(681.6144081116194 271.1630458803047) rotate(0 0 20.710028655300263)"><path d="M-0.97 -0.15 C-0.99 7.01, -0.45 35.48, -0.45 42.52 M0.73 -1.28 C0.54 5.62, -1.74 34.08, -1.64 40.98" stroke="#666666" stroke-width="4" fill="none"/></g></g><g stroke-linecap="round"><g transform="translate(664.9088528301659 291.11291395105206) rotate(0 17.168946544408016 0)"><path d="M-0.52 0.95 C5.04 0.92, 28.35 0.09, 34.05 0 M1.41 0.41 C6.72 0.56, 27.76 1.89, 32.96 1.53" stroke="#666666" stroke-width="4" fill="none"/></g></g></svg>