<svg version="1.1" xmlns="http://www.w3.org/2000/svg" viewBox="0 0 648.8814325122601 633.3567186079514" width="648.8814325122601" height="633.3567186079514" filter="invert(93%) hue-rotate(180deg)">
  <!-- svg-source:excalidraw -->
  
  <defs>
    <style>
      @font-face {
        font-family: "Virgil";
        src: url("https://excalidraw.com/Virgil.woff2");
      }
      @font-face {
        font-family: "Cascadia";
        src: url("https://excalidraw.com/Cascadia.woff2");
      }
    </style>
  </defs>
  <g stroke-linecap="round"><g transform="translate(324.4419392286262 10) rotate(0 -0.0012229724961798638 306.6783593039757)" fill-rule="evenodd"><path d="M-232.46 102.68 C-232.46 102.68, -232.46 102.68, -232.46 102.68 M-232.46 102.68 C-232.46 102.68, -232.46 102.68, -232.46 102.68 M-274.46 163.76 C-247.95 130.41, -218.25 100.25, -188.93 64.92 M-276.21 165.07 C-259.48 144.05, -240.45 123.31, -187.04 64.11 M-289.34 192.23 C-260.05 164.01, -231.8 131.8, -161.19 47.7 M-290.12 192.56 C-251.68 148.88, -213.26 105.03, -162.87 46.47 M-294.13 208.56 C-262.14 173.48, -228.66 136.03, -145.4 39.72 M-292.04 207.88 C-247.61 154.73, -200.67 102.2, -147.12 40.92 M-297.14 224.49 C-235.12 155.83, -173.72 84, -122.37 25.97 M-296.54 225.01 C-234.22 155.91, -173.25 84.88, -122.64 25.24 M-299.51 239.18 C-224.86 153.73, -148.33 65.9, -108.45 18.93 M-299.36 240.13 C-256.08 191.64, -214.38 142.91, -107.37 18.94 M-301.66 255.21 C-237.56 182.55, -171.48 107.18, -92.33 13.56 M-302.36 255.95 C-249.41 194.44, -195.17 132.84, -93.07 14.26 M-304.63 270.97 C-222.23 176.01, -139.54 78.8, -77.83 10.64 M-304.92 270.9 C-245.88 204.13, -188.27 138.17, -77.62 9.94 M-306.92 287.3 C-254.76 227.08, -204.69 167.89, -64.51 7.57 M-307.19 286.64 C-245.01 213.85, -180.28 139.12, -64.4 7.08 M-308.96 302.01 C-255.05 242.54, -202.05 179.63, -163.29 132.69 M-310.73 301.34 C-262.75 246.61, -214.11 192.95, -162.64 132.07 M-161.31 132.87 C-134.96 99.16, -105.21 64.93, -57.24 11.65 M-161.34 131.88 C-136.08 99.88, -109.09 71.39, -57.41 10.73 M-312.39 317.93 C-275.36 272.57, -238.44 231.16, -172.24 152.82 M-313.06 316.43 C-256.09 252.8, -199.27 188.62, -170.66 155.01 M-151.17 131.23 C-115.09 91.4, -79.93 53.08, -44.24 6.78 M-152.45 131.5 C-126.66 104.45, -103 75.93, -44.45 6.64 M-313.02 327.6 C-270.12 279.86, -229.69 231.42, -171.95 167.12 M-312.32 329.22 C-277.1 289.17, -244.77 249.76, -173.26 168.31 M-143.54 134.7 C-111.36 96.26, -77.57 56.96, -30.83 4.62 M-143.26 133.73 C-118.26 104.61, -93.45 75.2, -30.39 4.16 M-313.91 340.67 C-260.05 283.4, -208.83 223.81, -172.62 182.38 M-311.76 340.2 C-272.24 293.52, -231.57 247.21, -173.67 181.36 M-135.07 137.31 C-102.24 98.5, -70.83 64.48, -18.99 1.07 M-135.02 137.2 C-88.44 83.26, -43.33 31.35, -17.39 3.02 M-311.75 353.33 C-269.23 304.71, -230.1 258.96, -173.67 190.98 M-312.26 352.04 C-261.49 294.74, -213.34 239.43, -173.12 192.15 M-126.61 137.31 C-91.08 97.79, -53.17 55.92, -11.2 4.76 M-125.22 138.04 C-88.86 92.94, -50.36 50.93, -9.66 6.44 M-305.63 357.08 C-258.79 302.62, -209.83 247.7, -170.32 202.37 M-306.13 358.17 C-263.38 310.28, -220.92 260.98, -169.56 201.87 M-117.72 140.94 C-91.13 111.72, -64.64 81.21, 2.76 2.71 M-117.11 140.71 C-74.56 94.35, -34.57 46.32, 2.75 1.87 M-304.68 369.96 C-253.87 310.22, -202.54 251.03, -170.52 211.39 M-304.99 369.52 C-272.79 332.15, -240.05 295.37, -168.48 212.35 M-108.14 142.65 C-75.18 104.86, -36.62 65, 14.26 3.8 M-110.19 145.13 C-62.32 91.36, -16.65 37.34, 13.37 3.35 M-302.68 378.92 C-279.78 348.66, -252.16 318.53, -191.6 250.77 M-305.01 381.03 C-277.01 347.93, -248.41 314, -192.86 251.27 M-104.43 148.36 C-70.24 112.59, -40.88 79.37, 22.06 4.78 M-103.76 149.01 C-66.39 108.72, -31.07 66.13, 20.6 4.67 M-302.65 391.97 C-265.78 344.06, -224.63 298.04, -192.74 263.37 M-304.07 391.6 C-271.93 353.56, -237.82 315.04, -192.82 264.57 M-96.62 151.42 C-56.39 108.32, -13.62 60.47, 33.67 5.12 M-94.73 152.79 C-49.26 97.15, 0.44 41.56, 34.05 3.05 M-301.21 403.82 C-277.2 374.22, -252.95 347.88, -194.97 279.71 M-301.31 403.23 C-265.94 359.54, -228.1 314.15, -194.45 278.73 M-90 157.81 C-50.76 113.97, -14 70.94, 44.9 6.37 M-88.39 156.01 C-55.44 119.93, -21.84 80.44, 43.22 3.96 M-299.49 410.06 C-275.99 381.2, -249.24 352.05, -193.64 289.73 M-298.88 410.65 C-258.5 365.01, -218.33 319.2, -194.46 290.8 M-83.19 159.26 C-42.23 119.97, -5.92 76.71, 52.18 5.91 M-81.05 160.37 C-32.15 105.42, 17.86 47.6, 52.03 6.25 M-292.45 416.47 C-265.62 384.87, -239.81 354.52, -200.77 309.64 M-294.32 417.62 C-270.14 391.51, -248.15 366.06, -199.27 310.38 M-75.27 166.81 C-21.32 103.97, 32.24 43.45, 60.63 10.51 M-74.59 165.1 C-35.14 120.56, 3.69 73.69, 61.41 9.94 M-290.72 426.12 C-255.4 383.96, -218.47 344.32, -197.5 318.49 M-291.39 426.95 C-258.26 388.01, -225.14 351.36, -198.49 319.25 M-59.35 159.44 C-30.16 121.9, 2.94 86.52, 68.74 12.86 M-57.48 158.2 C-27.43 124.56, 0.69 90.16, 69.94 12.06 M-290.23 438.48 C-272.25 414.27, -253.58 394.45, -198.1 331.92 M-290.67 436.65 C-270.42 414.3, -250.61 390.96, -197.89 330.05 M-46.63 156.01 C-17.05 125.39, 12.49 92.23, 80.51 10.66 M-46.98 157.85 C-8.25 113.34, 29.99 68.81, 80.65 11.35 M-284.69 443.51 C-253.62 408.59, -222.91 372.27, -196.46 340.5 M-285.09 445.01 C-260.08 414.2, -232.62 383.3, -194.9 339.66 M-34.69 156.6 C-4.62 124.29, 25.36 84.54, 87.45 12.15 M-36.68 157.82 C-4.83 122.36, 26.45 84.46, 88.95 13.57 M-281.55 449.89 C-256.96 421.15, -230.99 393.22, -193.22 350.28 M-280.85 451.86 C-249.45 414.83, -218.31 378.54, -192.76 350.72 M-25.85 158.38 C-2.34 128.61, 24.72 97.47, 97.91 16.36 M-26.1 157.42 C19.52 104.94, 65.29 53.37, 96.43 17.1 M-278.05 460.79 C-261.26 436.57, -239.31 416.11, -191.22 357.77 M-278.51 459.31 C-249.19 427.32, -220.66 395.44, -190.94 359.64 M-15.2 156.47 C20.91 117.42, 55.15 75.68, 105.08 18.02 M-15.49 157.24 C25.42 109.07, 68.15 62.54, 104 18.85 M-275.32 466.81 C-255.89 444.36, -233.07 424.4, -187.37 366.19 M-274.04 467.68 C-240.67 427.13, -205.15 387.73, -186.07 367.83 M-0.7 152.47 C35.92 112.05, 72.79 69.82, 113.02 21.59 M0.92 152.62 C26.55 123.28, 51.68 93.61, 112.91 23.25 M-269.55 475.04 C-243.6 444.85, -218.9 416.88, -182.76 375.5 M-269.04 473.6 C-237.85 438.55, -206.49 403.8, -182.94 374.73 M11.74 154.24 C51.64 104.98, 94.7 56.98, 118.71 27.26 M10.91 152.48 C39.13 118.46, 67.63 85.77, 119.71 27.26 M-264.08 483.79 C-256.24 469.88, -242.76 458.49, -229.76 440.97 M-265.8 481.71 C-254.98 470.87, -246.06 460.11, -230.73 441.42 M-227.39 441.58 C-210.09 418.07, -192.73 398.17, -179.11 383.89 M-228.36 439.98 C-216.78 425.73, -205.03 411.83, -179.77 382.27 M22.55 152.52 C49.46 119.28, 77.44 88.92, 126.75 30.41 M19.66 153.57 C63.34 105.58, 103.73 57.78, 128.87 28.78 M-259.8 489.24 C-252.18 479.56, -243.79 469.14, -226.14 451.06 M-260 488.5 C-247.07 474.8, -234.99 459.13, -225.7 449.26 M-217.31 438.33 C-208.96 428.5, -198.36 418.43, -178.45 394.71 M-215.36 437.22 C-200.85 420.08, -185.57 402.14, -177.25 393.08 M30.06 154.3 C54.7 121.84, 82.65 91.37, 137.79 31.2 M31.1 154.07 C73.49 107.28, 114.28 59.13, 137.05 31.78 M-255.53 497.23 C-242.17 481.93, -231.9 467.91, -220.78 454.48 M-256.31 495.38 C-242.37 479.7, -229.94 463.79, -220.43 455.61 M-206.98 441.43 C-199.95 430.42, -188.78 419.57, -170.47 397.71 M-208.7 439.61 C-198.28 430.3, -188.91 419.35, -171.24 399.19 M40.95 156.11 C73.29 115.5, 107.63 77.7, 145.53 35.17 M40.72 154.46 C72.65 116.34, 105.16 79.08, 144.14 34.81 M-250.83 500.55 C-238.59 487.65, -225.66 475.3, -212.31 458.09 M-250.87 501.55 C-240.48 490.99, -231.07 479.94, -213.07 458.75 M-200.55 440.45 C-188.62 428.51, -175.24 416.71, -166.94 405.42 M-198.62 441.23 C-188.03 430.09, -177.29 417.03, -168 405.56 M49.8 157.67 C77.7 121.88, 107.41 90.4, 153.32 38.03 M48.33 155.77 C84.24 117.12, 119.43 76.33, 151.94 38.68 M-246.74 509.61 C-237.04 494.53, -226.53 484.02, -207.67 466.37 M-246.28 509.19 C-233.97 494.62, -223.57 483.03, -208.37 465.58 M-192.81 446.35 C-184.73 434.47, -173.47 426.71, -163.41 411.62 M-191.48 445.92 C-182.21 436.22, -172.68 425.07, -161.26 411.42 M57.02 159.25 C88.01 125.46, 118.14 90.29, 158.87 44.68 M58.63 157.87 C91.59 120.57, 124.99 80.37, 158.43 43.42 M-242.46 516.59 C-230.5 503.59, -221.22 492.88, -200.84 470.93 M-240.74 515.47 C-230.09 502.53, -219.22 491.02, -201.75 470.16 M-184.87 451.71 C-177.35 441.97, -168.45 435.51, -155.79 415.92 M-184.83 450.33 C-174.92 439.34, -163.35 425.54, -155.22 416.77 M64.84 160.98 C84.22 140.05, 107.8 116.11, 166.09 47.83 M64.8 162.7 C105.02 119.07, 144.47 73.35, 166.2 47.74 M-234.79 521.15 C-221.39 505.39, -207.77 490.47, -195.61 476.34 M-234.9 521.23 C-227.69 511.47, -220.05 503, -196.49 477.36 M-179.39 454.35 C-167.08 442.15, -155.87 433.14, -151.76 422.11 M-179.11 455.47 C-169.98 444.87, -161.36 435.49, -149.4 421.66 M75.08 166.57 C113.79 122.11, 149.97 77.64, 170.48 50.25 M74.8 164.86 C112.83 119.99, 153.01 75.81, 171.45 51.27 M-228.82 528.81 C-219.51 511.92, -203.93 500.54, -190.9 480.71 M-230.93 527.23 C-216.63 510.62, -201.67 493.85, -192.44 482.38 M-171.35 462.86 C-168.31 453.76, -162.22 447.54, -142.91 424.92 M-173.75 461.19 C-165.42 452.9, -159.65 444.62, -143.1 426.8 M89.85 158.47 C118.5 124.99, 148.79 94.65, 179.61 54.63 M91.74 156.68 C122.52 123.12, 152.19 86.4, 179.06 55.26 M-223.36 535 C-218.16 523.57, -208.93 514.49, -188.18 490.26 M-225.36 533.1 C-214.56 519.96, -202.97 507.73, -187.88 491.21 M-167.48 470.68 C-159.83 460.35, -152.53 448.68, -135.34 432.13 M-169.07 468.09 C-156.88 455.53, -146.68 442.52, -135.51 430.64 M109.04 145.47 C130.15 129.88, 145.44 110.01, 184.48 59.65 M109.91 146.76 C136.63 115.84, 163.87 86.6, 185.53 60.55 M-217.67 538.86 C-208.4 526.17, -200.11 515.3, -184.93 498.81 M-220.2 539.08 C-208.96 525.16, -197.21 512.74, -184.36 499.07 M-164.34 472.89 C-153.54 466.51, -145.29 454.26, -129.84 435.36 M-163.73 473.27 C-157.33 466.9, -150.62 459, -130.23 436.01 M129.38 140.71 C140.96 122.83, 156.98 110, 191.42 66.97 M127.46 139.87 C146.04 118.76, 164.49 98.01, 191.49 65.55 M-214.81 545.56 C-204.31 534.89, -194.67 521.94, -181.92 507.47 M-213.75 545.2 C-205.05 535.37, -195.99 524.38, -182.41 507.91 M-160.9 483.3 C-147.74 471, -137.52 457.49, -120.59 439.61 M-159.71 481.33 C-146.31 467.39, -133.4 452.3, -121.38 438.6 M143.62 132.42 C163.05 111.45, 184.55 86.21, 198.67 71.38 M146.15 130.57 C158.81 116.71, 172.09 102.71, 197.87 70.2 M-205.76 549.61 C-198.14 535.31, -184.61 525.15, -178.08 513.05 M-207.07 550.53 C-197.81 538.85, -189.39 528.81, -177.78 515.86 M-152.16 488.99 C-143.45 474.88, -134.61 463.67, -111.81 439.89 M-153.38 487.78 C-139.55 469.61, -123.64 453.4, -112.7 441.5 M158.69 131.11 C167.61 115.72, 178.54 103.22, 203.73 77.07 M157.15 130.34 C166.1 118.24, 177.18 108.66, 203.85 75.2 M-204.1 556.44 C-197.93 550.16, -190.99 543.3, -171.75 521.51 M-202.09 555.66 C-197 547.96, -190.46 540.79, -171.13 520.46 M-146.37 492.13 C-135.05 478.99, -125.23 469.89, -107.24 444.7 M-147.06 492.79 C-138.1 483.41, -129.95 473.98, -106.36 445.56 M167.38 130.51 C183.08 114, 200.27 93.64, 209.89 81.43 M167.27 131.42 C176.95 118.27, 186.68 107.7, 210.93 81.7 M-197.46 560.42 C-185.3 548.35, -177.5 541.62, -166.83 524.69 M-195.48 560.62 C-187.38 549.6, -178.76 539.19, -165.57 526.39 M-141.15 496.56 C-134.1 486.03, -125.24 476.68, -98.24 446.9 M-142.62 498.69 C-129.84 484.37, -116.6 469.28, -97.58 448.18 M168.54 140.49 C180.25 126.38, 191.14 117.09, 215.5 85.14 M170.75 139.61 C188.86 119.23, 205.52 97.97, 216.92 86.3 M-190.18 563.47 C-183.59 555.24, -176.27 547.16, -158.14 532.65 M-188.68 564.39 C-180.48 555.04, -173.55 545.47, -160.42 531.68 M-135.59 502.57 C-117.88 483.21, -104.04 466.07, -90.37 450.75 M-133.93 502.6 C-124.84 491.23, -114.39 477.72, -90.47 451.28 M173.41 149.49 C193.36 129.27, 211.59 104.96, 220.65 92.46 M172.23 149.66 C187.91 131.46, 201.51 114.95, 222.04 91.26 M-182.77 572.59 C-172.26 560.77, -162.02 546.39, -154.19 535.25 M-183.81 570.38 C-174.57 561.47, -165.23 549.97, -153.42 536.14 M-124.94 504.98 C-111.89 489.51, -98.82 470.89, -79.64 453.22 M-124.97 503.48 C-110.09 486.36, -95.4 470.05, -80.83 452.44 M175.12 155.99 C195.11 136.94, 212.76 117, 226.36 99.09 M175.8 156.56 C188.46 141.82, 203.01 128.1, 228.87 97.22 M-178.61 573.95 C-167.24 565.02, -161.63 556.62, -145.2 541.41 M-175.74 575.33 C-167.59 565.45, -159.21 554.92, -145.12 540.63 M-117.26 505.23 C-102.57 492.6, -92.18 475.34, -69.72 454.06 M-116.92 506.11 C-100.04 488.04, -82.69 468.26, -70.67 452.01 M175.29 168.98 C191.77 151.14, 207.92 134.25, 234.55 102.91 M176.2 169.04 C192.44 153.13, 206.84 136.28, 233.8 103.9 M-171.34 579.41 C-161.36 569.47, -150.36 557.24, -138.52 541.48 M-169.89 579.86 C-162.1 570.07, -154.53 562.87, -137.71 542.29 M-104.38 503.87 C-92.56 491.21, -80.16 477.23, -60.1 454.16 M-104.45 504.44 C-89.45 487.33, -72.78 467.02, -60.8 453.2 M174.45 182.79 C194.05 159.55, 214.09 134.92, 237.98 109.33 M176.87 180.17 C192.94 162.68, 209.69 143.25, 239.61 110.34 M-162.95 583.38 C-153.44 572.68, -142.87 562.16, -128.02 543.49 M-163.75 584.15 C-151.29 569.56, -140.42 555.91, -128.83 544.67 M-95.02 502.45 C-89.13 498.61, -84.52 493.75, -73.81 481.15 M-93.36 503.47 C-87.55 498.66, -83.45 491.4, -73.99 480.77 M174.85 195.17 C195.94 170.53, 218.27 145.03, 242.83 115.62 M173.32 196.45 C201.09 164.56, 228.32 132.16, 243.67 115.11 M-157.8 587.87 C-145.35 578.31, -137.51 566.13, -120.15 546.55 M-155.3 586.9 C-144.32 573.15, -130.56 558.97, -119.04 544.05 M169.61 215.51 C191.97 185.12, 213.54 158.61, 249.35 121.44 M168.53 214.06 C193.07 186.65, 217.66 157.82, 249.43 122.82 M-151.11 592.65 C-134.44 575.8, -119.84 558.06, -108.07 544.55 M-148.88 593.02 C-139.47 580.73, -129.59 567.32, -106.33 544.89 M174.07 220.45 C195.29 195.37, 216.42 170.91, 256.15 126.98 M174.29 220.25 C200.02 190.67, 226.36 161.35, 253.89 127.53 M-141.39 597.89 C-128.71 584.12, -116.82 567.62, -98.21 545.03 M-142.29 596.21 C-128.4 582.16, -116.91 566.75, -98.85 544.62 M181.18 225.14 C206.53 193.39, 238.12 159.96, 258.52 135.96 M178.64 227.21 C200.64 200.48, 223 174.81, 259.1 135.93 M-134.35 598.18 C-122.06 581.77, -107.83 567.73, -86.08 543.62 M-135.02 599.57 C-118.2 579.66, -99.03 559.73, -83.99 543.15 M183.28 232.41 C200.26 210.94, 220.4 189.68, 264.24 139.79 M183.47 233.59 C205.28 207.27, 227.07 183.51, 264.56 140.73 M-129.13 606.06 C-106.45 580.68, -85.75 557.75, -76.08 543.27 M-127.08 604.51 C-112.46 585.82, -97.45 568.92, -74.6 541.47 M188.23 242.03 C219.48 206.29, 247.77 168.91, 268.96 146.6 M187.65 240.78 C204.87 221.17, 223.06 202.01, 267.58 148.65 M-121.08 606.26 C-105.49 590.86, -92.36 571.46, -76.36 559.94 M-118.7 605.92 C-106.5 591.07, -92.15 574.75, -78.78 558.41 M191.37 250.48 C211.26 225.22, 231.21 201.49, 274.88 154.49 M191.97 249.7 C211.67 226.9, 232.96 204.01, 272.99 154.66 M-111.6 606.79 C-98.15 596.28, -87.26 581.81, -75.38 569.56 M-111.22 608.23 C-100.88 595.77, -89.54 584.55, -75.54 568.55 M196.26 254.47 C225.96 219.22, 256.05 184.09, 276.04 162.29 M196.92 255.24 C220.97 225.42, 246.06 195.95, 277.41 161.77 M-104.27 610.08 C-95.18 604.4, -84.77 594.9, -78.25 581.76 M-102.21 611.63 C-92.79 600.29, -82.11 589.88, -78.04 582.99 M197.41 265.2 C232.1 229.64, 262.39 193.82, 283.02 168.54 M198.36 263.65 C218.37 242.29, 238.54 219.45, 280.94 168.98 M-94.15 614.31 C-87.82 607.53, -81.43 598.91, -78.79 597.03 M-93.75 614.31 C-87.81 607.91, -83.16 601.28, -76.74 595.43 M198.77 276.07 C229.72 241.58, 262.09 205.1, 282.97 180.25 M201.06 275.11 C233.54 238.53, 265.85 201.72, 284.22 179.1 M200.97 286.04 C226.33 258.33, 250.57 233.29, 288.24 187.5 M201.27 286.19 C230.77 253.28, 259.63 219.79, 287.46 186.07 M62.49 458.45 C62.49 458.45, 62.49 458.45, 62.49 458.45 M62.49 458.45 C62.49 458.45, 62.49 458.45, 62.49 458.45 M201.84 300.31 C226.23 268.67, 253.91 237.78, 293.25 192.6 M201.48 297.93 C224.61 273.59, 248.16 247.58, 292.24 194.18 M67.18 465.53 C69.84 460.62, 72.19 458.16, 74.7 456.48 M67.55 464.01 C69.85 462.07, 72.02 460.41, 74.67 456.23 M202.9 311.07 C229.45 279.38, 260.01 244.34, 295.95 203.43 M201.16 310.41 C221.06 287.93, 240.95 264.16, 295.04 203.49 M72.98 470.48 C77.78 465.79, 79.18 460.19, 87.62 451.75 M72.59 470.91 C78.14 465.55, 83.58 458.86, 88.66 452.61 M202.57 321.11 C235.97 284.83, 265.49 249.04, 300.03 209.61 M201.49 321.65 C228.54 292.1, 255.99 261.61, 298.75 210.07 M78.08 479.22 C84.81 472.5, 89.63 464.08, 99.57 450.43 M77.49 478.98 C80.78 472.72, 85.96 466.41, 99.94 450.09 M197.21 340.73 C226.09 307.14, 256.83 271.51, 301.47 221.8 M197.58 338.45 C227.15 303.73, 257.04 270.24, 301.01 221.79 M80.21 486.37 C97.57 468.71, 111.59 450.49, 121.85 440.09 M79.37 486.4 C90.03 476.74, 97.13 466.51, 122.05 439.29 M192.89 357.36 C229.43 318.02, 264.11 279.81, 304.97 229.06 M193.18 357.09 C224.84 322.06, 254.98 285, 303.62 230.75 M76.61 499.94 C94.04 481.42, 112.27 462, 137.69 436.65 M78 501.74 C97.37 480.57, 115.06 460.13, 136.39 434.69 M191.6 371.71 C220.22 340.64, 244.9 307.39, 306.86 238.18 M189.91 372.36 C220.68 335.55, 250.78 300.8, 306.45 237.58 M78.69 512.55 C131.58 452.82, 183.88 393.89, 310.55 248.02 M79.4 512.87 C157.58 424.31, 234.2 334.41, 309.93 247.39 M78.27 523.59 C142.49 449.81, 208.43 374.15, 312.79 255.37 M78.92 524.17 C172.64 418.12, 264.82 311.03, 313.66 254.56 M82.81 532.66 C154.85 449.95, 228.39 367.01, 311.81 268.93 M83.27 530.89 C149.83 457.12, 215.15 381.59, 313.35 267.83 M81.43 544.48 C169.46 445.32, 255.35 347.94, 313.09 278.97 M82.07 544.63 C139.69 479.75, 198.84 412.86, 314.03 279.03 M81.8 556.65 C160.43 462.99, 242.01 370.11, 317.56 285.67 M82.52 558.01 C141.25 493.15, 197.18 427.62, 317.99 287.15 M81.7 569.03 C135.47 506.8, 188.41 445.98, 315.51 300.63 M82.79 569.41 C162.58 477.63, 242.49 385.79, 315.99 300.45 M77.62 586.05 C137.15 520.31, 195.24 454.84, 314.1 315.03 M78.07 586.59 C139.25 514.96, 201 444.53, 314.12 314.29 M79.35 597.32 C144.65 523.39, 209.38 449.67, 313.53 328.41 M78.46 598.16 C170.05 491.53, 262.94 385.04, 313.93 327.52 M82.3 606.92 C129.22 553.67, 174.91 497.77, 313.62 340.39 M81.18 606.92 C146.9 532.27, 211.96 456.07, 313.21 340.28 M86.28 613.34 C163.24 524.84, 237.44 439.33, 311.51 352.97 M87.67 612.02 C147.95 542.12, 208.63 471.97, 312.76 354.02 M96.67 614.84 C169.97 529.2, 241.42 443.18, 310.96 367.09 M96.69 614.81 C141.89 562.5, 186.16 511.36, 312.07 366.19 M112.68 607.54 C173.71 535.96, 238.18 467.12, 311.66 378.74 M111.63 608.65 C162.96 550.79, 214.97 492.35, 310.09 380.36 M124.8 605.07 C167.62 556.71, 213.43 504.76, 303.62 401.77 M125.37 604.97 C164.99 557.66, 205.08 512.39, 302.57 402.57 M144.31 593.71 C195.51 534.88, 246.26 477.08, 299.49 414.85 M145.38 594.64 C202.79 527.97, 259.46 462.62, 300.47 416.52 M166.14 581.54 C198.48 547.33, 228.33 511.64, 291.73 437.66 M166.67 582.28 C204.5 537.22, 242.99 493.65, 292.05 439.42 M187.9 571.21 C206.33 547.27, 226.73 524.65, 282.77 462.71 M187.43 570.42 C209.49 543.53, 233.54 516.51, 281.84 461.74 M-205 552.87 C-205 552.87, -205 552.87, -205 552.87 M-205 552.87 C-205 552.87, -205 552.87, -205 552.87 M-160.85 577.93 C-195.2 551.16, -226.19 522.87, -254.59 501.84 M-163.33 578.57 C-183.98 559.78, -207.04 540.29, -252.41 501.21 M-121.29 604.81 C-176.81 559.55, -231.08 511.76, -266.2 477.61 M-121.99 602.95 C-174.75 558.12, -226.43 511.01, -265.66 478.24 M-106.97 605.68 C-156.1 564.27, -206.08 520.81, -278.06 458.37 M-107.45 605.24 C-170.33 552.83, -231.06 500.42, -278.43 458.18 M-89.61 610.83 C-131.07 575.77, -171.26 538.19, -289.53 438.02 M-88.92 611.29 C-142.63 566.85, -196.2 519.61, -289.9 436.53 M-81.31 608.49 C-146.01 549.94, -210.71 494.17, -293.65 422.66 M-81.01 607.04 C-148.14 548.44, -214.62 491.26, -292.27 423.33 M-77.23 600.34 C-103.09 578.53, -128.39 555.41, -158.74 532.88 M-78.51 600.16 C-96.77 583.49, -114.12 566.71, -156.78 531.57 M-177.3 514.41 C-200.29 489.3, -228.24 466.47, -294.18 410.27 M-175.82 514.59 C-205.94 488.48, -236.81 462.42, -296.35 410.3 M-74.12 591.37 C-91.91 574.85, -112.79 557.71, -136.97 535.79 M-74.85 592.14 C-88.81 578.65, -104.5 565.66, -138.54 536.53 M-185.85 494.52 C-211.35 470.76, -241.32 447.07, -298.47 397.1 M-187.15 494.23 C-213.29 469.54, -242.32 444.64, -298.35 397.54 M-78.16 579.85 C-86.56 569.2, -97.6 559.97, -120.36 540.18 M-75.77 580.05 C-92.99 565.87, -108.36 553.24, -120.86 542.19 M-202.73 469.49 C-206.94 467.46, -211.38 461.19, -216.88 455.32 M-200.68 471.43 C-208.07 465.36, -215.59 459.32, -217.32 457.4 M-227.95 447.74 C-254.89 425.77, -277.71 405.03, -302.69 383.52 M-229.51 447.38 C-247.34 431.5, -265.13 416.12, -302.03 384.02 M-74.71 572.86 C-79.64 565.2, -87.95 559.67, -108.78 542.91 M-74.25 571.32 C-84.46 561.82, -95.75 553.13, -106.26 541.65 M-226.07 439.01 C-252.33 419.54, -271.71 400.42, -301.68 371.23 M-228.89 437.46 C-247.04 422.13, -265.45 404.73, -304.34 372.71 M-77.91 555.45 C-84.91 551.11, -90.35 547.55, -97.5 537.95 M-77.07 557.56 C-84.49 552.44, -88.27 548.53, -97.72 538.94 M-217.53 435.51 C-240.98 416.6, -263.6 391.58, -305.43 358.38 M-216.66 436.26 C-237.73 419.66, -257.36 403.03, -305.45 358.97 M-77.34 546.2 C-78.97 544.42, -82.16 543.07, -84.88 539.54 M-77.84 547.23 C-79.7 545.1, -81.14 543.07, -85.08 540.13 M-130.79 499.15 C-148.71 487.54, -161.07 471.97, -172.3 465.68 M-131.59 499.65 C-147.07 487.4, -163.23 472.46, -171.4 466.37 M-200.64 439.26 C-225.59 416.07, -253.67 393.17, -305.33 346.36 M-199.88 440.04 C-223.77 418.9, -246.55 398.95, -306.63 346.87 M-118.45 500.63 C-195.04 435.89, -272.63 369.2, -309.4 335.42 M-118.19 500.95 C-169.9 456.15, -222.82 411.09, -308.22 334.61 M-106.05 500.91 C-181.59 436.14, -255.17 372.34, -309.14 324.97 M-105.38 501.7 C-174.75 440.34, -245.07 378.59, -309.73 323.36 M-94.88 501.39 C-142.92 461.57, -186.61 422.49, -312 312.22 M-95.02 500.64 C-168.4 436.95, -242.69 372.36, -311.35 312.23 M-85.63 498.01 C-169.9 423.42, -257.63 350, -312.31 301.46 M-84.16 498.61 C-167.79 425.56, -251.03 354.42, -312.44 300.9 M-76.92 493.88 C-166.18 417.31, -256.45 339.08, -308.76 293.95 M-77.11 495.04 C-159.75 421.23, -242.95 348.72, -309.22 292.86 M-76.09 486.22 C-96.19 466.43, -115 448.07, -145.61 427.24 M-74.25 486.77 C-100.42 463.31, -125.47 440.97, -145.08 425.18 M-163.71 409.14 C-198.03 379.51, -231.45 351.07, -310.14 281.09 M-164.08 408.52 C-199.92 375.41, -236.92 343.46, -311.01 279.62 M-71.42 477.03 C-80.33 470.19, -91.3 462.8, -119.26 435.16 M-71.44 478.88 C-84.44 466.28, -97.05 456.12, -119.39 435.58 M-178.47 385.29 C-216.1 350.17, -256.56 320.04, -308.18 270.99 M-179.07 383.49 C-211.05 356.86, -243.43 328.14, -308.89 271.49 M96.13 612.67 C92.93 609.99, 86.03 604.98, 78.22 599.37 M95.11 611.32 C88.82 607.46, 84.98 602.22, 78.06 598.2 M-67.71 467.74 C-77.21 464.28, -86.12 455.73, -94.78 446.18 M-69.22 469.55 C-76.79 463.36, -85.73 454.86, -95.87 446.29 M-189.63 362.42 C-225.88 334.76, -258.57 303.39, -307.61 262.42 M-190.27 364.63 C-232.5 327.7, -272.16 293.2, -306.77 262.55 M103.02 608.36 C93.7 599.58, 87.03 595.24, 78.5 588.57 M103.78 609.08 C94.56 601.17, 87.04 594.57, 80.5 587.87 M-66.27 460.92 C-68.33 459.93, -74.79 454.38, -80.85 447.87 M-65.68 462.97 C-72.06 456.17, -78.49 450.97, -82.08 446.93 M-189.4 353.75 C-233.3 312.77, -279.55 276.15, -304.55 253.14 M-189.86 352.97 C-228.98 321.62, -267.52 288.75, -305.97 254.5 M113.66 606.46 C99.68 598.83, 91.36 585.49, 76.35 575.12 M113.75 607.47 C106.4 599.77, 98.05 594.91, 78.31 576.28 M-61.16 456.67 C-63.52 453.98, -66.96 451.7, -68.2 448.27 M-59.74 455.81 C-62.26 454.55, -64.11 453.06, -68.43 449.29 M-198.48 336.53 C-222.21 316.4, -247.51 294.41, -301.11 243.68 M-196.26 336.75 C-238.31 302.32, -277.77 268.36, -302.91 245.46 M120.2 601.85 C106.61 590.77, 93.07 578.11, 78.16 565.01 M121.32 603.12 C105.59 589.02, 91.31 576.41, 78.02 566.66 M-197.58 327.25 C-239.34 291.02, -279.22 257.8, -303.19 235.19 M-196.26 327.35 C-226.03 301.09, -257.1 276.16, -303.46 234.24 M126.7 597.59 C111.29 584.69, 99.54 573.9, 77.14 554.29 M127.53 598.99 C116.54 588.85, 105.39 578.94, 78.42 556.19 M-198.28 314.79 C-232.46 288.39, -264.4 258.19, -301.33 225.08 M-197.62 316.19 C-237.98 281.69, -279.16 244.53, -301.1 226 M135.82 595.5 C121.55 581.49, 102.53 566.95, 81.46 550.23 M136.66 595.87 C124.74 585.89, 112.24 574.71, 83.1 549.31 M-198.05 305.02 C-232.98 272.74, -267.83 244.01, -296.12 217.16 M-196.58 305.13 C-223.64 282.84, -247.02 261.01, -298.25 217.26 M144.57 594.37 C124.72 575.25, 105.21 557.86, 80 536.5 M145.32 592.8 C121.08 573.22, 97.85 553.11, 81.68 536.42 M-197.59 295.71 C-230.27 268.01, -263.53 236.65, -295.86 208.86 M-197.63 294.28 C-226.51 269.78, -253.9 245.22, -295.63 210 M153.53 589.94 C135.19 575.01, 119.55 556.53, 78.76 523.17 M153.11 587.64 C135.79 571.72, 117.29 555.72, 80.87 525.67 M-200.04 282.02 C-223.15 263.62, -245.53 239.7, -290.57 201.23 M-197.8 282.4 C-215.73 267.06, -236.41 248.92, -291.19 202.58 M162.07 585.51 C130.82 559.87, 100.35 532.95, 81.75 514.35 M160.89 584.57 C132.77 558.27, 104.18 533.78, 80.34 515.5 M-198.28 272.31 C-223.2 250.95, -248.83 226.96, -289.98 192.96 M-196.86 273.78 C-232.52 243.21, -267.58 213.68, -289.17 194.83 M169.33 578.09 C146.85 562.39, 128.03 548.24, 81.52 506.1 M166.75 579.27 C139.89 556.24, 111.05 531.35, 82.22 505.62 M-195.66 264.32 C-224.69 240.49, -251.32 217.44, -284.55 187.73 M-197.12 263.35 C-218.56 243.42, -242.05 223.85, -286.07 186.33 M175.96 575.63 C141.47 546.18, 109.52 519.61, 75.54 488.66 M174.75 575.2 C144.34 549.56, 112.87 522.29, 76.56 490.22 M-189.98 256.38 C-228.37 225.45, -261.65 197.08, -283.71 179.5 M-192.38 256.95 C-225.9 226.22, -261.75 194.73, -283.89 176.77 M179.69 572.37 C142.07 537.01, 101.64 502.96, 77 479.85 M181.45 569.86 C160.61 552.01, 138.04 531.86, 77.07 480.35 M-190.04 248.2 C-215.35 224.47, -239.15 204.9, -281.09 171.17 M-189.5 249.1 C-222.27 219.47, -254.43 191.79, -278.41 169.56 M186.98 564.87 C151.59 535.67, 115.23 501.36, 56.87 452.01 M188.62 565.89 C160.03 542.89, 135.42 520.5, 58.18 451.9 M-185.84 240.7 C-220.35 209.74, -255.83 180.03, -274.55 163.33 M-185.57 239.82 C-211.96 217.43, -235.61 195.54, -276.17 163.6 M195.11 562.01 C148.04 519.9, 104.8 483.9, 66.12 451.1 M194.29 560.04 C161.42 534.24, 131.1 507.31, 68.27 451.66 M-181.84 232.15 C-214.17 205.95, -243.84 179.5, -270.17 157.5 M-182.18 233.77 C-207.1 210.66, -232.38 188.01, -271.47 155.51 M201.12 557.58 C162.45 522.99, 127.53 493.75, 74.46 444.19 M200.72 554.78 C152.19 514.77, 101.56 472.04, 75.43 445.81 M-179.24 227.43 C-200.91 207.68, -222.41 187.33, -268.76 150.2 M-176.72 226.52 C-197.22 208.83, -219.22 190.33, -267.91 148.74 M206.58 551.73 C160.61 509.92, 112.86 468.35, 87.16 447.71 M206.14 550.72 C178.92 526.46, 150.03 502.08, 87.28 445.24 M-174.44 220.11 C-194.71 201.42, -216.41 182.65, -262.57 143.57 M-173.85 219.63 C-192.21 203.31, -210.93 186.77, -262.05 143.09 M212.86 545.56 C169.23 507.53, 124.96 470.52, 96.2 446.32 M213.02 544.22 C183.2 517.83, 151.14 489.68, 97.03 445.32 M-167.32 214.97 C-196.77 189.62, -223.26 167.06, -258.6 134.71 M-168.71 214.18 C-189.12 194.8, -210.49 176.3, -257.76 135.19 M220.09 540.47 C181.23 508.42, 148.13 478.15, 105.59 443.17 M218.09 539.74 C177.77 504.96, 136.02 468.36, 105.97 443.21 M-168.52 202.95 C-192.39 181.81, -213.13 164.97, -253.55 128.36 M-169.28 200.68 C-201.67 175.71, -229.92 150.12, -254.16 128.07 M225.94 532.81 C184.03 502.38, 147.35 467.16, 114.9 436.78 M224.01 533.5 C194.34 509.23, 165.27 483.23, 113.83 437.76 M-171.82 189.38 C-187.85 172.97, -204.14 160.13, -247.84 122.91 M-171.71 188.35 C-199.19 166.9, -224.44 144.67, -248.63 122.19 M230.87 527.28 C197.67 496.49, 162.35 466.8, 124.49 436.84 M229.73 527.84 C197.47 502.01, 165.36 473.35, 123.11 436.27 M-174.23 176.31 C-194.87 159.72, -217.91 142.54, -242.62 117.71 M-173.44 178.41 C-199.23 153.01, -227.54 129.9, -244.83 115.82 M234.35 520.84 C195.83 487.96, 158.27 454.29, 130.71 433.82 M235.65 522.17 C208.6 498.69, 184.51 476.65, 131.27 433.14 M-174.02 168.47 C-191.73 151.94, -212.21 131.81, -240.49 111.72 M-174.2 167.06 C-200.08 144.15, -226.02 122.38, -238.41 110.59 M239.41 515.41 C204.04 481.47, 166.97 451.57, 138.21 425.46 M241.18 516.68 C210.85 492.32, 181.97 466.09, 138 427.29 M-171.62 159.15 C-184.7 144.67, -198.9 135.79, -232.79 104.92 M-169.96 158.38 C-191.02 140, -213.21 122.52, -233.33 103.95 M247.58 509.28 C223.82 489.96, 204.38 471.28, 147.46 424.05 M244.68 510.67 C219.32 487.78, 193.43 465.34, 145.75 422.54 M-169.27 148.38 C-190.25 129.87, -213.14 113.31, -226.57 98.89 M-169.5 149.45 C-185.53 135.75, -202.63 119.86, -227.76 98.78 M252.46 505.62 C213.58 468.83, 175.48 438.4, 151.16 418.62 M250.02 504.17 C229.12 484.57, 209.06 466.93, 153.17 418.71 M-167.36 140.78 C-181.08 127.16, -194.11 115.63, -223.33 90.18 M-165.83 141.26 C-185.47 125.12, -204.31 109.64, -223.94 91.69 M258.13 495.95 C218.53 462.61, 176.47 428.7, 157.04 412.14 M256.06 498.35 C233.19 478.54, 212.36 458.95, 158.93 413.86 M-163.77 134.9 C-178.21 119.35, -190.26 108.53, -216.32 84.97 M-162.48 133.04 C-181.02 119.27, -195.93 104.12, -216.33 86.75 M260.24 492.78 C232.66 464.27, 200.68 439.89, 166.16 408.15 M260.62 491.14 C221.92 457.73, 183.63 425.67, 164.91 407.95 M-157.56 127.27 C-170.48 116.24, -182.11 106.74, -210.74 83.11 M-156.24 129.25 C-171.79 115.75, -186.65 102.79, -210.94 80.46 M265.46 484.88 C242.95 467.44, 219.03 445.79, 169.56 400.28 M265.01 485.54 C240.53 462.62, 214.58 439.04, 169.98 401.28 M-141.29 128.36 C-167 107.69, -190.37 90.2, -203.52 74.05 M-142.4 128.63 C-166.66 108.17, -191.38 86.65, -206.02 76.76 M271.25 477.33 C248.73 461.74, 225.39 439.79, 176.84 395.33 M268.81 478.66 C234.8 447.4, 198.79 417, 175.5 396.66 M-123.5 136.68 C-148.02 118.06, -169.51 99.12, -198.05 70.23 M-124.3 135.24 C-146.88 116.51, -167.54 97.29, -199.85 71.33 M271.83 469.53 C235.22 436.21, 200.88 406.82, 179.62 390.17 M272.77 470.75 C244.24 444.65, 214.74 418.71, 179.81 389.23 M-90.12 155.2 C-121.73 130.61, -149.84 101.39, -193.42 65.7 M-89.72 155.9 C-122.12 127.95, -152.2 101.53, -192.97 65.29 M278.47 463.17 C238.84 433.66, 203.29 399.5, 184.31 383.59 M276.19 464.08 C249.65 438.21, 222.31 414.78, 183.98 383.37 M-72.6 158.85 C-98.18 136.47, -126.06 114.19, -185.5 59.52 M-74 156.68 C-117.25 120.33, -160.18 82.97, -186.19 59.55 M279.97 454.89 C251.01 429.38, 217.61 402.69, 186.35 375.02 M282.32 456.75 C247.38 425.44, 212.78 396.73, 187.08 374.41 M-66.03 155.82 C-104.18 122.46, -140.17 88.79, -179.55 54.34 M-65.17 155.22 C-89.46 133.27, -115.68 112.01, -180.34 56.43 M286.41 448.34 C260.07 427.65, 235.18 404.89, 191.2 369.21 M285.13 449.61 C250.56 418.39, 216.7 389.41, 192.15 368.24 M-54.04 154.4 C-96.87 114.39, -143.47 74.95, -173.61 49.81 M-55.85 152.56 C-92.34 119.28, -130.59 85.62, -172.5 50.02 M288.38 440.78 C261.2 417.12, 235.03 394.55, 193.35 359.53 M289.62 441.93 C269.89 425.99, 250.32 408.71, 194.21 359.73 M-47.01 152.25 C-75.82 125.23, -105.73 98.01, -165.41 47.2 M-44.44 151.39 C-86.4 114.81, -126.14 78.13, -166.03 45.84 M291.53 434.47 C267.88 412.61, 246.84 393.4, 197.35 352.65 M291.21 433.78 C254.59 400.92, 218.11 369.95, 198.28 352.31 M-34.77 151.02 C-64.17 127.37, -93.49 100.28, -159.15 42.76 M-34.88 149.67 C-77.87 112.27, -119.18 75.24, -158.29 41.18 M296.27 423.25 C272.34 404.45, 248.8 385.68, 200.74 343.89 M294.62 425.61 C270.83 402.47, 244.24 381.12, 199.35 342.38 M-18.62 151.55 C-62 115.32, -106.18 77.46, -150.75 38.35 M-19.55 152.9 C-58.58 118.51, -100.81 82.49, -150.93 36.75 M297.07 416.61 C265.06 390.44, 233.75 360.84, 202.37 333.19 M298.03 417.32 C259.48 385.97, 221.37 353.54, 201.66 334.24 M-7.13 152.88 C-47.28 120.07, -82.76 88.46, -144.87 32.85 M-8.24 152.04 C-44.8 120.82, -80.98 88.38, -145.85 33.06 M301.92 411.02 C262.26 373.46, 221.58 342.81, 204.38 323.14 M301.61 410.58 C264.46 378.59, 225.31 344.01, 203.67 325.13 M0.94 149.87 C-27.49 122.93, -61.37 97.68, -134.1 30.02 M2.1 150.18 C-46.21 106.33, -97.22 62.76, -135.45 29.32 M305.04 399.32 C274.38 376.61, 244.9 351.29, 203.9 314.95 M303.21 401.21 C278.79 379.18, 254.08 357.48, 202.83 314.24 M15.16 148.63 C-42.36 104.78, -96.03 53.95, -127.53 27.37 M14.76 150.92 C-40.67 103.52, -94.17 56.51, -128.18 27.25 M306.52 392.53 C274.38 366.14, 246.86 341.28, 206.13 305.14 M305 392.03 C280.01 368.73, 254.02 347.88, 203.58 304.33 M23.55 146.71 C-5.71 121.56, -34.29 96.3, -119.71 21.98 M24.45 147.67 C-32.39 96.74, -90 47.45, -120.49 21.98 M310.93 384.01 C282.21 363.22, 254.06 339.19, 203.28 292.88 M309.08 386.02 C283.9 362.34, 256.94 339.88, 203.33 294.12 M42.26 154.52 C-17.31 99.22, -77.6 45.01, -110.34 19.19 M41.99 152.21 C-13.82 102.62, -68.81 54.65, -111.4 19.61 M311.1 373.51 C280.18 350.69, 250.72 325.54, 202.1 283.29 M310.3 375.3 C271.57 340.45, 233.44 307.44, 202.98 282.59 M60.17 158.18 C11.41 117.09, -33.65 76.97, -105.66 14.81 M59.8 157.36 C6.66 113.58, -44.54 67.56, -103.8 14.74 M310.93 364.31 C273.19 332.85, 234 298.13, 200.13 271.44 M309.98 365.32 C280.01 337.78, 248.32 308.48, 202.18 269.96 M77.91 161.32 C24.2 117.07, -24.8 70.67, -94.07 12.86 M76.28 161.86 C20.12 112.69, -38.62 62.41, -92.65 14.38 M313.61 356.68 C286.84 337.07, 263.91 316.92, 199.92 257.08 M311.21 355.35 C286.98 332.8, 261.34 310.37, 200.55 257.41 M84.57 156.12 C38.47 120.37, -4.88 78.83, -85.53 12.33 M82.63 157.06 C43.13 122.03, 2.85 87.35, -84.42 11.68 M314.6 348.53 C282.28 316.77, 245.79 286.83, 187.51 240.01 M316.8 348.07 C275.34 314.25, 233.44 278.16, 189.14 237.48 M92.69 155.27 C42.64 109.98, -6.7 67.78, -78.29 6.95 M91.82 154.22 C49.43 116.32, 5.87 79.15, -77.1 7.24 M315.33 338.15 C282.02 310.62, 251.18 281.1, 168.53 209.91 M315.99 337.35 C286.22 311.32, 254.88 284.45, 169.54 210.9 M99.28 150.39 C43.8 103.95, -9.66 56.36, -68.05 4.2 M98.6 148.9 C41.65 99.94, -14.24 51.91, -66.52 4.96 M313.85 324.69 C273.79 295.02, 236.88 261.01, 172.82 203.97 M314.08 325.73 C273.75 289.22, 230.77 251.08, 171.52 203.18 M105.54 143.18 C48.3 95.31, -11.46 45.97, -60.9 0.06 M103.62 142.74 C58.18 102.69, 12.22 64.86, -58.54 1.33 M316.21 316.97 C267.37 275.69, 223.91 236.71, 173.69 193.44 M314.82 316.17 C275.11 280.04, 237.22 246.55, 175.24 194.22 M113.69 139.06 C51.03 85.93, -11.57 33.52, -47.83 1.81 M112.83 139.6 C51.06 86.1, -11.35 33.84, -46.13 2.24 M318.25 310.73 C292.8 281.15, 260.2 256.26, 175.58 185.25 M319.24 308.39 C288.77 281.92, 257.86 254.92, 176 184.85 M121.08 135.38 C63.28 84.3, 4.77 34.32, -37.04 -0.79 M120.34 136.38 C60.15 82.62, -2.71 29.13, -35.61 0.26 M317.52 294.9 C262.56 248.97, 208.06 202.15, 175.01 173.59 M316.48 296.08 C281.76 267.66, 247.14 237.03, 176.08 173.51 M129.58 133.2 C94.96 107.66, 65.67 78.24, -26.08 -3.51 M129.1 133.92 C68.05 81.48, 8.29 28.86, -28.39 -3.06 M313.94 283.78 C277.48 248.8, 237.95 215.74, 178.51 165.94 M313.53 282.11 C275.58 248.86, 238.25 216.17, 177.75 163.18 M140.29 131.93 C96.21 90.92, 48.31 51.11, -14.24 -3.6 M139.45 132.62 C103.96 99.94, 68.33 69.74, -14.82 -1.54 M309.19 271.37 C261.81 226.26, 209.28 181.5, 175.62 153.19 M311.61 269.82 C268.93 232.46, 225.68 195.62, 175.23 150.58 M151.42 127.95 C111.97 95.79, 71.81 63.09, 0.98 -0.83 M149.51 130.32 C93.64 81.61, 39.38 34.72, 0 -0.72 M315.76 263.97 C274.72 224.14, 232.16 191.01, 171.19 136.09 M314.17 262.68 C267.05 222.02, 219.73 180.99, 170.01 137.57 M162.85 130.25 C99.9 77.32, 41.55 27.59, 14.92 -0.98 M161.47 128.55 C125.83 99.3, 90.89 69.04, 13.32 -0.63 M310.14 247.51 C227.34 175.47, 144.55 101.81, 19.71 -4.51 M310.73 248.14 C209.04 159.66, 106.8 70.92, 19.98 -3.96 M307.22 233.29 C245.76 181.75, 183.51 128.39, 34.91 -1.35 M307.03 234.26 C198.83 141.49, 92.21 49.35, 34.24 -1.86 M301.66 220.06 C202.98 132.49, 102.84 45.76, 50.39 1.74 M302.37 219.54 C246.44 171.96, 192.05 123.78, 50.45 0.68 M296.77 203.47 C220.06 135.46, 140.29 70.14, 67.09 4.85 M296.99 205.14 C238.54 154.38, 180.14 104.35, 66.01 3.14 M290.55 188.43 C235.31 139.9, 176.75 90.18, 82.52 7.98 M292.01 189.81 C246.83 151.34, 199.17 109.46, 81.12 7.23 M285.48 175.31 C220.62 118.27, 155.5 59.81, 98.3 11.06 M287.39 174.69 C223.82 119.35, 159.05 63.42, 97.06 9.8 M269.49 149.36 C218.65 105.68, 170.61 60.83, 122.85 24.25 M269.83 150.43 C234.17 118.55, 199.92 87.41, 124.06 23.23 M253.17 124.44 C218.61 92.73, 183.93 61.21, 153.02 35.62 M252.91 124.61 C211.76 89.56, 171.88 53.46, 151.66 36.84" stroke="black" stroke-width="1" fill="none"></path><path d="M0 0 C0 0, 0 0, 0 0 M0 0 C0 0, 0 0, 0 0 M0.64 0.12 C-6.14 -0.88, -12.38 -0.76, -15.26 -0.44 M-0.61 0.04 C-5.25 0.55, -11.8 0.05, -15.58 0.3 M-15.1 1.59 C-21.8 0.82, -27.41 -0.48, -33.52 1.35 M-16.39 0.45 C-21.24 1.33, -25.2 0.7, -31.75 2.23 M-31.56 1.86 C-35.42 3.51, -39.84 1.97, -47.13 4.59 M-32.33 2.13 C-34.88 1.89, -38.73 2.36, -48.61 3.23 M-46.49 3.58 C-53.35 5.31, -59.21 4.94, -62.29 6.82 M-47.77 3.09 C-51.86 3.9, -56.34 4.37, -63.75 6.87 M-63.18 6.82 C-69.85 8.66, -76.43 10.58, -77.36 9.59 M-63.97 6.29 C-69.25 8.22, -74.78 9.41, -79.01 9.35 M-77.63 9.72 C-81.94 10.93, -87.27 10.84, -93.77 14.11 M-78.36 10.32 C-85.03 12.07, -91.01 12.94, -93.84 14.63 M-92.44 13.67 C-96.8 16.1, -102.92 15.68, -109.52 18.81 M-93.63 13.51 C-97.48 14.91, -101.08 17.19, -107.45 18.88 M-107.13 17.64 C-112.32 21.47, -117.58 22.07, -123.64 24.49 M-107.35 18.63 C-112.08 20.4, -116.84 23.26, -123.11 25.36 M-122.59 23.35 C-125.41 25.39, -132.56 28.13, -135.9 31.72 M-122.53 24.53 C-124.95 25.36, -128.14 27.8, -136.42 30.69 M-137.78 29.63 C-139.27 32.72, -144.01 34.6, -151.17 36.85 M-135.84 30.91 C-141.45 34.24, -145.84 36.37, -150.33 37.96 M-151.03 37.54 C-153.56 39.33, -155.46 41.31, -163.84 44.71 M-149.58 37.63 C-153.9 40.6, -157.71 42.92, -163.44 46.19 M-162.83 44.84 C-168.04 47.61, -172.94 50.69, -174.49 52.37 M-163.03 44.86 C-167.5 49.03, -171.8 51, -175.82 54.22 M-177.11 54.05 C-181.07 56.81, -185.47 62.05, -189.49 61.82 M-175.23 53.95 C-178.62 55.3, -182.19 57.71, -187.99 62.39 M-188.85 63.93 C-191.78 65.66, -194.22 66.79, -201.15 72.93 M-188.53 62.98 C-192.88 66.48, -197.9 69.19, -200.66 71.91 M-200.53 71.48 C-204.21 73.82, -207.34 79.19, -211.68 80.94 M-200.72 72.21 C-203.36 74.58, -206.6 77.07, -210.69 81.86 M-212.83 81.54 C-215.32 84.23, -215.87 86.92, -222.39 93.59 M-211.59 81.14 C-214.22 84.48, -216.43 86.93, -222.92 91.69 M-222.85 90.67 C-224.23 95.14, -226.25 96.16, -233.39 104.48 M-222.72 92.43 C-226.03 95.93, -229.5 100.1, -232.53 102.78 M-232.94 102.81 C-235.39 106.44, -237.04 110.44, -241.91 113.19 M-233.36 102.96 C-236.72 107.56, -240.61 112.24, -242.94 114.8 M-242.95 113.16 C-244.48 119.81, -247.92 122.93, -251.11 125.8 M-243.24 113.73 C-246.4 118.2, -249.3 123.38, -252.65 125.82 M-252.96 126.84 C-255.28 130.13, -258.55 135.13, -259.25 138.82 M-251.57 126.99 C-254.6 128.99, -257.23 132.81, -261.07 139.26 M-261.58 139.75 C-262.92 141.6, -265.88 147.46, -268.52 151.79 M-261.28 138.05 C-263.11 143.8, -266.97 147.3, -269.03 151.86 M-268.71 151.19 C-270.04 153.54, -273.25 157.95, -277.3 163.22 M-268.93 151.98 C-272.29 156.06, -273.71 160.39, -276.94 165.19 M-276.83 165.9 C-280.02 170.77, -281.07 174.55, -282.84 177.24 M-276.58 164.89 C-278.5 168.31, -280.57 172.35, -283.85 178.17 M-284.7 179.45 C-284.9 184.42, -287.7 188.87, -288.72 193.48 M-283.19 177.61 C-285.55 181.69, -287.52 187.13, -290.17 192.53 M-288.62 192.34 C-291.49 198.17, -294.93 201.6, -295.44 207.54 M-290.43 192.08 C-292.8 196.99, -294.94 203.1, -295.14 206.8 M-294.4 207.61 C-296.88 210.06, -298.02 213.74, -301.73 222.23 M-295.56 206.84 C-297.15 210.7, -298.11 214.23, -299.62 220.27 M-300.34 220.53 C-301.29 224.01, -301.45 225.57, -304.22 235.86 M-300.32 221.02 C-301.24 225.36, -302.5 231.47, -305.11 236.18 M-303.04 234.59 C-305.92 240.33, -305.63 242.13, -308.07 250.42 M-303.8 235.95 C-306.35 239.84, -307.03 244.53, -308.79 251.85 M-308.06 251.21 C-310.21 258.24, -309.85 263.82, -311.28 266.02 M-308.35 251.47 C-308.86 257.7, -310.62 262.64, -310.22 266.46 M-310.98 267.13 C-310.48 269.23, -311.85 275.37, -312.13 282.92 M-310.71 265.99 C-311.73 270.62, -311.56 273.31, -312.69 282.02 M-314.4 282.73 C-314.59 287.44, -314.72 292.26, -315.28 298.86 M-312.75 282.17 C-313.91 286.13, -313.78 290.92, -314.34 298.82 M-314.99 299.51 C-313.99 302.57, -315.06 303.54, -314.09 314.42 M-314.07 297.5 C-314.44 302.64, -314.79 307.98, -314.09 314.69 M-314.43 315.52 C-314.51 319, -313.03 325.8, -313.1 327.04 M-314.84 314.77 C-314.17 318.03, -313.72 322.3, -314.06 327.94 M-313.21 327.15 C-314.6 331.25, -312.48 336.25, -312.23 339.66 M-313.82 327.77 C-313.62 332.39, -313.66 337.29, -313.99 340.81 M-313.72 341.21 C-313.15 342.4, -312.46 347.73, -311.02 351.99 M-313.05 340 C-312.96 343.63, -312.82 345.48, -312.57 352.59 M-312.82 353.99 C-310.2 357.11, -309.74 361.87, -309.27 365.19 M-311.73 353.05 C-311.26 357.57, -311.26 362.93, -310.78 364.92 M-310.64 366.18 C-310.31 368.45, -310.06 371.87, -306.93 377.27 M-309.96 365.53 C-310.19 368.96, -308.79 371.89, -308.55 377.91 M-307.73 378.14 C-306.93 382.55, -305.47 388.46, -305.16 389.85 M-307.93 378.24 C-307.39 382.59, -305.6 385.8, -305.79 389.75 M-306.16 389.08 C-304.59 393.4, -305.03 395.58, -301.1 400.97 M-305.63 389.83 C-305 392.27, -303.93 395.19, -301.6 401.76 M-301.79 402.5 C-301.31 406.98, -299.8 410.46, -298.91 414.37 M-302.11 401.95 C-300.87 405.3, -299.3 410.09, -298.99 414.1 M-297.83 412.91 C-297.69 418.99, -294.7 422.74, -294.68 424.9 M-298.91 413.7 C-296.94 417.06, -295.63 421.16, -294.13 425.92 M-294.65 426.14 C-293.57 429.21, -292.13 432.34, -289.83 437.6 M-294.31 425.47 C-293.31 428.82, -291.23 432.7, -289.76 437.29 M-290.88 436.26 C-287 440.44, -286.77 446.05, -283.57 448.34 M-289.31 437.19 C-288.2 439.69, -287.06 441.98, -284.49 448.03 M-285.68 448.16 C-282.79 452, -279.83 456.45, -278.76 457.79 M-284.27 448.4 C-282.65 450.77, -281.16 455.04, -279.95 458.49 M-280.02 459.97 C-276.06 467.14, -268.47 474.72, -268.78 479.65 M-278.41 459.01 C-276.05 465.77, -273.14 470.23, -267.84 479.97 M-265.99 478.77 C-263.35 486.96, -261.3 489.75, -252.89 501.84 M-266.83 479.46 C-263.45 485.7, -259.96 490.48, -253.41 499.71 M-252.52 498.4 C-249.76 506.53, -246.92 510.51, -239.66 520.22 M-253.94 501.13 C-247.97 506.43, -244.4 513.9, -238.53 519.24 M-238.52 520.13 C-233.71 526.12, -224.15 534.56, -222.87 537.94 M-239.12 518.35 C-232.82 526.02, -225.46 533.51, -222.25 537.77 M-224.21 536.32 C-219.81 541.93, -213.65 545.82, -204.72 553.38 M-223.05 536.62 C-215.05 544.16, -209.39 549.97, -203.83 554.11 M-202.75 555.05 C-200.91 556.91, -196.68 560.43, -185.59 566.87 M-204.41 552.77 C-197.43 558.83, -193.23 563.83, -186.41 567.8 M-185.97 566.87 C-180.38 571.66, -171.5 577.64, -163.69 581.36 M-185.49 568.12 C-178.16 573, -169.55 577.83, -165.66 581.28 M-164.04 581.41 C-160.45 585.74, -157.95 588.48, -144.78 593.1 M-164.86 582.61 C-160.38 584.2, -156.12 588.19, -145.46 593.02 M-143.68 593.99 C-142.21 595.68, -139.13 596.02, -133.21 599.29 M-144.83 593.91 C-140.93 595.53, -137.12 596.96, -133.64 598.89 M-132.86 598.47 C-130.47 601.43, -127.43 600.61, -123.16 604.91 M-134 599.08 C-129.44 600.28, -126.45 602.82, -122.78 604.49 M-121.29 603.15 C-119.69 605.9, -116.27 607.44, -111.1 607.99 M-121.81 604.53 C-119.84 604.77, -116.86 605.65, -111.48 608.65 M-111.65 608.69 C-106.33 610.45, -104.02 610.35, -99.88 613.72 M-110.84 609.12 C-107.6 610.63, -102.71 611.59, -99.19 612.77 M-99 613.19 C-97.88 613.28, -96.13 613.09, -94.46 612.88 M-99.27 612.99 C-97.22 613.13, -95.3 613.02, -93.93 613.27 M-94.01 613.66 C-92.23 613.21, -90.55 613.24, -89.74 613.31 M-94.05 613.26 C-93 613.34, -91.87 613.07, -89.2 612.95 M-89.37 612.64 C-88.14 612.74, -87.03 611.79, -85.96 611.76 M-89.24 612.97 C-88.53 612.61, -87.75 612.12, -85.85 611.38 M-85.49 611.77 C-84.89 610.77, -84.15 610.26, -82.79 609.43 M-85.72 611.56 C-85.21 611.07, -84.49 610.47, -82.73 609.3 M-82.85 609.43 C-82.11 608.87, -81.26 608, -80.77 607 M-82.93 609.57 C-81.99 608.59, -81.61 607.81, -80.45 606.83 M-80.75 607 C-79.86 605.95, -79.35 604.82, -78.77 604.13 M-80.42 606.99 C-80.25 605.9, -79.71 605.06, -79.05 603.89 M-79.03 604.2 C-78.76 602.91, -78.39 601.46, -78.07 601 M-78.96 603.9 C-78.67 603.13, -78.53 602.26, -78.34 600.89 M-77.95 600.71 C-77.97 600.18, -77.9 598.82, -77.87 597.43 M-78.33 600.78 C-78.13 600.24, -78.25 599.36, -77.83 597.56 M-77.76 597.78 C-78.01 596.8, -77.94 595.62, -77.72 594.28 M-77.99 597.71 C-78.1 596.11, -78.03 594.77, -77.83 594.03 M-77.9 593.92 C-77.68 592.89, -77.56 591.25, -78.19 589.53 M-77.79 594.26 C-78.13 592.73, -77.78 591.08, -77.8 589.14 M-78.11 588.6 C-78.51 586.7, -77.98 585.78, -77.68 582.57 M-77.78 588.94 C-77.92 586.65, -77.84 584.57, -78.15 582.52 M-78.72 582.56 C-78.48 580.34, -77.57 578.72, -78.3 575.55 M-78.23 582.97 C-77.78 580.17, -78.03 578.11, -78.36 575.73 M-78.21 575.41 C-78.79 574.01, -78.66 571.51, -78.05 567.44 M-77.92 575.12 C-78.21 573.22, -78.18 570.57, -78.04 567.43 M-77.47 567.05 C-77.56 564.91, -78.67 561.16, -77.4 558.1 M-78.29 567.23 C-78.48 564.89, -78.52 561.88, -78.1 558.05 M-77.82 556.52 C-80.01 551.89, -76.79 550.09, -79.43 540.26 M-77.5 559.11 C-78.38 552.02, -78.98 546.21, -79.12 539.8 M-77.92 539.19 C-80.52 539.81, -82.65 540.16, -86.07 540.87 M-78.48 538.89 C-80.57 539.68, -83.32 540.5, -86.49 540.99 M-86.99 541.35 C-88.47 540.96, -89.71 541.17, -94.07 541.81 M-86.58 540.8 C-88.91 541.41, -91.29 541.73, -93.83 541.5 M-93.32 541.56 C-97.36 542.49, -100.26 541.93, -100.57 542.87 M-94.24 541.52 C-96.91 542.12, -99.3 542.12, -101.08 542.59 M-100.63 542.59 C-101.86 542.91, -104.02 542.75, -108.7 542.7 M-101.51 542.56 C-102.77 542.46, -104.62 542.88, -107.94 543.04 M-107.6 542.64 C-109.94 543.13, -111.6 543.56, -114.46 543.42 M-107.8 543.27 C-110.18 543.06, -113.06 542.93, -114.81 543.1 M-114.55 543.43 C-116.76 543.54, -118.3 543.42, -120.72 542.57 M-114.39 543.01 C-116.84 542.89, -119.18 543.03, -120.35 542.97 M-120.68 542.37 C-124.5 542.99, -128.04 541.35, -132.46 541.03 M-120.7 543.08 C-123.92 542.77, -125.98 541.94, -131.95 540.87 M-132.69 540.83 C-134.48 539.86, -139.43 539.75, -142.24 539.47 M-132.31 541.01 C-134.58 541.19, -136.46 539.76, -141.31 539.28 M-142.51 539.2 C-144.65 538.7, -146.41 537.58, -151.14 535.87 M-142.14 538.76 C-145.34 537.86, -148.37 536.06, -150.17 535.97 M-150.46 536.33 C-151.77 534.11, -155.39 533.23, -157.48 531.34 M-150.02 536.15 C-152.25 534.85, -154.43 533.92, -157.86 532.16 M-157.95 532.18 C-159.87 530.63, -161.18 529.4, -164.85 528.2 M-157.79 531.7 C-160.15 530.44, -162.44 529.34, -164.3 527.9 M-164.75 528.34 C-165.13 526.61, -167.28 525.09, -170.02 522.69 M-164.11 527.81 C-165.15 527.11, -166.34 525.66, -169.29 523.22 M-169.57 523.76 C-170.52 522.51, -172.31 521.42, -173.85 518.5 M-169.16 523.49 C-170.66 522.22, -171.48 521.51, -173.75 518.56 M-173.34 518.91 C-174.88 517.1, -177.07 515.36, -177.35 514.68 M-173.93 518.95 C-174.64 517.52, -176.1 516.37, -177.13 514.61 M-177.14 514.32 C-178.54 513.43, -179.37 512.2, -179.87 510.34 M-177.41 514.64 C-178.39 513.16, -179.07 511.95, -179.97 510.43 M-179.71 510.22 C-180.37 509.71, -181.62 508.29, -181.65 506.71 M-180.19 510.5 C-180.73 509.09, -181.56 508.08, -182.2 507 M-181.71 507.38 C-182.17 506.66, -182.7 505.47, -183.5 504.18 M-181.93 507.03 C-182.61 506.17, -182.99 505.21, -183.42 504.47 M-183.44 504.44 C-183.73 503.79, -183.67 503.09, -184.15 502.73 M-183.3 504.43 C-183.63 503.82, -183.79 503.19, -184.14 502.71 M-184.05 502.64 C-184.15 502.45, -184.29 502.16, -184.28 501.98 M-184.09 502.67 C-184.14 502.45, -184.22 502.24, -184.28 502.07 M-183.81 501.57 C-185.53 499.92, -185.95 497.52, -187.35 495.03 M-184.5 501.98 C-184.72 500.08, -185.63 498.74, -187.16 495.45 M-187.68 495.88 C-188.41 493.65, -189.19 491.44, -189.64 489.19 M-187.21 495.42 C-187.91 493.36, -188.88 491.62, -189.96 489.63 M-190.06 489.03 C-190.94 488.67, -191.76 487.11, -192.8 484.39 M-190.14 489.42 C-190.99 487.95, -191.88 486.12, -192.74 484.45 M-193 484.12 C-194.05 482, -195.18 481.02, -195.98 479.99 M-192.94 484.53 C-193.85 483.06, -194.82 481.2, -195.87 479.51 M-196.16 479.36 C-196.64 478.48, -197.32 476.54, -198.58 475.76 M-195.99 479.44 C-196.53 478.8, -197.06 477.83, -198.88 475.48 M-198.42 475.72 C-199.61 474.62, -200.44 473.05, -201.53 471.41 M-198.86 475.46 C-199.51 474.49, -200.47 473.17, -201.71 471.62 M-201.29 471.25 C-202.01 470.64, -202.85 469.72, -204.07 468.58 M-201.42 471.49 C-202.61 470.32, -203.56 469.19, -204.24 468.07 M-204.57 467.95 C-205.18 467.11, -205.82 467, -207.06 465.75 M-204.28 468.1 C-205.35 467.41, -206.16 466.26, -207.05 465.37 M-207.46 465.8 C-208.78 464.63, -210.26 462.76, -211.57 461.48 M-206.81 465.25 C-209.04 463.78, -210.57 462, -212.25 460.79 M-211.58 460.76 C-213.21 460.07, -214.53 459.09, -215.62 458.24 M-212.01 460.8 C-212.97 459.94, -214.43 459.01, -215.65 458.2 M-215.86 458 C-216.32 457.82, -216.63 457.53, -217.3 457.31 M-215.78 458.12 C-216.3 457.91, -216.66 457.53, -217.23 457.1 M-217.31 457.1 C-217.53 457.03, -217.74 456.73, -218.38 456.6 M-217.22 457.14 C-217.51 457, -217.82 456.86, -218.3 456.46 M-218.26 456.53 C-218.4 456.39, -218.67 456.36, -218.97 456.09 M-218.26 456.51 C-218.54 456.38, -218.86 456.22, -219 456.16 M-218.95 456.13 C-219.04 456.13, -219.15 456.05, -219.19 456.04 M-218.98 456.17 C-219.03 456.11, -219.12 456.09, -219.2 456.05 M-218.65 456.52 C-221.07 454.99, -222.7 453.64, -224.02 452.94 M-219.36 456.05 C-220.53 455.2, -222.36 453.88, -224.14 452.42 M-224.09 452.2 C-224.45 452.04, -225.76 451.32, -226.89 449.35 M-224.01 452.58 C-224.75 451.73, -225.75 451.05, -227.44 449.74 M-227.5 449.61 C-228.09 448.62, -228.22 448.46, -229.38 447.12 M-227.23 449.66 C-227.79 449.23, -228.4 448.45, -229.61 447.03 M-229.76 447.14 C-229.93 446.46, -230.36 445.81, -230.75 444.97 M-229.51 447.1 C-230.04 446.34, -230.29 445.85, -230.77 444.85 M-230.73 444.72 C-230.95 444.41, -231.31 443.76, -231.39 442.99 M-230.9 444.88 C-231.05 444.47, -231.09 443.98, -231.41 443.05 M-231.29 443.08 C-231.32 442.6, -231.06 442.08, -231.19 441.46 M-231.3 442.89 C-231.33 442.68, -231.27 442.2, -231.04 441.39 M-231.03 441.38 C-230.87 441.11, -230.63 440.66, -230.09 440.19 M-231.09 441.44 C-230.86 441, -230.55 440.61, -230.21 440.2 M-230.34 440.17 C-229.77 440.06, -229.63 439.7, -228.98 439.26 M-230.1 440.08 C-229.66 439.77, -229.15 439.4, -228.75 439.23 M-228.48 439.45 C-227.51 438.58, -226.33 438.04, -225.36 437.61 M-228.7 439.28 C-227.89 438.76, -226.73 438.27, -225.22 437.7 M-225.52 438.18 C-224.3 437.5, -223.33 437.27, -221.23 437.17 M-225.38 437.85 C-224.06 437.6, -222.72 437.56, -221.53 437.16 M-221.25 437.41 C-220.72 436.86, -219.46 437.28, -218.25 437.16 M-221.46 437.01 C-220.45 437.03, -219.34 437.16, -218.38 436.82 M-218.37 436.96 C-217.88 436.96, -217.69 437, -217.36 436.98 M-218.32 436.91 C-217.99 436.9, -217.59 436.9, -217.38 436.91 M-217.42 436.91 C-217.32 436.9, -217.19 436.9, -217.04 436.92 M-217.37 436.91 C-217.28 436.91, -217.16 436.93, -217.06 436.93 M-216.7 436.65 C-216.1 436.79, -213.78 437.34, -211.7 437.14 M-217.01 436.95 C-215.29 437.19, -214.18 437.07, -211.58 437.38 M-211.02 437.67 C-209.58 437.78, -207.87 438.66, -205.73 438.5 M-211.42 437.45 C-209.47 438.1, -207.38 438.8, -205.97 438.91 M-205.56 439.35 C-203.67 439.44, -202.26 440.32, -201.4 440.39 M-205.93 439.18 C-204.09 439.59, -202.77 440.25, -201.02 440.99 M-201.1 440.44 C-200.19 440.85, -198.6 441.68, -196.11 442.5 M-201.04 440.62 C-199.24 441.42, -198.12 442.09, -196.09 442.82 M-195.73 443.41 C-194.03 444.47, -191.89 446.3, -187.26 448.06 M-195.81 443.16 C-192.65 444.81, -190.16 447.08, -187.97 448.64 M-187.36 448.42 C-185.9 450.77, -183.55 450.91, -181.28 454.73 M-187.75 448.47 C-185.43 450.33, -183.6 451.6, -181.39 454.16 M-181.68 453.57 C-178.32 455.64, -176.32 459.17, -175.55 460.26 M-180.85 453.6 C-179.1 455.44, -177.9 457.85, -175.43 459.9 M-175.46 459.8 C-175.27 459.97, -174.83 460.85, -173.5 462.29 M-175.94 459.57 C-174.95 460.65, -174.29 461.33, -173.61 462.19 M-173.81 462.09 C-172.89 463.04, -172.57 463.77, -172.04 464.7 M-173.53 462.4 C-172.92 463.17, -172.28 464.05, -171.95 464.58 M-172.07 464.61 C-171.44 465.31, -171.3 465.88, -170.63 466.7 M-171.87 464.47 C-171.44 465.16, -171.05 465.72, -170.66 466.45 M-170.61 466.51 C-170.31 466.73, -170.32 467.26, -169.75 468.17 M-170.62 466.51 C-170.29 466.96, -169.89 467.61, -169.58 467.94 M-169.64 467.93 C-169.53 468.25, -169.24 468.6, -168.98 468.94 M-169.61 468.07 C-169.39 468.3, -169.26 468.66, -169.04 469.02 M-169.02 468.97 C-168.93 469.1, -168.88 469.23, -168.86 469.34 M-169.04 468.98 C-168.95 469.13, -168.89 469.26, -168.83 469.34 M-169.05 469.14 C-168.02 471.62, -165.88 473.33, -163.55 477.15 M-168.6 469.51 C-166.96 472.64, -164.9 475.05, -163.11 477.21 M-163.9 476.93 C-162.04 479.06, -160.86 480.18, -157.98 483.84 M-163.31 477.22 C-161.66 479.69, -159.62 482.34, -157.67 485.01 M-158.07 484.42 C-156.25 486.74, -154.54 488.41, -151.57 490.51 M-157.84 484.4 C-155.73 486.21, -153.65 487.65, -151.38 490 M-151.21 490.49 C-149.55 492.37, -146.13 493.59, -145.15 494.42 M-151.79 490.34 C-149.74 491.32, -148.48 492.32, -145.01 494.61 M-144.63 494.37 C-143.63 495.77, -142.05 496.31, -139.17 498.07 M-145.14 495.11 C-143.94 495.83, -142.65 496.29, -139 498.53 M-139.42 498.58 C-137 499.56, -133.81 500.21, -131.71 500.32 M-139.05 498.06 C-136.76 498.96, -134.87 500.14, -132.09 500.53 M-131.75 501.02 C-130.2 501.12, -128.99 501.9, -125.51 502.84 M-132.19 500.93 C-130.96 501.49, -129.49 501.58, -125.94 502.76 M-125.33 502.62 C-124.15 503.08, -122.15 502.67, -119.88 504 M-125.93 502.34 C-123.58 502.58, -121.22 503.46, -119.23 503.33 M-119.35 503.84 C-116.29 503.85, -113.91 504.14, -112.47 503.35 M-119.38 503.72 C-117.79 503.53, -115.56 503.9, -112.81 503.94 M-112.72 503.78 C-111.2 503.16, -109.76 503.39, -107.34 503.53 M-113.01 503.98 C-111.53 503.88, -109.85 503.53, -106.82 503.61 M-107.07 503.52 C-105.63 503.49, -103.9 503.26, -100.86 502.84 M-106.56 503.23 C-104.9 502.95, -102.97 502.74, -100.94 502.64 M-100.4 502.58 C-99.14 501.88, -97.78 502.56, -94.87 501.31 M-101.03 502.67 C-99.13 502.19, -97.48 502.01, -95 501.65 M-94.89 501.05 C-92.95 501.34, -91.34 500.42, -90.16 500.6 M-95.12 501.36 C-94.12 501.17, -93.08 500.86, -90.19 500.42 M-89.62 500.63 C-88.57 500.22, -86.77 499.11, -84.98 499.09 M-90 500.35 C-88.76 499.82, -87.46 499.1, -85.09 498.87 M-85.59 498.17 C-84.22 498.39, -83.36 498.25, -81.44 496.86 M-85.23 498.61 C-83.96 498.17, -82.58 497.85, -80.8 497.14 M-80.77 496.95 C-79.66 496.21, -78.93 495.78, -77.66 495.67 M-81.14 497.22 C-79.87 496.48, -78.41 495.93, -77.43 495.31 M-78.08 495.51 C-76.95 492.95, -75.71 491.14, -76.76 487.76 M-77.36 495.18 C-77.3 493.27, -77.02 491.6, -75.93 488.42 M-75.69 487.47 C-76.01 486.74, -74.94 484.12, -74.44 481.52 M-75.77 488.12 C-75.48 486.02, -74.58 482.93, -74.36 481.33 M-74.18 481.35 C-73.89 479.47, -73.16 477.4, -72.05 475.32 M-74.33 481.74 C-73.61 479.42, -72.42 476.81, -71.88 475.3 M-72.05 475.33 C-71.2 473.88, -70.52 471.99, -70.09 469.83 M-72.27 475.07 C-71.81 474.17, -70.84 473.13, -69.45 469.71 M-69.12 470.08 C-68.94 468.67, -67.87 467.31, -67.38 465.35 M-69.92 469.69 C-68.85 468.05, -67.94 466.74, -66.75 464.79 M-67.16 465.01 C-65.94 463.33, -65.02 462.36, -64.17 460.55 M-67 464.74 C-66.34 463.77, -65.38 462.56, -63.99 460.63 M-63.72 460.3 C-63.5 459.6, -62.32 458.35, -60.67 457.07 M-63.71 460.4 C-63.2 459.68, -62.22 458.48, -60.51 456.74 M-60.82 456.85 C-59.22 455.7, -58.42 454.6, -57.45 453.73 M-60.7 456.74 C-59.55 455.26, -58.1 454.07, -57.2 453.47 M-56.09 452.6 C-61.82 453.06, -66.08 452.18, -71.67 452.23 M-56.79 453.65 C-61.3 453.19, -65.25 452.06, -70.84 452.04 M-70.08 452.61 C-75.24 451.01, -78.18 450.2, -82.73 448.44 M-70.18 451.44 C-73.62 451.13, -78.03 450.19, -83.32 449.43 M-83.16 448.28 C-86.94 450.11, -90.11 448.03, -96.74 445.4 M-83.87 449.5 C-86.79 448.33, -90.07 448.19, -96.56 446.33 M-96.63 447.2 C-99.05 444.92, -103.1 444.68, -109.32 443.05 M-96.4 446.49 C-101.1 444.82, -106 444.16, -109.37 443.14 M-109.74 441.5 C-113.03 440.99, -117.46 440.26, -121.47 439.25 M-109.32 443.28 C-112.72 441.32, -117.17 439.47, -121.49 438.73 M-122.12 437.43 C-125.44 436.31, -127.66 434.48, -132.73 431.6 M-120.98 437.82 C-124.89 436.57, -129.07 434.48, -133.33 432.61 M-132.29 433.37 C-137.7 430.12, -139.98 429.53, -143.58 425.74 M-132.89 432.4 C-137.4 430.13, -141.61 427.25, -145.14 426.33 M-145.31 425.57 C-147.21 422.29, -150.21 420.53, -153.95 418.74 M-144.89 425.96 C-148.56 423.54, -151.61 420.45, -155.46 417.63 M-155.51 417.78 C-158.56 415.55, -162.28 411.33, -165.68 407.37 M-154.95 417.39 C-159.08 414.73, -162.98 411.38, -165.45 408.43 M-164.62 408.61 C-166.66 405.77, -170.2 402.2, -172.92 397.92 M-164.84 408.33 C-166.96 406, -168.63 403.87, -173.41 397.77 M-173.08 398.27 C-175.35 395.3, -176.31 393.68, -177.36 391.89 M-173.51 398.37 C-174.86 396.07, -175.94 394.22, -177.98 392.11 M-178.09 391.59 C-179.35 390.18, -180.98 388.11, -181.11 385.37 M-177.94 391.78 C-178.91 389.97, -180.22 387.95, -181.53 385.76 M-181.06 385.79 C-183.2 383.76, -183.6 381.05, -184.22 378.66 M-181.29 385.73 C-182.49 384.3, -182.7 382.5, -185.17 378.93 M-185.35 378.41 C-185.45 376.47, -187.15 375.25, -187.61 372.44 M-185.22 379.04 C-186.11 376.72, -187.22 374.31, -187.71 371.74 M-188.26 372.11 C-188.23 370.44, -189.42 367.69, -190.27 364.98 M-188.46 371.96 C-189.07 369.3, -189.47 367.34, -190.65 364.51 M-191.48 364.21 C-191.97 362.34, -192.78 358.36, -193 356.15 M-190.66 364.81 C-191.31 362.65, -191.88 360.71, -193.46 356.52 M-193.97 357.21 C-193.74 353.49, -195.65 351.04, -195.14 348.02 M-193.33 356.75 C-193.65 353.59, -194.32 351.53, -195.18 347.67 M-194.92 347.52 C-196.07 344.83, -197.47 341.83, -196.84 339.29 M-195.99 348.34 C-196.26 345.57, -196.46 342.35, -196.99 339.13 M-196.48 338.67 C-198.71 335.5, -198.31 334.49, -199.1 328.67 M-197.44 338.61 C-198.06 336.86, -197.92 334.44, -199.11 329.84 M-198.33 329.36 C-198.58 325.75, -199.15 322.36, -198.81 320.22 M-198.93 329.76 C-198.78 325.83, -199.5 322.19, -199.41 319.64 M-200.03 319.96 C-199.92 315.77, -200.67 313.38, -200.17 308.23 M-199.32 319.09 C-199.93 316.98, -200.26 314.51, -200.59 309.5 M-200.83 308.94 C-199.78 307.14, -200.33 302.94, -199.86 298.3 M-200.4 308.9 C-201.06 305.46, -200.19 302.18, -200.12 298.09 M-200.54 298.58 C-201.33 294.56, -199.3 288.87, -200.79 286.53 M-200.41 298 C-200.14 295.14, -199.83 292.23, -200.55 286.06 M-199.25 285.42 C-199.39 280.55, -199.99 277.25, -197.92 272.4 M-200.58 285.95 C-199.14 281.02, -198.41 276.99, -198.78 272.96 M-198.77 273.1 C-197.78 269.92, -197.78 268.89, -194.9 262.58 M-198.36 273.4 C-197.9 270.33, -197.49 267.02, -195.89 261.67 M-195.47 262.42 C-193.98 257.65, -194.55 254.44, -192.51 252.23 M-195.39 261.67 C-195.13 258.54, -193.04 255.09, -191.89 251.35 M-192.81 250.69 C-191.21 248.14, -188.36 245.52, -186.57 240.35 M-192.01 250.69 C-190.71 248.35, -189.36 245.73, -187.26 241.33 M-187.22 241.19 C-185.26 237.89, -183.94 235.38, -182.53 230.8 M-187.79 240.42 C-185.59 237.58, -184.22 235.48, -181.61 231.78 M-182.66 231.08 C-179.79 230.11, -179.72 226.65, -174.92 221.36 M-181.34 231.42 C-180.04 228.25, -177.92 225.76, -175.23 222.57 M-174.78 223.08 C-172.86 218.8, -170.18 217.04, -168.47 214.4 M-175.1 221.61 C-172.7 219.87, -170.68 216.23, -167.74 213.94 M-168.11 213.6 C-168.4 213.29, -168.81 212.62, -168.9 211.91 M-168.29 213.62 C-168.44 213.26, -168.48 212.87, -168.99 211.83 M-169.17 211.95 C-169.17 210.8, -169.38 210.26, -169.59 209.62 M-168.98 211.93 C-169.08 211.14, -169.29 210.61, -169.76 209.47 M-169.54 209.42 C-169.87 208.9, -170.16 207.68, -170.49 206.98 M-169.76 209.5 C-169.91 208.86, -170.12 207.94, -170.5 206.86 M-170.93 206.4 C-171 205.14, -171.07 204.03, -171.38 203.31 M-170.66 206.76 C-170.84 205.66, -171.1 204.81, -171.65 203.23 M-171.18 203.44 C-171.83 202.17, -172.06 201.35, -172.79 199.72 M-171.58 203.44 C-171.82 201.73, -172.08 200.44, -172.39 199.59 M-172.43 199.58 C-172.54 198.75, -173.19 197.34, -173.44 194.93 M-172.37 199.33 C-172.5 198.66, -172.96 197.48, -173.15 195.41 M-172.82 194.99 C-173.42 193.71, -173.33 192.1, -173.89 190.62 M-173.2 195.22 C-173.65 193.98, -173.58 192.41, -173.74 190.58 M-173.52 190.79 C-173.7 188.26, -174.7 186.8, -173.93 185.39 M-173.85 190.22 C-173.89 188.49, -174.08 186.84, -174.45 185.44 M-173.98 185.73 C-174.74 184.12, -174.23 181.93, -174.27 180.13 M-174.53 185.29 C-174.37 183.62, -174.3 181.65, -174.77 179.9 M-174.7 180.12 C-175.04 178.12, -175.16 175.65, -175 173.94 M-174.47 179.83 C-174.58 177.99, -174.51 175.62, -174.74 173.61 M-174.27 173.58 C-173.81 171.33, -174.01 169.63, -173.9 167.45 M-174.68 173.36 C-174.5 171.57, -174.6 169.27, -174.13 167.2 M-174.08 167.72 C-174.05 165.91, -174.26 163.41, -173.13 160.2 M-173.98 167.03 C-174.15 165.05, -173.83 162.71, -173.58 160.32 M-172.72 160.49 C-172.73 157.4, -172.18 155.54, -171.93 153.42 M-173.24 160.23 C-173.07 158.6, -172.63 157.04, -172.23 153.46 M-172.46 153 C-171.03 151.74, -171.38 149.04, -170.8 145.47 M-172.42 153.12 C-171.82 151.24, -170.74 148.47, -170.17 146.43 M-169.91 146.64 C-169.82 145.11, -169.02 142.16, -168.64 137.68 M-170.2 145.74 C-169.69 142.88, -169.04 140.65, -168.18 138.18 M-167.68 138.44 C-166.81 135.42, -166.15 133.49, -164.61 129.58 M-168.11 138.04 C-166.98 135.65, -166.22 133.07, -165.25 130.47 M-165.17 130.39 C-165.14 130.4, -165.09 130.39, -164.89 130.32 M-165.19 130.4 C-165.1 130.37, -165 130.36, -164.9 130.33 M-164.84 130.4 C-164.63 130.26, -164.33 130.24, -163.95 130.2 M-164.91 130.28 C-164.68 130.29, -164.39 130.2, -163.98 130.09 M-163.84 130.09 C-163.76 130.11, -163.17 130.08, -162.25 129.77 M-163.9 130.19 C-163.64 130.11, -163.24 130.04, -162.35 129.97 M-162.51 129.82 C-161.63 129.88, -161.04 129.72, -160.14 129.74 M-162.43 129.84 C-161.92 129.73, -161.31 129.86, -160.06 129.76 M-160.13 130.01 C-159.23 129.77, -157.79 129.45, -157.33 129.57 M-160.13 129.59 C-159.28 129.66, -158.21 129.71, -157.11 129.7 M-157.18 129.59 C-156.29 129.86, -154.65 129.79, -154.01 130.05 M-157.2 129.58 C-156.03 129.59, -154.84 129.79, -153.54 129.89 M-153.51 130.18 C-152.33 130.37, -151.2 130, -149.05 130.58 M-153.74 130.05 C-152.42 130.28, -151.18 130.07, -149.61 130.22 M-149.25 130.36 C-148.09 131.07, -145.65 130.75, -144.27 131.01 M-149.58 130.62 C-148.2 130.61, -146.79 130.71, -144.36 131.05 M-144.38 131.3 C-143.55 132.18, -141.25 132.47, -138.96 132.7 M-144.46 131.15 C-143.41 131.34, -142.12 131.63, -138.86 132.56 M-138.52 132.92 C-137.45 132.62, -135.58 134.2, -131.82 135.14 M-138.97 132.9 C-137.15 133.02, -136.08 133.47, -132.57 134.85 M-132.84 135.1 C-129.78 135.58, -127.5 135.84, -125.31 137.63 M-132.1 134.59 C-130.14 135.35, -128.22 135.94, -125.16 137.19 M-125.87 136.39 C-123.43 138.08, -121.56 138.44, -117.16 140.41 M-125.33 137.41 C-123 138.22, -120.86 139.24, -117.48 140.57 M-118.22 140.22 C-114.83 142.6, -110.92 144.21, -108.22 143.9 M-117.58 140.67 C-114.5 141.88, -110.7 143.52, -108.9 144.21 M-109.63 143.52 C-105.23 145.6, -100.66 148.97, -99.26 150.15 M-109.12 144.85 C-105.06 146.47, -101.96 148.1, -99.25 149.23 M-99.4 150.57 C-97.12 152.49, -91.9 152.6, -90.58 154.65 M-99.88 149.51 C-96.91 151.96, -93.65 153.46, -89.54 155.16 M-88.56 154.43 C-88.02 158.09, -83.62 159.39, -77.5 162.5 M-89.75 155.47 C-84.98 157.58, -81.06 160.31, -78.54 162.39 M-79.33 160.73 C-72.06 159.44, -68.69 158.73, -60.4 159.09 M-78.08 161.77 C-71.26 161.15, -64.82 158.86, -60.43 158.64 M-61.02 156.81 C-53.88 159.02, -52.73 157.14, -39.72 154.33 M-58.87 158.13 C-52.78 157.89, -45.15 155.53, -39.62 154.3 M-38.23 154.58 C-32.65 153.32, -26.34 154.29, -18.24 151.52 M-39.47 154.52 C-35.19 153.89, -31.4 153.55, -19.26 153.59 M-18.39 152.19 C-15.14 151.75, -8.86 153.88, 1.5 150.94 M-20.11 152.88 C-13.48 152.87, -9.19 151.85, 0.85 151.27 M-0.49 153.08 C4.3 151.46, 10.74 154.15, 18.31 154.51 M0.82 151.18 C5.65 152.68, 9.52 152.23, 19.93 152.66 M21.35 150.89 C26.97 155.26, 32.06 153.31, 38.65 156.01 M20.12 151.81 C24.14 153.96, 29.9 152.99, 40.46 154.4 M40.11 155.6 C44.79 156.19, 50.74 156.18, 60.75 158.27 M40.12 154.15 C48.2 155.55, 55.19 156.89, 59.42 159.04 M60.09 158.72 C67.16 161.15, 72.12 159.26, 77.16 163.66 M59.91 157.31 C65.29 159.69, 73.22 160.93, 78.73 162.1 M79.14 163.44 C82.07 160.33, 83.78 158.37, 90.63 154.5 M79.42 162.88 C81.67 160.58, 83.76 159.59, 89.22 155.3 M90.03 154.91 C94.22 152.37, 96.56 150.27, 98.97 150.57 M89.19 155.2 C91.17 154.29, 93.59 153.54, 99.14 149.67 M100.44 150.27 C102.29 148.15, 103.45 148.28, 108.58 144.71 M100.2 149.98 C102.85 147.3, 106.86 146.18, 108.98 144.76 M108.99 144.79 C111.28 143.65, 114.78 142.12, 117.33 141.19 M109.07 144.23 C111.64 143.56, 114.81 142.19, 117.27 140.9 M117.82 140.04 C118.83 139.57, 122.09 139.48, 125.45 137.18 M117.33 140.85 C119.36 139.77, 121.39 138.79, 125.5 137.29 M124.94 136.84 C127.31 136.49, 128.85 136.15, 132.37 134.58 M125.18 136.85 C126.69 136.67, 128.48 136, 132.32 134.51 M132.37 135.02 C133.9 134.62, 135.66 133.24, 138.57 132.6 M132.79 134.62 C134.56 133.58, 136.56 132.97, 138.71 132.57 M138.34 132.86 C140.79 132.36, 142.37 132.24, 144.54 131.08 M138.93 132.81 C141.25 132.08, 142.95 131.46, 144.59 131.45 M144.95 130.83 C145.39 130.65, 147.68 130.93, 149.81 130.31 M144.47 131.09 C145.69 130.99, 147.27 130.67, 149.63 130.17 M149.02 130.56 C150.59 130.58, 151.85 129.79, 153.93 129.62 M149.3 130.19 C150.59 130.32, 152.21 130.09, 153.54 129.82 M153.97 129.98 C154.61 130.02, 155.88 129.56, 157.42 129.61 M153.66 129.89 C154.85 129.74, 155.88 129.78, 157.08 129.74 M157 129.55 C158.08 129.63, 158.76 129.47, 160.21 129.82 M157.19 129.65 C158.28 129.63, 159.41 129.88, 160.16 129.66 M160.06 129.52 C160.87 129.85, 161.69 129.77, 162.12 130.05 M160.16 129.72 C160.68 129.75, 161.23 129.78, 162.28 129.8 M162.17 129.97 C162.87 130.08, 163.19 129.98, 163.89 130.13 M162.34 129.87 C162.87 129.95, 163.34 130.08, 163.9 130.05 M163.86 130.22 C164.07 130.25, 164.25 130.14, 164.91 130.28 M163.9 130.09 C164.21 130.2, 164.51 130.2, 164.89 130.28 M164.85 130.32 C164.91 130.35, 165.02 130.35, 165.18 130.39 M164.83 130.31 C164.95 130.34, 165.08 130.37, 165.16 130.39 M165.67 131.13 C166.74 133.86, 167.66 135.25, 167.31 138.71 M165.33 130.37 C166.31 132.84, 166.63 135.19, 168.06 138.33 M167.25 138.5 C168.84 140.55, 170.31 143.78, 170.32 146.68 M167.93 138.31 C168.23 140.62, 169.19 142.08, 170.16 145.79 M169.96 146.15 C171.24 148.15, 170.86 150.51, 172.35 152.77 M170.21 146.36 C170.69 147.73, 170.85 150.04, 172.15 153.5 M171.53 153.74 C172.08 156.67, 172.3 158.47, 173.06 160.8 M172.3 153.78 C172.35 156.28, 173.38 159.11, 173.67 160.89 M172.87 160.26 C174.13 161.91, 173.29 164.57, 173.83 167.67 M173.64 160.62 C173.4 163.22, 173.91 165.69, 174.14 167.58 M173.52 166.97 C174.29 169.13, 173.77 171.72, 174.17 173.68 M174.25 167.54 C173.85 168.49, 174.46 170.06, 174.25 173.72 M173.92 174.04 C175.09 175.94, 174.11 177.96, 174.74 179.52 M174.7 173.56 C174.67 175.64, 174.24 177.82, 174.82 179.86 M174.12 179.82 C174.01 180.95, 174.03 182.66, 174.29 185.71 M174.62 179.44 C174.66 181.62, 174.35 183.29, 174.54 185.51 M174.46 185.33 C174.31 186.54, 173.89 188.46, 173.46 190.74 M174.1 185.31 C174.44 186.65, 173.99 188.49, 173.63 190.48 M173.65 190.65 C173.51 191.66, 173.27 192.79, 172.85 195.29 M173.92 190.44 C173.56 192.23, 173.47 193.75, 172.99 195.14 M173.4 194.94 C172.65 196.4, 172.59 197.76, 172.15 199.88 M173.12 195.12 C172.76 197.12, 172.52 198.59, 172.42 199.75 M172.53 199.35 C172.6 200.63, 171.82 201.54, 171.74 203.01 M172.34 199.53 C171.99 200.74, 171.79 202.21, 171.5 203.55 M171.47 203.07 C171.02 204.7, 171.09 205.69, 170.32 206.51 M171.46 203.26 C171.35 204.46, 171.11 205.42, 170.67 206.66 M170.92 206.83 C170.03 207.88, 170.24 208.98, 169.88 209.3 M170.74 206.85 C170.51 207.45, 170.02 208.46, 169.64 209.55 M169.83 209.75 C169.73 209.98, 169.34 210.51, 169.14 211.67 M169.64 209.56 C169.56 210.22, 169.31 210.67, 169.02 211.8 M168.78 211.79 C168.66 212.28, 168.61 213.21, 168.36 213.48 M168.98 211.78 C168.72 212.47, 168.52 213.01, 168.25 213.59 M169.09 212.65 C170.09 215.83, 172.14 218.71, 175.96 222.25 M168.65 213.55 C169.45 215.62, 171.9 217.55, 175.59 222.27 M175.55 223.18 C177.24 225.43, 180.47 228.13, 182.28 232.26 M175.04 222.03 C176.99 225.14, 179.04 228.03, 181.66 231.15 M181.37 230.54 C183.64 234.22, 184.47 238.48, 187.44 240.7 M181.58 230.99 C183.53 234.79, 185.07 237.6, 187.29 241.33 M188.35 240.76 C189.71 243.5, 190.99 247.5, 191.83 252.26 M187.4 241.39 C188.31 244.22, 190.36 246.75, 191.74 251.03 M192.14 251.44 C192.84 253.51, 193.02 255.87, 194.54 261.02 M192.54 251.01 C193.33 255.35, 194.12 258.14, 195.75 262.17 M195.8 260.89 C196.51 264.62, 196.27 267.23, 199.34 274.44 M195.22 262.41 C197 265.03, 197.07 269.51, 198.39 273.26 M197.64 274.59 C199.7 277.67, 200.44 282.79, 201.03 286.52 M197.84 273.33 C198.52 278.75, 199.33 282.79, 200.03 285.05 M200.69 284.27 C199.27 291.15, 200.59 294.43, 200.47 297.4 M199.73 284.84 C200.44 289.88, 200.9 295.06, 200.29 297.87 M199.67 298.33 C200.17 301.67, 200.38 304.53, 200.86 310.02 M200.72 297.54 C200.76 302.37, 199.94 306.7, 200.41 309.5 M200.62 308.61 C201.14 312.29, 200.19 313.92, 199.21 319.91 M200.03 309.04 C199.93 312.28, 200.08 315.38, 199.46 319.95 M198.78 318.98 C199.44 321.58, 199.62 324.86, 199.68 330.37 M199.51 319.38 C199.08 322.51, 199.32 324.92, 198.36 329.84 M198.26 329.64 C198.96 332.26, 197.19 337.33, 198 339.18 M198.47 329.84 C198.8 332.42, 197.63 334.51, 196.92 338.59 M196.69 338.14 C197.52 341.43, 195.81 342.68, 196.25 347.5 M197.38 339.46 C196.85 342.03, 196.38 346.13, 195.61 348.46 M195.51 347.28 C195.87 350.09, 194.54 350.6, 193.82 356.82 M195.62 348.19 C194.71 350.82, 194.3 354.84, 192.97 356.56 M193.48 356.74 C192.75 358.72, 192.35 360.33, 191.41 364.11 M193.51 356.34 C192.3 359.7, 191.6 362.54, 190.77 364.37 M190.49 364 C189.16 367.35, 189.21 370.14, 188.5 371.92 M191.06 364.6 C190.08 367.24, 189.06 370.52, 187.85 372.49 M188.31 371.98 C187.66 373.69, 185.64 376.01, 185.23 379.77 M188.14 372.06 C187.53 373.56, 186.66 375.07, 185.08 379.34 M184.32 379.35 C184.21 380.59, 182.18 382.69, 181.67 385.73 M185.04 379.58 C183.85 381.58, 182.81 383.42, 181.38 385.71 M181.86 386.55 C181.11 386.81, 180.2 388.78, 177.96 392.73 M181.07 386.24 C179.88 388.22, 178.31 391.11, 177.44 392.25 M178.07 391.57 C177.33 393.82, 175.62 395.69, 173.64 397.42 M177.99 392.54 C176.28 394.28, 174.98 396.08, 173.44 398.49 M174.06 397.96 C171.72 399.43, 169.98 404.71, 164.76 408.99 M173.55 397.51 C171.24 401.83, 168.66 405.54, 165.34 408.96 M164.96 409.56 C161.03 411.97, 157.87 416.05, 154.47 419.23 M164.91 409.16 C161.55 411.93, 160.05 413.73, 155.37 418.11 M155.83 418.09 C152.83 421.37, 149.13 423.1, 145.61 425.61 M155.56 418.24 C151.18 420.85, 146.54 424.33, 144.2 425.61 M145.51 424.82 C141.89 428.1, 138.92 429.97, 132.85 432.9 M145.02 425.81 C141.42 428.34, 137.84 430, 132.71 431.94 M132.39 432.6 C129.21 435.32, 126.23 434.69, 121.45 437.12 M133.11 432.51 C130.74 433.87, 128.05 435.51, 121.47 437.42 M122.37 438.58 C117.09 440.71, 114.09 439.58, 107.69 443.09 M120.78 438.71 C118.57 439.72, 114.89 441.19, 108.35 443.07 M109.48 443.8 C104.47 444.62, 101.63 444.45, 97.48 446.54 M109.12 442.62 C105.2 443.95, 101.44 445.04, 95.98 446.68 M97.02 445.72 C90.58 446.46, 85.9 449.68, 84.22 448.98 M96.18 445.67 C91.99 447.21, 86.99 448.1, 82.71 448.87 M83.35 448 C81.5 450.6, 78.61 449.38, 70.03 450.29 M83.89 449.35 C79.71 450.14, 75.95 449.86, 70.19 451.91 M69.98 450.32 C67.4 452.86, 63.08 453.33, 56.79 453.11 M69.61 451.28 C66.55 452.45, 62 452.23, 56.86 453.81 M57.38 453 C57.8 454.04, 59.44 456.01, 61.06 457.68 M57.02 452.95 C57.68 453.85, 58.74 455.22, 61.31 456.98 M61.58 456.97 C61.86 457.85, 62.77 460.02, 65.24 461.92 M61.07 457.24 C62.38 458.35, 63.49 459.81, 64.84 462.37 M64.47 461.79 C65.75 463.08, 66.83 465.49, 69.21 468.5 M64.96 462.09 C66.18 464.32, 67.81 466.04, 68.45 468.01 M68.83 468.27 C70.45 470.35, 71.75 473.58, 71.45 474.6 M68.57 468.42 C69.73 470.23, 70.4 472.67, 72.11 474.8 M72.07 475.67 C73.22 477.05, 73.59 479.95, 75.33 482.75 M72.14 475.01 C72.72 478.05, 73.65 480.57, 74.18 482.5 M74.49 483 C75.29 485.55, 75.69 487.77, 76.35 492.09 M74.36 482.93 C75.38 485.52, 75.55 488.58, 76.17 491.49 M76.09 492.2 C76.18 494.04, 77.84 496.83, 77.96 500.94 M76.61 491.35 C76.56 494.34, 76.94 496.94, 78.05 501.14 M78.63 501.48 C78.64 502.75, 79.05 505.12, 77.61 512.1 M77.68 500.99 C77.84 503.8, 78.12 505.81, 78.8 511.04 M78.67 512.07 C78.53 515.6, 78.9 518.92, 78.3 528.15 M78.3 510.65 C78.76 515.32, 78.02 519.46, 78.21 526.1 M77.72 525.43 C77.92 529.87, 76.87 535.1, 79.73 540.48 M78.63 526.38 C78.26 530.86, 78.08 534.68, 78.44 541.57 M78.91 540.98 C79.13 543.86, 77.77 548.34, 77.95 554.65 M78.47 541.41 C77.56 544.07, 78.23 548.22, 78.15 554.74 M79.23 553.53 C77.31 558.68, 78.99 562.52, 77.5 567.15 M78.28 554.81 C78.71 559.27, 78.35 562.63, 78.27 565.91 M78.22 566.58 C78.35 569.34, 78.44 569.74, 79.03 576.18 M78.17 566.6 C78.1 568.48, 78.41 571.03, 77.66 577.27 M77.27 577.23 C78.67 579.07, 77.77 581.67, 78.07 586.21 M77.73 576.5 C78.51 579.99, 77.68 583.89, 78.01 585.68 M77.88 585.65 C77.96 587.06, 77.8 588.56, 77.99 589.79 M78.05 585.91 C78.01 586.93, 78.16 587.89, 78.01 589.56 M78.05 589.72 C78.14 590.42, 78.07 591.49, 77.98 592.86 M77.98 589.57 C78.18 590.3, 78.07 591.14, 77.93 592.77 M77.82 592.61 C78.02 593.6, 77.74 594.47, 77.95 595.27 M78.05 592.83 C78.04 593.84, 77.95 594.65, 77.86 595.4 M78 595.62 C78.1 595.99, 77.89 596.92, 77.78 597.86 M78.03 595.49 C78.06 596.16, 77.93 597.13, 77.89 597.65 M78.14 597.68 C78.21 598.73, 78.1 600.48, 78.52 600.86 M78.11 597.76 C78.11 598.37, 78.23 599.2, 78.34 600.86 M78.36 600.67 C78.43 601.4, 78.48 602.04, 78.84 604.27 M78.42 601.03 C78.48 601.92, 78.95 603.16, 79.09 604.04 M79.09 603.99 C79.64 604.5, 79.71 605.37, 80.37 607.12 M79.17 603.9 C79.52 604.58, 79.9 605.16, 80.49 606.81 M80.78 607.03 C80.86 607.28, 81.9 608.04, 83.01 609.86 M80.64 606.91 C81.23 607.76, 81.88 608.34, 82.92 609.47 M82.54 609.44 C83.75 610.21, 83.87 610.61, 86.09 611.28 M82.77 609.59 C83.87 610.19, 85.01 611.1, 85.61 611.69 M85.55 611.31 C86.68 611.57, 87.13 612.06, 89.36 613.05 M85.73 611.39 C86.47 611.77, 87.53 612.24, 89.41 613.03 M89.45 613.05 C90.26 612.56, 91.78 613.27, 94.01 613.59 M89.26 612.74 C90.61 612.93, 91.84 612.99, 93.91 613.23 M94.38 612.81 C95.06 613.66, 96.75 613.38, 99.23 612.52 M94.27 613.15 C96.33 613.18, 98.46 613.17, 99.81 612.67 M99.69 612.76 C101.78 612.7, 105.96 610.88, 110.19 608.43 M99.54 612.65 C104.48 611.16, 108.76 609.87, 110.86 609.01 M111.21 609.19 C114.77 606.44, 119.03 605.98, 123.09 603.4 M111.49 608.89 C114.27 607.48, 117.95 605.96, 122.13 603.9 M122.22 603.54 C127 603.25, 130.25 600.42, 134.35 599.73 M122.16 604.2 C124.67 603.5, 126.62 602.1, 134.04 599.4 M134.52 600.08 C137.18 597.96, 139.54 595.3, 145.11 594.42 M133.59 599.21 C136.55 598.21, 139.43 596.7, 144.64 593.56 M143.66 592.35 C153.81 588.55, 159.87 586.88, 166.92 583.6 M144.66 594.21 C149.42 590.08, 155.14 589.07, 166.2 581.51 M166.54 582.23 C171.55 578.31, 181.92 573.5, 186.8 568.1 M166.17 582.15 C172.49 577.32, 181.09 572.26, 186.71 567.66 M185.68 568.35 C191.71 562.38, 198.58 558.78, 205.61 552.1 M185.62 567.81 C192.97 563.11, 199.47 556.13, 204.64 553.65 M203.68 551.14 C208.76 548.56, 214.95 543.22, 224.11 536.86 M205.59 553.46 C207.75 550.09, 213.18 545.35, 222.44 537.13 M222.89 537.07 C226.13 532.75, 228.46 529.57, 239.63 517.92 M222.89 537.03 C225.52 533.26, 230.37 527.93, 239.82 519.83 M237.65 519.37 C241.86 512.66, 247.59 509.28, 252.32 499.72 M237.83 518.26 C243.97 512.07, 248.22 506.83, 254.12 500.73 M252.66 500.69 C258.17 495.92, 260.75 491.43, 265.5 480.35 M254.62 499.9 C258.38 492.75, 263.68 485.67, 267.66 480.18 M267.31 481.81 C272.69 472.91, 274.74 466.42, 279.95 458.19 M266.65 479.84 C270.19 475.13, 272.34 470.32, 280.06 459.1 M278.48 459.77 C281.38 454.78, 282.4 453.19, 285.07 447.86 M279.09 458.5 C281.1 455.35, 283.73 451.13, 284.68 448.14 M284.97 447.08 C287 442.68, 289.63 438.33, 290.14 437.37 M284.47 448.55 C286.66 443.33, 288.05 439.78, 289.21 436.68 M288.91 437 C289.8 434.77, 291.68 431.41, 294.39 424.18 M290.01 437.31 C291.37 433.42, 292.75 430.65, 294.43 425.51 M293.45 424.69 C295.21 421.33, 297.9 416.73, 298.97 414.67 M294.34 425.95 C295.77 421.71, 297.16 419.3, 298.1 413.79 M298.25 414.85 C300.44 411.42, 301.18 407.77, 301.97 402.84 M297.91 413.78 C299.03 411.18, 299.65 408.78, 301.71 401.44 M302.03 402.49 C303.42 398.91, 302.8 396.25, 304.76 389.04 M302.58 402 C303.3 397.5, 304.04 393.94, 305.73 389.98 M306.52 389.34 C305.16 387.26, 305.97 382.46, 307.28 378.08 M305.63 389.49 C305.79 387.42, 306.71 384.7, 308 377.57 M309.21 376.92 C307.63 374, 309.01 371.25, 309.46 365.98 M308.05 377.86 C308.97 372.53, 309.39 368.41, 310.08 365.99 M309.69 365.74 C310.72 361.76, 312.45 354.99, 311.38 352.74 M309.78 365.94 C310.82 362, 310.98 358.61, 311.96 353.24 M312.51 353.12 C312.81 347, 313.08 343.24, 312.26 339.14 M311.79 352.34 C312.68 349.97, 312.37 347.1, 313.47 340.52 M313.43 339.97 C312.52 336.4, 315.29 330.84, 313.14 327.18 M313.84 340.04 C314.07 337.68, 313.29 334.95, 313.82 327.3 M314.81 326.15 C313.98 325.4, 314.03 322.92, 313.31 314.1 M313.93 327.59 C314.52 324.1, 313.79 322.42, 314.47 314.63 M314.32 314.94 C315.02 308.16, 315.44 302.34, 312.61 297.15 M315.14 315.02 C314.91 309.98, 314.45 304.77, 314.78 298.2 M312.54 299.73 C312.53 294.36, 311.94 291.11, 311.73 283.89 M314.11 297.59 C313.37 293.7, 313.63 289.67, 313.01 282.84 M313.34 282.92 C312.88 279.85, 313.32 275.09, 310.7 265.79 M313.06 281.75 C311.68 278.1, 312.12 273.9, 311.32 266.84 M310.74 267.86 C309.01 259.55, 310.31 255.26, 308.67 249.91 M310.2 266.95 C310.36 263.33, 309.66 260.92, 307.68 250.9 M306.71 251.38 C305.99 247.37, 305.9 240.62, 303.86 236.82 M307.76 251.71 C307.61 247.47, 305.8 245.63, 304.94 235.08 M304.97 237.02 C303.16 230.66, 302.84 222.98, 301.58 219.87 M305.1 235.35 C304.18 232.19, 302.71 228.45, 300.06 221.27 M300.33 221.42 C298.53 215.69, 297.4 211.95, 295.77 207.52 M300.64 220.38 C298.27 216.14, 297.7 212.33, 296.11 207.08 M294.56 207.33 C294.01 201.38, 290.49 195.07, 289.5 191.18 M296 206.35 C294.26 201.94, 292.14 199.19, 290.12 191.48 M288.8 193.32 C285.85 186.07, 283.37 180.05, 282.73 176.79 M290.01 192.42 C288.06 188.16, 285.68 183, 283.39 177.88 M283.8 177.37 C279.6 173.6, 278.97 168.78, 277.22 165.15 M282.88 177.44 C281.71 173.54, 279.09 169.34, 277.08 164.31 M275.66 165.06 C272.79 158.46, 271.28 154.11, 267.62 152.63 M276.46 163.85 C274.94 161.9, 272.68 157.78, 268.75 151.22 M268.19 151.77 C265.8 148.92, 265.16 143.6, 261.48 139.27 M269.11 151.73 C266.33 147.85, 263.53 143.1, 260.16 139.27 M259.48 139.95 C258.51 135.22, 256.91 130.74, 252.15 126.23 M260.59 138.15 C258.39 134.4, 254.75 131.31, 252.25 126.43 M251.25 127.52 C250.53 121.84, 246.23 118.94, 241.75 114.81 M251.55 126.4 C248.74 121.32, 245.78 116.99, 242.36 114.93 M241.51 115.92 C241.26 112.13, 237.38 110.72, 232.37 103.96 M242.22 114.77 C240.74 111.42, 237.68 108.93, 232.81 102.29 M233.87 101.63 C229.12 101.32, 225.91 95.51, 221.68 92.28 M232 102.68 C230.3 100.08, 225.85 96.99, 222.1 92.76 M221.15 93.19 C218.76 90.82, 216.77 86.03, 212.32 81.58 M222.67 91.55 C217.93 88.41, 213.53 84.82, 211.96 82.33 M212.81 81.65 C210.17 80.06, 205.58 76.52, 201.52 72.87 M211.88 81.94 C207.86 78.56, 205.7 76.06, 200.08 71.73 M200.45 72.68 C196.43 67.95, 193.58 68.42, 187.37 63.86 M199.46 71.37 C195.7 67.71, 191.16 64.49, 188.62 61.96 M188.25 63.03 C183.56 60.68, 181.75 57.86, 176.65 54.01 M188.43 62.01 C183.02 59.84, 179.51 55.75, 175.46 53.7 M176.59 54.55 C171.32 49.72, 166.67 47.06, 163.86 45.02 M176.16 53.97 C173.14 51.07, 168.65 49.81, 162.78 45.87 M162.27 45.72 C159.62 44.67, 156.62 40.71, 151.16 36.85 M163.02 45.45 C157.89 43.01, 154.04 40.63, 149.68 38.05 M149.39 36.64 C145.6 36.73, 139.3 32.7, 136.44 31.29 M149.51 38.13 C146.05 36.54, 141.56 33.04, 136.34 30.6 M137.41 29.63 C133.52 28.59, 129.02 28.08, 121.2 24.83 M135.89 31.23 C130.84 28.76, 126.3 26.2, 122.64 24 M122.9 25.15 C118.32 23.11, 116.71 23.38, 107.72 18.33 M122.31 25.47 C116.34 21.9, 111.23 20.96, 107.77 18.99 M108.95 19.26 C103.25 18.02, 101.66 16.21, 94.77 12.98 M108.42 18.52 C102.48 16.89, 98.15 15.26, 93.47 14.4 M94.73 14.84 C88.87 13.25, 83.53 9.94, 77.69 10.89 M93.54 13.63 C90.23 12.61, 87.34 11.44, 78.97 10.28 M78.7 9.88 C71.81 7.98, 68.43 6.61, 62.65 7.81 M79.3 10.53 C75.14 9.86, 71.45 9.1, 62.78 5.78 M63.6 5.71 C58.27 4.25, 54.24 3.41, 48.32 2.94 M63.7 6.22 C57.21 5.74, 51.89 4.62, 48.37 3.89 M47.31 4.46 C43.3 3.71, 41.68 2.16, 30.64 1.1 M48.34 2.93 C41.42 3.56, 35.41 1.71, 32 1.44 M30.94 1.71 C27.89 1.12, 25.9 1.08, 15.73 0.82 M32.5 1.25 C25.89 0.89, 19.91 1.35, 16.28 0.19 M15.93 -0.37 C10.58 -0.59, 4.78 -0.95, -0.37 -0.62 M15.69 0.19 C11.34 0.64, 7.33 -0.51, -0.59 -0.15 M0 0 C0 0, 0 0, 0 0 M0 0 C0 0, 0 0, 0 0" stroke="#000000" stroke-width="2" fill="none"></path></g></g><g stroke-linecap="round"><g transform="translate(123.86813738003627 457.24205725420416) rotate(0 -4.092691569269832 -1.895550924001114)" fill-rule="evenodd"><path d="M-7.22 -4.95 C-7.22 -4.95, -7.22 -4.95, -7.22 -4.95 M-7.22 -4.95 C-7.22 -4.95, -7.22 -4.95, -7.22 -4.95 M-3.66 3.08 C-1.61 1.75, -0.9 0.48, 0.58 -1.61 M-3.43 2.41 C-2.24 1.4, -0.81 -0.12, 0.59 -1.73 M-6.75 0.14 C-6.75 0.14, -6.75 0.14, -6.75 0.14 M-6.75 0.14 C-6.75 0.14, -6.75 0.14, -6.75 0.14" stroke="black" stroke-width="1" fill="none"></path><path d="M0 0 C0 0, 0 0, 0 0 M0 0 C0 0, 0 0, 0 0 M0.01 0.02 C-0.32 0.33, -0.57 0.64, -0.88 1.03 M0 0.04 C-0.18 0.22, -0.44 0.53, -0.83 0.98 M-0.72 0.93 C-1.16 1.05, -1.66 1.12, -2.14 1.45 M-0.82 0.92 C-1.04 1.07, -1.38 1.2, -2.06 1.44 M-2.09 1.56 C-2.52 1.55, -3.28 1.56, -3.6 1.35 M-2.06 1.54 C-2.49 1.5, -2.86 1.4, -3.74 1.51 M-3.7 1.44 C-4.19 1.21, -4.89 1.27, -5.34 0.91 M-3.76 1.51 C-4.28 1.32, -4.84 1.11, -5.33 1.03 M-5.34 0.89 C-5.78 0.51, -6.19 0.5, -6.93 0.18 M-5.4 0.98 C-5.73 0.79, -6.12 0.43, -6.96 -0.03 M-6.91 0.06 C-7.15 -0.36, -7.5 -0.55, -7.94 -1.04 M-6.85 -0.04 C-7.2 -0.45, -7.63 -0.84, -7.88 -1.22 M-7.98 -1.13 C-7.95 -1.58, -8.21 -1.85, -8.43 -2.58 M-7.99 -1.23 C-8.13 -1.62, -8.17 -1.94, -8.42 -2.5 M-8.52 -2.49 C-8.26 -2.99, -8.29 -3.5, -8.23 -3.76 M-8.44 -2.48 C-8.38 -2.92, -8.22 -3.39, -8.16 -3.75 M-8.33 -3.65 C-8.05 -4.21, -7.72 -4.39, -7.34 -4.85 M-8.23 -3.73 C-7.97 -4.1, -7.58 -4.5, -7.43 -4.73 M-7.53 -4.61 C-7.07 -4.78, -6.72 -5.16, -6.2 -5.18 M-7.41 -4.77 C-7.04 -4.85, -6.78 -5.03, -6.1 -5.31 M-6.15 -5.32 C-5.7 -5.19, -5.24 -5.34, -4.59 -5.24 M-6.14 -5.24 C-5.67 -5.2, -5.28 -5.32, -4.44 -5.19 M-4.59 -5.26 C-4.11 -5.08, -3.6 -4.79, -2.95 -4.65 M-4.59 -5.28 C-3.77 -5.05, -3.22 -4.87, -2.74 -4.66 M-2.76 -4.79 C-2.4 -4.43, -1.74 -4.33, -1.36 -3.88 M-2.77 -4.71 C-2.39 -4.49, -1.9 -4.15, -1.29 -3.84 M-1.13 -3.87 C-0.94 -3.53, -0.82 -3.34, -0.12 -2.42 M-1.23 -3.79 C-0.99 -3.5, -0.83 -3.24, -0.23 -2.55 M-0.27 -2.62 C-0.22 -2.15, 0.12 -1.79, 0.15 -1.3 M-0.21 -2.6 C-0.07 -2.15, 0.08 -1.57, 0.23 -1.28 M0.21 -1.35 C0.12 -0.69, 0.03 -0.35, 0.13 -0.07 M0.17 -1.26 C0.18 -0.88, 0.11 -0.62, -0.03 -0.06 M0 0 C0 0, 0 0, 0 0 M0 0 C0 0, 0 0, 0 0" stroke="#000000" stroke-width="2" fill="none"></path></g></g><g stroke-linecap="round"><g transform="translate(139.33560676405693 471.0424175689981) rotate(0 -3.65524371491162 -3.992967569697285)" fill-rule="evenodd"><path d="M-7.48 -7.83 C-7.48 -7.83, -7.48 -7.83, -7.48 -7.83 M-7.48 -7.83 C-7.48 -7.83, -7.48 -7.83, -7.48 -7.83 M-3.46 1.05 C-1.79 -1.38, -0.06 -3.89, 0.94 -5.05 M-4.24 0.24 C-2.9 -0.55, -2.16 -2.25, 0.8 -4.93 M-6.57 -1.58 C-6.57 -1.58, -6.57 -1.58, -6.57 -1.58 M-6.57 -1.58 C-6.57 -1.58, -6.57 -1.58, -6.57 -1.58" stroke="black" stroke-width="1" fill="none"></path><path d="M0 0 C0 0, 0 0, 0 0 M0 0 C0 0, 0 0, 0 0 M0.03 -0.09 C-0.32 0.09, -0.66 0.29, -1.27 0.6 M0.05 0.04 C-0.39 0.16, -0.67 0.35, -1.33 0.65 M-1.39 0.68 C-1.81 0.5, -2.28 0.63, -3.05 0.46 M-1.41 0.72 C-1.96 0.6, -2.56 0.7, -3.05 0.66 M-2.91 0.79 C-3.36 0.37, -3.78 0.39, -4.94 -0.23 M-2.94 0.61 C-3.4 0.46, -3.93 0.25, -4.76 -0.08 M-4.83 -0.02 C-5.56 -0.71, -5.91 -1.08, -6.48 -1.43 M-4.76 -0.17 C-5.31 -0.64, -5.87 -0.89, -6.33 -1.44 M-6.51 -1.35 C-7.09 -1.96, -7.22 -2.87, -7.44 -3.31 M-6.4 -1.41 C-6.76 -2.06, -7.35 -2.78, -7.69 -3.28 M-7.59 -3.22 C-8 -4.04, -8.12 -4.56, -8.04 -4.94 M-7.71 -3.14 C-7.9 -3.81, -8.05 -4.27, -8.25 -5.11 M-8.14 -4.94 C-8.35 -5.51, -8.35 -5.8, -8.21 -6.67 M-8.26 -5.07 C-8.22 -5.51, -8.09 -6.14, -8.12 -6.64 M-8.1 -6.6 C-8.02 -6.98, -7.94 -7.23, -7.33 -7.95 M-8.09 -6.72 C-7.9 -7.01, -7.73 -7.42, -7.33 -7.96 M-7.21 -8.12 C-7.03 -8.25, -6.41 -8.34, -6.09 -8.55 M-7.3 -8.06 C-6.93 -8.13, -6.6 -8.38, -5.95 -8.66 M-5.81 -8.72 C-5.31 -8.73, -5.04 -8.73, -4.21 -8.73 M-6 -8.58 C-5.41 -8.6, -4.95 -8.62, -4.36 -8.63 M-4.38 -8.65 C-3.77 -8.42, -3.46 -8.31, -2.51 -7.98 M-4.28 -8.57 C-3.83 -8.41, -3.56 -8.19, -2.46 -7.87 M-2.54 -8.05 C-1.97 -7.63, -1.29 -7.19, -0.78 -6.35 M-2.56 -7.8 C-1.96 -7.44, -1.4 -6.86, -0.79 -6.54 M-0.94 -6.59 C-0.46 -5.73, -0.24 -5.4, 0.23 -4.75 M-0.86 -6.61 C-0.6 -6.13, -0.23 -5.64, 0.28 -4.85 M0.25 -4.65 C0.44 -4.33, 0.48 -3.7, 1.1 -3.05 M0.34 -4.73 C0.44 -4.4, 0.54 -3.85, 0.94 -2.95 M0.86 -3.09 C0.9 -2.46, 0.83 -2.24, 0.76 -1.21 M0.88 -2.96 C0.81 -2.37, 0.9 -1.72, 0.78 -1.25 M0.7 -1.32 C0.67 -0.93, 0.28 -0.33, -0.08 -0.04 M0.8 -1.28 C0.62 -0.92, 0.28 -0.6, -0.08 0.04 M0 0 C0 0, 0 0, 0 0 M0 0 C0 0, 0 0, 0 0" stroke="#000000" stroke-width="2" fill="none"></path></g></g><g stroke-linecap="round"><g transform="translate(149.94730148240058 488.69980735681156) rotate(0 -3.492023924091953 -5.107641147486433)" fill-rule="evenodd"><path d="M-7.06 -10.11 C-7.06 -10.11, -7.06 -10.11, -7.06 -10.11 M-7.06 -10.11 C-7.06 -10.11, -7.06 -10.11, -7.06 -10.11 M-4.17 0.26 C-2.98 -1.78, -1.91 -3.64, 0.67 -7.69 M-5.22 -0.29 C-3.33 -2.2, -2.6 -2.93, 0.83 -7.07 M-5.63 -1.14 C-5.63 -1.14, -5.63 -1.14, -5.63 -1.14 M-5.63 -1.14 C-5.63 -1.14, -5.63 -1.14, -5.63 -1.14 M0.73 -6.05 C0.35 -6.93, -1.65 -8.03, -4.93 -10.92 M1.5 -6.15 C-0.34 -7.09, -1.34 -8.32, -4.68 -11.18" stroke="black" stroke-width="1" fill="none"></path><path d="M0 0 C0 0, 0 0, 0 0 M0 0 C0 0, 0 0, 0 0 M-0.11 0.05 C-0.67 0.28, -1.2 0.46, -1.72 0.48 M0.05 -0.03 C-0.39 0.19, -0.75 0.28, -1.66 0.48 M-1.62 0.46 C-2.52 0.24, -3.05 0.26, -3.69 0.33 M-1.58 0.55 C-2.21 0.48, -2.59 0.31, -3.46 0.14 M-3.31 0.3 C-4.23 -0.07, -4.64 -0.72, -5.52 -1.07 M-3.52 0.24 C-4.04 -0.2, -4.61 -0.37, -5.35 -0.83 M-5.28 -1.08 C-6.12 -1.45, -6.59 -2.39, -7 -2.68 M-5.46 -0.93 C-6 -1.54, -6.33 -1.94, -7.01 -2.6 M-6.91 -2.92 C-7.16 -3.2, -7.76 -3.83, -8.24 -4.73 M-6.97 -2.61 C-7.24 -3.26, -7.59 -3.72, -8.2 -4.78 M-8.13 -5.02 C-8.42 -5.68, -8.37 -6.2, -8.39 -6.98 M-8.04 -4.95 C-8.29 -5.62, -8.28 -6.3, -8.57 -7.08 M-8.38 -7.16 C-8.45 -7.86, -8.22 -8.47, -8.09 -8.8 M-8.53 -7.04 C-8.28 -7.44, -8.26 -8.04, -8.04 -8.95 M-8.01 -8.91 C-7.73 -9.49, -7.3 -9.83, -6.94 -10.19 M-8.14 -8.86 C-7.56 -9.48, -7.13 -9.92, -6.95 -10.18 M-7.14 -10.36 C-6.58 -10.33, -5.96 -10.67, -5.22 -10.79 M-7.06 -10.17 C-6.48 -10.38, -6.09 -10.5, -5.34 -10.73 M-5.41 -10.61 C-5.08 -10.86, -4.72 -10.53, -3.62 -10.39 M-5.25 -10.72 C-4.62 -10.69, -3.99 -10.58, -3.5 -10.46 M-3.53 -10.35 C-3.08 -10.29, -2.76 -9.89, -1.72 -9.5 M-3.43 -10.34 C-2.82 -10.12, -2.12 -9.59, -1.6 -9.31 M-1.8 -9.29 C-1.32 -8.57, -0.79 -8.11, 0.26 -7.45 M-1.52 -9.32 C-1.18 -8.81, -0.55 -8.15, 0.04 -7.51 M-0.02 -7.55 C0.49 -7.32, 0.41 -6.75, 1.15 -5.48 M-0.04 -7.61 C0.41 -6.73, 0.85 -6, 1.04 -5.43 M1.27 -5.41 C1.21 -5, 1.49 -4.08, 1.38 -3.33 M1.18 -5.42 C1.13 -4.94, 1.33 -4.29, 1.49 -3.29 M1.33 -3.21 C1.5 -2.77, 1.18 -2.29, 1.21 -1.23 M1.48 -3.29 C1.39 -2.75, 1.36 -2.49, 1.17 -1.35 M1.08 -1.21 C0.84 -1.09, 0.82 -0.9, -0.05 -0.02 M1.13 -1.31 C0.8 -1.05, 0.44 -0.69, 0.04 0.03 M0 0 C0 0, 0 0, 0 0 M0 0 C0 0, 0 0, 0 0" stroke="#000000" stroke-width="2" fill="none"></path></g></g><g stroke-linecap="round"><g transform="translate(167.89075394451618 509.1512941839186) rotate(0 -4.905940056704324 -4.615780424534492)" fill-rule="evenodd"><path d="M-10.19 -8.86 C-10.19 -8.86, -10.19 -8.86, -10.19 -8.86 M-10.19 -8.86 C-10.19 -8.86, -10.19 -8.86, -10.19 -8.86 M-6.18 -0.32 C-5.05 -2.42, -3.75 -3.85, -1.44 -8.12 M-6.74 -0.31 C-5.92 -2.26, -3.94 -3.49, -0.82 -7.68 M-8.17 -1.28 C-8.17 -1.28, -8.17 -1.28, -8.17 -1.28 M-8.17 -1.28 C-8.17 -1.28, -8.17 -1.28, -8.17 -1.28 M0.61 -3.02 C-1.97 -6.48, -4.83 -9.49, -7.17 -12.04 M0.47 -4.21 C-1.12 -5.22, -3.02 -6.85, -7.53 -11.18" stroke="black" stroke-width="1" fill="none"></path><path d="M0 0 C0 0, 0 0, 0 0 M0 0 C0 0, 0 0, 0 0 M0.06 -0.12 C-0.39 0.19, -0.88 0.51, -1.67 0.84 M-0.03 -0.02 C-0.42 0.29, -0.95 0.58, -1.67 1.04 M-1.69 0.77 C-2.56 0.98, -3.18 0.86, -3.53 1.03 M-1.59 0.91 C-2.19 1.1, -2.9 1.1, -3.74 1.12 M-3.57 0.99 C-4.28 1.02, -5.29 0.49, -6.09 0.29 M-3.63 1.08 C-4.61 0.75, -5.28 0.58, -5.83 0.45 M-6.1 0.24 C-6.38 -0.03, -7.28 -0.53, -8.05 -1.17 M-5.93 0.21 C-6.5 0.05, -6.82 -0.37, -7.96 -1.19 M-8.31 -0.98 C-8.42 -1.92, -8.92 -2.69, -9.61 -3.47 M-7.97 -1.18 C-8.64 -1.88, -9.11 -2.48, -9.67 -3.18 M-9.92 -3.47 C-10.07 -3.9, -10.05 -4.44, -10.62 -5.39 M-9.85 -3.31 C-10.12 -3.96, -10.41 -4.93, -10.74 -5.38 M-10.83 -5.6 C-10.87 -6.05, -10.79 -6.57, -10.63 -7.57 M-10.69 -5.39 C-10.57 -5.94, -10.65 -6.31, -10.8 -7.47 M-10.76 -7.59 C-10.69 -7.92, -10.35 -8.2, -9.85 -9.05 M-10.71 -7.45 C-10.6 -7.86, -10.29 -8.32, -9.84 -9.25 M-10.04 -9.31 C-9.48 -9.34, -9.34 -9.51, -8.29 -10.25 M-9.83 -9.19 C-9.44 -9.53, -8.95 -9.77, -8.22 -10.31 M-8.08 -10.35 C-7.98 -10.38, -7.25 -10.4, -6.11 -10.18 M-8.2 -10.17 C-7.71 -10.26, -7.12 -10.32, -6.19 -10.39 M-6.07 -10.33 C-5.67 -10.23, -4.87 -10.03, -4.07 -9.48 M-6.05 -10.28 C-5.64 -10.03, -4.87 -9.93, -3.86 -9.56 M-3.85 -9.82 C-3.11 -9.4, -2.65 -8.54, -1.6 -8.03 M-3.88 -9.63 C-3.44 -9.17, -2.84 -8.94, -1.66 -8.15 M-1.7 -7.8 C-1.43 -7.48, -0.78 -6.67, -0.16 -5.78 M-1.77 -8.09 C-1.13 -7.35, -0.67 -6.74, -0.1 -6.04 M-0.09 -6 C0.12 -4.93, 0.89 -4.34, 0.74 -3.9 M-0.09 -6.08 C0.18 -5.15, 0.65 -4.35, 0.78 -3.81 M0.88 -3.65 C0.82 -3.3, 0.81 -2.5, 1.03 -1.89 M0.79 -3.8 C0.96 -3.01, 0.84 -2.23, 0.91 -1.79 M1.06 -1.73 C0.62 -1.01, 0.26 -0.76, -0.02 -0.05 M0.95 -1.68 C0.61 -1.36, 0.39 -0.88, 0.03 -0.03 M0 0 C0 0, 0 0, 0 0 M0 0 C0 0, 0 0, 0 0" stroke="#000000" stroke-width="2" fill="none"></path></g></g><g stroke-linecap="round"><g transform="translate(191.08209427697773 516.0564226761842) rotate(0 -6.505461080554511 -1.9707731399892197)" fill-rule="evenodd"><path d="M-12.18 -5.29 C-12.18 -5.29, -12.18 -5.29, -12.18 -5.29 M-12.18 -5.29 C-12.18 -5.29, -12.18 -5.29, -12.18 -5.29 M-8.46 3.55 C-6.63 0.61, -4.05 -3.54, -3.02 -5.49 M-8.45 2.53 C-7.4 1.48, -5.56 -0.74, -2.53 -4.39 M-10.4 1.3 C-10.4 1.3, -10.4 1.3, -10.4 1.3 M-10.4 1.3 C-10.4 1.3, -10.4 1.3, -10.4 1.3 M1.05 0.11 C-1.96 -1.75, -4.62 -4.05, -8.14 -7.48 M-0.03 -0.22 C-2.37 -2.7, -5.13 -5.04, -7.35 -6.77" stroke="black" stroke-width="1" fill="none"></path><path d="M0 0 C0 0, 0 0, 0 0 M0 0 C0 0, 0 0, 0 0 M-0.12 0.11 C-0.44 0.61, -0.76 0.95, -1.19 1.59 M-0.02 0.07 C-0.38 0.6, -0.78 1.08, -0.98 1.65 M-1.25 1.4 C-1.59 1.83, -2.28 2.29, -2.93 2.59 M-1.11 1.63 C-1.4 1.79, -1.87 2, -2.84 2.6 M-2.97 2.7 C-3.58 2.53, -4.72 2.68, -5.29 3.08 M-2.88 2.47 C-3.86 2.77, -4.69 2.96, -5.13 2.92 M-5.34 3.11 C-5.89 2.72, -6.67 2.73, -7.82 2.36 M-5.36 2.86 C-6.01 2.91, -6.93 2.79, -7.84 2.57 M-7.63 2.74 C-8.54 2.48, -9.26 2.09, -10.47 1.39 M-7.83 2.46 C-8.73 2.14, -9.51 1.94, -10.18 1.41 M-10.47 1.38 C-10.85 1.12, -11.35 0.39, -11.98 -0.03 M-10.32 1.37 C-10.61 1.01, -11.22 0.58, -11.96 -0.2 M-12.19 -0.35 C-12.43 -0.92, -12.73 -1.4, -13.05 -2.18 M-11.97 -0.07 C-12.31 -0.62, -12.48 -1.22, -12.95 -2.11 M-13.07 -2.17 C-13.06 -2.6, -12.98 -3.2, -12.83 -4.03 M-12.93 -2.1 C-12.93 -2.66, -12.97 -3.32, -13.03 -4 M-13.1 -3.87 C-12.51 -4.68, -12.07 -5.2, -12.02 -5.56 M-12.98 -3.93 C-12.67 -4.47, -12.26 -5.05, -12.07 -5.6 M-12.12 -5.69 C-11.4 -5.81, -10.68 -6.29, -10.02 -6.56 M-11.93 -5.58 C-11.49 -5.87, -11.03 -6.1, -10.23 -6.56 M-10.17 -6.65 C-9.66 -6.57, -9.03 -6.89, -7.69 -6.97 M-10.12 -6.59 C-9.26 -6.54, -8.56 -6.75, -7.77 -6.92 M-8.03 -6.64 C-7.22 -6.61, -5.94 -6.49, -5.14 -6.67 M-7.84 -6.87 C-6.92 -6.62, -6.25 -6.56, -5.26 -6.41 M-4.91 -6.68 C-4.6 -6.27, -3.79 -5.95, -2.54 -5.25 M-5.19 -6.42 C-4.37 -6.14, -3.64 -5.76, -2.8 -5.21 M-2.76 -5.51 C-2.1 -4.7, -1.93 -4.64, -1.09 -3.6 M-2.84 -5.44 C-2.18 -4.82, -1.65 -4.44, -1 -3.78 M-0.83 -3.8 C-0.82 -3.32, -0.34 -2.62, -0.19 -1.8 M-0.98 -3.66 C-0.69 -3.31, -0.39 -2.79, -0.09 -1.92 M-0.03 -1.92 C0.19 -1.57, -0.05 -1.06, -0.04 -0.14 M0.02 -1.99 C-0.04 -1.45, 0.05 -0.77, -0.03 -0.09 M0 0 C0 0, 0 0, 0 0 M0 0 C0 0, 0 0, 0 0" stroke="#000000" stroke-width="2" fill="none"></path></g></g><g stroke-linecap="round"><g transform="translate(217.47937234053177 518.9836920128176) rotate(0 -6.755916440265921 0.10235339043909164)" fill-rule="evenodd"><path d="M-12.8 -1.85 C-12.8 -1.85, -12.8 -1.85, -12.8 -1.85 M-12.8 -1.85 C-12.8 -1.85, -12.8 -1.85, -12.8 -1.85 M-7.5 4.57 C-4.98 1.66, -3.66 -1.77, -2.43 -3.14 M-8.52 4.59 C-6.1 2.92, -4.84 0.88, -1.33 -2.63 M-11.2 3.74 C-11.2 3.74, -11.2 3.74, -11.2 3.74 M-11.2 3.74 C-11.2 3.74, -11.2 3.74, -11.2 3.74 M-0.39 2.58 C-2.2 0.54, -4.54 -2.03, -9.83 -4.23 M-0.75 2.63 C-4.02 -0.25, -7.23 -3.32, -9.05 -4.6" stroke="black" stroke-width="1" fill="none"></path><path d="M0 0 C0 0, 0 0, 0 0 M0 0 C0 0, 0 0, 0 0 M0.11 -0.1 C0 0.35, -0.29 0.73, -0.47 1.95 M0.07 -0.01 C-0.15 0.62, -0.41 1.37, -0.41 1.82 M-0.66 1.8 C-0.95 2.08, -1.21 2.7, -1.89 3.23 M-0.43 1.92 C-1.02 2.42, -1.55 2.95, -1.88 3.41 M-1.79 3.5 C-2.92 3.59, -3.73 4.1, -3.89 4.61 M-2.01 3.29 C-2.48 3.69, -3.04 4.06, -4.04 4.36 M-3.86 4.46 C-5.01 4.55, -5.8 4.69, -6.85 4.87 M-4.1 4.47 C-4.55 4.48, -5.16 4.57, -6.63 4.74 M-6.46 4.74 C-7.34 4.56, -8.36 4.38, -9.35 4.53 M-6.75 4.7 C-7.64 4.58, -8.4 4.66, -9.34 4.51 M-9.36 4.47 C-9.71 4.26, -10.54 3.95, -11.36 3.34 M-9.37 4.55 C-10.12 3.99, -10.96 3.84, -11.52 3.55 M-11.68 3.46 C-12.09 2.98, -12.42 2.43, -13.12 1.94 M-11.4 3.47 C-11.81 3.21, -12.27 2.88, -13.05 2.04 M-13.11 2 C-13.13 1.44, -13.32 0.95, -13.62 0.32 M-13.04 2.11 C-13.08 1.62, -13.21 1.13, -13.6 0.31 M-13.46 0.31 C-13.54 -0.03, -13.32 -0.59, -13.04 -1.51 M-13.52 0.18 C-13.39 -0.17, -13.28 -0.64, -13.08 -1.53 M-13.17 -1.77 C-12.51 -2.17, -12.21 -2.28, -11.59 -3.2 M-13.05 -1.62 C-12.51 -2.25, -11.91 -2.9, -11.59 -3.18 M-11.69 -3.27 C-10.93 -3.54, -10.56 -3.62, -9.54 -4.1 M-11.63 -3.04 C-10.73 -3.48, -10.09 -3.84, -9.49 -4.17 M-9.21 -4.41 C-8.72 -4.01, -8.15 -4.33, -7.03 -4.61 M-9.44 -4.09 C-8.31 -4.33, -7.38 -4.59, -6.77 -4.62 M-7.04 -4.7 C-6.22 -4.5, -5.48 -4.24, -4.07 -4.18 M-6.78 -4.6 C-6.27 -4.59, -5.64 -4.49, -4.03 -4.33 M-4.34 -4.09 C-3.14 -4.01, -2.7 -3.68, -1.84 -3.28 M-4.27 -4.25 C-3.38 -3.9, -2.73 -3.61, -2.02 -3.32 M-2.04 -3.39 C-1.73 -2.86, -1.21 -2.84, -0.43 -1.9 M-1.9 -3.26 C-1.6 -2.77, -1.1 -2.49, -0.55 -1.89 M-0.54 -1.63 C-0.47 -1.35, -0.24 -0.83, -0.14 -0.02 M-0.61 -1.87 C-0.44 -1.18, -0.14 -0.65, -0.09 0.01 M0 0 C0 0, 0 0, 0 0 M0 0 C0 0, 0 0, 0 0" stroke="#000000" stroke-width="2" fill="none"></path></g></g><g stroke-linecap="round"><g transform="translate(243.40810141838563 517.9898481176422) rotate(0 -6.678238871804936 1.1893313449329241)" fill-rule="evenodd"><path d="M-12.02 -1.18 C-12.02 -1.18, -12.02 -1.18, -12.02 -1.18 M-12.02 -1.18 C-12.02 -1.18, -12.02 -1.18, -12.02 -1.18 M-8.32 6.99 C-5.67 2.56, -3.58 -0.81, -1.29 -2.6 M-8.31 6.77 C-5.9 3.9, -3.89 1.44, -0.72 -2.28 M-12.69 3.93 C-12.69 3.93, -12.69 3.93, -12.69 3.93 M-12.69 3.93 C-12.69 3.93, -12.69 3.93, -12.69 3.93 M-1.15 3.63 C-3.59 1.59, -6.38 -1.26, -8.32 -2.49 M-1.1 3.02 C-2.83 1.55, -4.78 0.06, -8.66 -3.9" stroke="black" stroke-width="1" fill="none"></path><path d="M0 0 C0 0, 0 0, 0 0 M0 0 C0 0, 0 0, 0 0 M-0.1 0.1 C-0.16 0.56, -0.29 1.26, -0.09 1.99 M-0.01 0.03 C-0.09 0.43, -0.05 1.06, -0.22 1.89 M-0.24 1.85 C-0.73 2.47, -0.89 2.78, -1.5 3.72 M-0.13 1.85 C-0.54 2.37, -0.92 2.99, -1.31 3.69 M-1.23 3.41 C-2.21 3.93, -2.78 4.72, -3.1 4.96 M-1.43 3.64 C-2 4.15, -2.6 4.52, -3.34 5.02 M-3.24 4.9 C-3.89 5.23, -4.48 5.21, -5.79 5.65 M-3.23 5.09 C-4.06 5.34, -4.81 5.5, -5.92 5.89 M-5.92 6.08 C-6.57 6.02, -7.2 5.85, -8.45 6.04 M-5.95 5.76 C-6.99 5.94, -7.82 5.87, -8.47 5.91 M-8.51 6.16 C-8.95 5.8, -9.51 5.76, -10.96 5.45 M-8.43 5.89 C-9.15 5.68, -9.47 5.6, -10.74 5.36 M-10.84 5.2 C-11.15 5.1, -11.56 4.6, -12.59 3.96 M-10.83 5.33 C-11.2 4.9, -11.64 4.59, -12.48 4.15 M-12.53 4.11 C-12.68 3.66, -12.77 3.08, -13.26 2.31 M-12.42 4.12 C-12.74 3.61, -13.04 3, -13.27 2.33 M-13.27 2.26 C-13.17 1.96, -13.3 1.56, -13.03 0.32 M-13.4 2.44 C-13.3 1.78, -13.32 1.02, -13.05 0.46 M-13.3 0.62 C-12.85 -0.1, -12.12 -0.82, -12.03 -1.04 M-13.15 0.43 C-12.79 -0.1, -12.45 -0.68, -12.02 -1.26 M-12.1 -1.18 C-11.44 -1.87, -10.57 -2.26, -9.95 -2.52 M-11.87 -1.12 C-11.21 -1.73, -10.46 -2.35, -10.03 -2.71 M-10.26 -2.48 C-9 -2.77, -8.42 -3.4, -7.54 -3.24 M-9.94 -2.48 C-9.25 -2.81, -8.57 -3.1, -7.55 -3.49 M-7.63 -3.59 C-6.67 -3.57, -5.67 -3.39, -4.76 -3.73 M-7.53 -3.52 C-6.9 -3.53, -6.17 -3.37, -4.9 -3.46 M-4.66 -3.31 C-4.3 -3.46, -3.67 -3.02, -2.54 -2.82 M-4.83 -3.51 C-4.24 -3.43, -3.68 -3.23, -2.58 -3.02 M-2.65 -2.99 C-1.89 -2.41, -1.67 -2.05, -0.94 -1.71 M-2.52 -2.97 C-2.08 -2.64, -1.84 -2.38, -0.93 -1.73 M-0.66 -1.81 C-0.58 -1.07, -0.24 -0.53, -0.02 0.06 M-0.9 -1.81 C-0.5 -1.07, -0.27 -0.58, 0.01 0.05 M0 0 C0 0, 0 0, 0 0 M0 0 C0 0, 0 0, 0 0" stroke="#000000" stroke-width="2" fill="none"></path></g></g></svg>