<?xml version="1.0" encoding="utf-8" standalone="yes"?> <svg width="1000" height="1000" viewBox="-1 -1 27 27" xmlns="http://www.w3.org/2000/svg" shape-rendering="crispEdges" id="qr code"><rect id="qr background" fill-opacity="1" fill="rgb(255, 255, 255)" x="-1" y="-1" width="27" height="27"></rect><path fill-opacity="1" fill="rgb(0, 0, 0)" id="qr dark pixels" fill-rule="evenodd" d="M 8 0 L 9 0 L 9 1 L 8 1 z M 11 0 L 13 0 L 13 1 L 11 1 z M 9 1 L 11 1 L 11 3 L 10 3 L 10 2 L 9 2 z M 13 1 L 15 1 L 15 2 L 17 2 L 17 7 L 16 7 L 16 4 L 15 4 L 15 3 L 14 3 L 14 4 L 12 4 L 12 2 L 13 2 z M 9 4 L 10 4 L 10 5 L 9 5 z M 11 4 L 12 4 L 12 5 L 11 5 z M 10 5 L 11 5 L 11 7 L 12 7 L 12 9 L 10 9 L 10 10 L 9 10 L 9 8 L 10 8 z M 12 5 L 14 5 L 14 6 L 13 6 L 13 7 L 12 7 z M 8 6 L 9 6 L 9 8 L 8 8 z M 14 6 L 15 6 L 15 7 L 14 7 z M 13 7 L 14 7 L 14 8 L 13 8 z M 0 8 L 2 8 L 2 9 L 1 9 L 1 10 L 0 10 z M 3 8 L 5 8 L 5 9 L 6 9 L 6 10 L 9 10 L 9 11 L 8 11 L 8 12 L 7 12 L 7 11 L 5 11 L 5 10 L 4 10 L 4 9 L 3 9 z M 6 8 L 7 8 L 7 9 L 6 9 z M 15 8 L 16 8 L 16 10 L 18 10 L 18 11 L 16 11 L 16 12 L 14 12 L 14 11 L 15 11 L 15 10 L 12 10 L 12 9 L 15 9 z M 18 8 L 19 8 L 19 9 L 18 9 z M 24 8 L 25 8 L 25 9 L 24 9 z M 19 9 L 24 9 L 24 10 L 22 10 L 22 11 L 24 11 L 24 10 L 25 10 L 25 13 L 24 13 L 24 12 L 21 12 L 21 10 L 19 10 z M 2 10 L 3 10 L 3 11 L 4 11 L 4 13 L 2 13 L 2 15 L 1 15 L 1 17 L 0 17 L 0 13 L 1 13 L 1 12 L 2 12 z M 10 10 L 12 10 L 12 11 L 13 11 L 13 13 L 11 13 L 11 12 L 10 12 L 10 14 L 13 14 L 13 15 L 12 15 L 12 16 L 11 16 L 11 15 L 10 15 L 10 18 L 8 18 L 8 16 L 9 16 L 9 15 L 6 15 L 6 16 L 7 16 L 7 17 L 4 17 L 4 16 L 3 16 L 3 17 L 2 17 L 2 15 L 3 15 L 3 14 L 4 14 L 4 15 L 5 15 L 5 13 L 6 13 L 6 14 L 7 14 L 7 13 L 9 13 L 9 11 L 10 11 z M 0 11 L 1 11 L 1 12 L 0 12 z M 18 11 L 19 11 L 19 12 L 20 12 L 20 13 L 18 13 z M 6 12 L 7 12 L 7 13 L 6 13 z M 16 12 L 17 12 L 17 13 L 16 13 z M 13 13 L 14 13 L 14 14 L 13 14 z M 15 13 L 16 13 L 16 15 L 15 15 z M 17 13 L 18 13 L 18 14 L 19 14 L 19 15 L 20 15 L 20 16 L 18 16 L 18 15 L 17 15 z M 20 13 L 21 13 L 21 14 L 23 14 L 23 13 L 24 13 L 24 14 L 25 14 L 25 16 L 24 16 L 24 15 L 23 15 L 23 16 L 24 16 L 24 18 L 22 18 L 22 16 L 21 16 L 21 15 L 20 15 z M 16 15 L 17 15 L 17 16 L 16 16 z M 13 16 L 14 16 L 14 17 L 13 17 z M 11 17 L 13 17 L 13 18 L 12 18 L 12 19 L 10 19 L 10 18 L 11 18 z M 15 17 L 16 17 L 16 18 L 15 18 z M 13 18 L 14 18 L 14 20 L 13 20 L 13 21 L 12 21 L 12 19 L 13 19 z M 24 18 L 25 18 L 25 19 L 24 19 z M 9 19 L 10 19 L 10 20 L 9 20 z M 15 19 L 16 19 L 16 21 L 15 21 L 15 22 L 13 22 L 13 21 L 14 21 L 14 20 L 15 20 z M 23 19 L 24 19 L 24 20 L 25 20 L 25 25 L 24 25 L 24 24 L 22 24 L 22 23 L 21 23 L 21 24 L 19 24 L 19 23 L 20 23 L 20 22 L 23 22 z M 8 20 L 9 20 L 9 21 L 10 21 L 10 23 L 11 23 L 11 24 L 9 24 L 9 25 L 8 25 L 8 23 L 9 23 L 9 22 L 8 22 z M 16 21 L 17 21 L 17 22 L 18 22 L 18 23 L 16 23 z M 18 21 L 19 21 L 19 22 L 18 22 z M 12 22 L 13 22 L 13 23 L 12 23 z M 14 23 L 15 23 L 15 25 L 12 25 L 12 24 L 14 24 z M 16 24 L 18 24 L 18 25 L 16 25 z M 21 24 L 22 24 L 22 25 L 21 25 z"></path><path id="qr squares" d="M0,0h7h0v0v7v0h0h-7h0v0v-7v0h0zM1,1h5h0v0v5v0h0h-5h0v0v-5v0h0zM2,2h3h0v0v3v0h0h-3h0v0v-3v0h0z M18,0h7h0v0v7v0h0h-7h0v0v-7v0h0zM19,1h5h0v0v5v0h0h-5h0v0v-5v0h0zM20,2h3h0v0v3v0h0h-3h0v0v-3v0h0z M0,18h7h0v0v7v0h0h-7h0v0v-7v0h0zM1,19h5h0v0v5v0h0h-5h0v0v-5v0h0zM2,20h3h0v0v3v0h0h-3h0v0v-3v0h0zM16,16h5h0v0v5v0h0h-5h0v0v-5v0h0zM17,17h3h0v0v3v0h0h-3h0v0v-3v0h0zM18,18h1h0v0v1v0h0h-1h0v0v-1v0h0z" fill-rule="evenodd" fill-opacity="1" fill="rgb(0, 0, 0)"></path></svg>